<?xml version="1.0" encoding="utf-8" ?>
<svg baseProfile="full" height="200mm" version="1.1" viewBox="0,0,200,200" width="200mm" xmlns="http://www.w3.org/2000/svg" xmlns:ev="http://www.w3.org/2001/xml-events" xmlns:xlink="http://www.w3.org/1999/xlink"><defs /><rect fill="#1a1a1a" height="200" width="200" x="0" y="0" /><text alignment-baseline="middle" fill="#e1ed5e" style="dominant-baseline: central; font-size:9.0px; font-family:Arial;" text-anchor="middle" x="100.0" y="100.0">2022</text><line stroke="#e1ed5e" stroke-width="0.3" x1="100.0" x2="100.0" y1="15.0" y2="10.0" /><path d="M 100.0 14.0 a86.0,86.0 0 0,1 42.46469731375804,11.215312516191453" fill="none" id="id121" stroke="none" /><text fill="#e1ed5e" style="font-size:6.75px; font-family:Arial;" text-anchor="middle"><textPath startOffset="22.20632615414155" xlink:href="#id121">January</textPath></text><line stroke="#e1ed5e" stroke-width="0.3" x1="143.23703022742887" x2="145.7803849466894" y1="26.81831364943548" y2="22.513508569990506" /><path d="M 143.74570117128098 25.957352633546492 a86.0,86.0 0 0,1 28.547481713284135,27.462654790039103" fill="none" id="id122" stroke="none" /><text fill="#e1ed5e" style="font-size:6.75px; font-family:Arial;" text-anchor="middle"><textPath startOffset="19.985693538727396" xlink:href="#id122">February</textPath></text><line stroke="#e1ed5e" stroke-width="0.3" x1="172.23445277983987" x2="176.4835382374775" y1="55.19839476539836" y2="52.563006222186495" /><path d="M 173.08426987136738 54.67131705675599 a86.0,86.0 0 0,1 12.851231095245387,41.99856678651699" fill="none" id="id123" stroke="none" /><text fill="#e1ed5e" style="font-size:6.75px; font-family:Arial;" text-anchor="middle"><textPath startOffset="22.20632615414155" xlink:href="#id123">March</textPath></text><path d="M 119.47837535516314 92.15188598940014 l 28.223237007569647 -11.371542941587004 a51.4279985549133,51.4279985549133 0 0,0 0.32376729169686325,0.8239524423818448 l -28.41479784914821 10.884041494309374" fill="#ff3405" stroke="none" /><line stroke="#e1ed5e" stroke-width="0.3" x1="184.98032266829074" x2="189.97916517819016" y1="98.17113171792111" y2="98.06355123074" /><path d="M 185.9800911702706 98.14961562048488 a86.0,86.0 0 0,1 -9.607161424134198,41.387399972396054" fill="none" id="id124" stroke="none" /><text fill="#e1ed5e" style="font-size:6.75px; font-family:Arial;" text-anchor="middle"><textPath startOffset="21.466115282336823" xlink:href="#id124">April</textPath></text><line stroke="#e1ed5e" stroke-width="0.3" x1="174.80103733775053" x2="179.2010983576182" y1="140.37084112569926" y2="142.7455964860345" /><path d="M 175.68104954172406 140.8457921977663 a86.0,86.0 0 0,1 -30.038265399797805,32.042727171017184" fill="none" id="id125" stroke="none" /><text fill="#e1ed5e" style="font-size:6.75px; font-family:Arial;" text-anchor="middle"><textPath startOffset="22.206326154141568" xlink:href="#id125">May</textPath></text><line stroke="#e1ed5e" stroke-width="0.3" x1="143.8653032363475" x2="146.44561519142675" y1="172.8068346515853" y2="177.08958963109032" /><path d="M 144.38136562736335 173.6633856474863 a86.0,86.0 0 0,1 -40.68145358897372,12.25698825130547" fill="none" id="id126" stroke="none" /><text fill="#e1ed5e" style="font-size:6.75px; font-family:Arial;" text-anchor="middle"><textPath startOffset="21.466115282336833" xlink:href="#id126">June</textPath></text><line stroke="#e1ed5e" stroke-width="0.3" x1="102.19456741930631" x2="102.32365962044197" y1="184.97166512339345" y2="189.96999836594603" /><path d="M 102.22038585953345 185.97133177190398 a86.0,86.0 0 0,1 -42.740103519485714,-10.115201625700543" fill="none" id="id127" stroke="none" /><text fill="#e1ed5e" style="font-size:6.75px; font-family:Arial;" text-anchor="middle"><textPath startOffset="22.20632615414155" xlink:href="#id127">July</textPath></text><line stroke="#e1ed5e" stroke-width="0.3" x1="58.666819895761336" x2="56.23545636021788" y1="174.27360380694188" y2="178.64263932499728" /><path d="M 58.180547188652646 175.14741091055294 a86.0,86.0 0 0,1 -31.652253787137756,-30.449443065178592" fill="none" id="id128" stroke="none" /><text fill="#e1ed5e" style="font-size:6.75px; font-family:Arial;" text-anchor="middle"><textPath startOffset="22.20632615414155" xlink:href="#id128">August</textPath></text><path d="M 82.44556493220864 111.52570212397912 l -24.62884703243055 16.17054342430379 a50.46296965317919,50.46296965317919 0 0,0 -0.47049543036401037,-0.7302193562581237 l 24.903547326171605 -15.74420246812422" fill="#ff1c02" stroke="none" /><path d="M 82.24976979558568 111.22182372390057 l -24.933366173877722 15.763054158989878 a50.49824783236994,50.49824783236994 0 0,0 -0.4581762784227367,-0.7387260473204829 l 25.201007091968417 -15.33153178030413" fill="#ff1d02" stroke="none" /><line stroke="#e1ed5e" stroke-width="0.3" x1="26.63291911575756" x2="22.317208475507996" y1="142.92168965132927" y2="145.44649492493687" /><path d="M 25.769776987707644 143.4266507060508 a86.0,86.0 0 0,1 -11.730757126820373,-40.83630448921669" fill="none" id="id129" stroke="none" /><text fill="#e1ed5e" style="font-size:6.75px; font-family:Arial;" text-anchor="middle"><textPath startOffset="21.46611528233685" xlink:href="#id129">September</textPath></text><path d="M 81.87401531095188 110.60418214915194 l -26.73320805439671 15.639636273734782 a51.97196531791907,51.97196531791907 0 0,0 -0.44509781992693465,-0.7760655664495137 l 26.99845787047602 -15.177150861426961" fill="#ff4206" stroke="none" /><path d="M 81.69416730710424 110.29060199501025 l -25.41273495359052 14.2857386167183 a50.152863078034684,50.152863078034684 0 0,0 -0.41656392639796547,-0.7561845255839575 l 25.654875289440003 -13.84618357273652" fill="#ff1402" stroke="none" /><path d="M 81.35079622478065 109.6543875284942 l -29.70700930125937 15.378832445813957 a54.4516799132948,54.4516799132948 0 0,0 -0.4237412363715741,-0.8360816597026388 l 29.967329207417208 -14.865196574408634" fill="#ff7f0b" stroke="none" /><path d="M 81.18737489456691 109.33194174019688 l -27.66944317123696 13.725337650145423 a51.88661488439306,51.88661488439306 0 0,0 -0.3900063421327474,-0.803528580856222 l 27.901602769984425 -13.247020113323916" fill="#ff4006" stroke="none" /><path d="M 81.02952815118164 109.00673069616217 l -27.833239165688195 13.214562693275425 a51.810937499999994,51.810937499999994 0 0,0 -0.37556856251549003,-0.8089412715105186 l 28.05658234504351 -12.73350135448608" fill="#ff3e05" stroke="none" /><path d="M 80.73074385275274 108.34839909993369 l -28.34209629779182 12.279204210823707 a51.8877528901734,51.8877528901734 0 0,0 -0.34801614679604675,-0.8226073687180057 l 28.549263425780172 -11.789522316439541" fill="#ff4006" stroke="none" /><path d="M 80.45479744820244 107.68017299344265 l -52.77310605906685 20.736883276640903 a77.70113800578034,77.70113800578034 0 0,0 -0.4784381726781713,-1.2490510962378993 l 53.12223851133853 -19.825408613569845" fill="#3fffbe" stroke="none" /><path d="M 80.32549172779594 107.34259656027581 l -27.46203830317717 10.248930504044665 a50.31218388728324,50.31218388728324 0 0,0 -0.2958254326630162,-0.8139845387208485 l 27.634387996845412 -9.7746981683177" fill="#ff1802" stroke="none" /><path d="M 79.97269907076064 106.31721596034903 l -32.505112526075685 10.253094831309625 a55.08384212427746,55.08384212427746 0 0,0 -0.2774474173451238,-0.9067142128840013 l 32.676786715926944 -9.692053645873575" fill="#ff8e0d" stroke="none" /><path d="M 79.67330655649465 105.27499134158121 l -29.93157013766461 7.767558149825847 a51.92303106936417,51.92303106936417 0 0,0 -0.21705974549506296,-0.8670457852442993 l 30.06084119745473 -7.251184525184155" fill="#ff4106" stroke="none" /><path d="M 79.58551787078972 104.9243191809786 l -30.002761700790156 7.237174765953589 a51.86328576589596,51.86328576589596 0 0,0 -0.20187026797553476,-0.8696518310028344 l 30.12289253469625 -6.71965427760218" fill="#ff3f05" stroke="none" /><path d="M 79.4281124754447 104.21870165774334 l -30.259737844441823 6.205400746764253 a51.889459898843924,51.889459898843924 0 0,0 -0.17190253347709714,-0.8765273147129862 l 30.362070310894588 -5.683609704983312" fill="#ff4006" stroke="none" /><path d="M 79.35854240842038 103.8639653848113 l -28.082971511607546 5.256975159920829 a49.570773121387276,49.570773121387276 0 0,0 -0.14978294812137818,-0.8400623174076065 l 28.169300902068112 -4.772794091780009" fill="#ff0500" stroke="none" /><path d="M 79.23777060512086 103.15116336523772 l -29.596865535422335 4.492030052615297 a50.9358110549133,50.9358110549133 0 0,0 -0.12410376713637362,-0.8679814583024521 l 29.669803353575308 -3.981903122332444" fill="#ff2803" stroke="none" /><path d="M 79.1416061653843 102.43462659150553 l -56.54259942859363 6.599746711716831 a77.92646315028902,77.92646315028902 0 0,0 -0.14404409293606238,-1.3336694037487555 l 56.64782582303075 -5.625480986083294" fill="#3fffc2" stroke="none" /><path d="M 79.07016306316243 101.71520430193888 l -30.082481850202832 2.4652653739337933 a51.18332731213873,51.18332731213873 0 0,0 -0.06440188793316287,-0.8787125933097649 l 30.120460296800328 -1.9470796441272675" fill="#ff2e04" stroke="none" /><path d="M 79.0095281055655 100.63252640178507 l -28.43609863921431 0.8568927484587303 a49.44900650289017,49.44900650289017 0 0,0 -0.018314822517530402,-0.8510178356764121 l 28.44663552441685 -0.3672850969921893" fill="#ff0100" stroke="none" /><line stroke="#e1ed5e" stroke-width="0.3" x1="15.007084014347285" x2="10.007500721073583" y1="101.09737516637583" y2="101.16192664675087" /><path d="M 14.007167355692545 101.11028546245083 a86.0,86.0 0 0,1 10.666146001902534,-42.60595125391555" fill="none" id="id130" stroke="none" /><text fill="#e1ed5e" style="font-size:6.75px; font-family:Arial;" text-anchor="middle"><textPath startOffset="22.20632615414155" xlink:href="#id130">October</textPath></text><path d="M 79.00175016825051 100.2711162175752 l -28.478497030664446 0.3676964727558511 a49.48087066473988,49.48087066473988 0 0,0 -0.0036655964100422225,-0.8517555121682511 l 28.480606924363993 0.1225685176160753" fill="#ff0200" stroke="none" /><path d="M 79.00486145842228 99.54816195383935 l -56.89052994009268 -1.224345618976024 a77.90370303468208,77.90370303468208 0 0,0 0.04039234865134807,-1.340425406312795 l 56.86102589698568 2.2034411727138132" fill="#3fffc2" stroke="none" /><path d="M 79.01574976396665 99.18683210126434 l -28.370812453330718 -1.0994071119340225 a49.392106213872836,49.392106213872836 0 0,0 0.04023431995557842,-0.8492829035393399 l 28.34768452514164 1.5876011220963715" fill="#ff0000" stroke="none" /><path d="M 79.03285615573316 98.82574320788736 l -56.863530391808844 -3.1846200551699475 a77.95263728323701,77.95263728323701 0 0,0 0.08656235386154447,-1.3390813008333562 l 56.80028744694288 4.162960420256316" fill="#40ffc3" stroke="none" /><path d="M 79.08570108090925 98.10471618934814 l -29.750174646496 -2.696003561472499 a50.872082731213865,50.872082731213865 0 0,0 0.08653795322335324,-0.8714253791641059 l 29.699359567590417 3.2077044713410348" fill="#ff2603" stroke="none" /><path d="M 79.12142395522702 97.74499172005258 l -31.162293029976162 -3.3657098383554156 a52.343524205202314,52.343524205202314 0 0,0 0.10446183914229182,-0.8949652440010503 l 31.099740837830282 3.901618820681328" fill="#ff4b07" stroke="none" /><path d="M 79.16333360222342 97.38593545837743 l -31.655284905805676 -3.971314616624876 a52.90342304913294,52.90342304913294 0 0,0 0.12113372589230105,-0.9025869581189553 l 31.58223518085554 4.5156199168084905" fill="#ff5908" stroke="none" /><path d="M 79.26566170972629 96.67025291283419 l -29.239686704902077 -4.695629070591542 a50.61432442196532,50.61432442196532 0 0,0 0.14554784915495236,-0.8590316447038908 l 29.1545269942269 5.19824650361126" fill="#ff2003" stroke="none" /><path d="M 79.32604984820605 96.31383870115002 l -56.08014373771349 -9.999078742190253 a77.96458634393062,77.96458634393062 0 0,0 0.24694085815874445,-1.3191679385505084 l 55.899717155644886 10.962924758203334" fill="#40ffc3" stroke="none" /><path d="M 79.3925641242962 95.95851677861259 l -29.35498716474104 -5.757032985856223 a50.91418894508671,50.91418894508671 0 0,0 0.1760678213861522,-0.8585692262929228 l 29.251540047439892 6.261477868312548" fill="#ff2703" stroke="none" /><path d="M 79.54389044137918 95.25157060432595 l -27.806415399301567 -6.454638888787274 a49.54573699421965,49.54573699421965 0 0,0 0.19999301828638838,-0.8291001756232453 l 27.691189580754365 6.9323242960699165" fill="#ff0400" stroke="none" /><path d="M 79.62865764111835 94.90015583598534 l -55.2002293336972 -13.819048468202203 a77.90370303468208,77.90370303468208 0 0,0 0.3368543807826382,-1.2980373407054802 l 54.95417862104426 14.767182234456547" fill="#3fffc2" stroke="none" /><path d="M 79.71946130924805 94.55025226153421 l -30.037250882782246 -8.071552859827047 a52.10283598265896,52.10283598265896 0 0,0 0.24020208638725885,-0.8641347063131861 l 29.893862025828625 8.587398869559177" fill="#ff4506" stroke="none" /><path d="M 79.91906864156998 93.8553929516997 l -32.64275819863576 -9.988427255845245 a55.13675939306358,55.13675939306358 0 0,0 0.2855152488946496,-0.9051613630735951 l 32.46598746597291 10.548838785345255" fill="#ff900d" stroke="none" /><path d="M 80.02781315780177 93.51064311812611 l -28.688192044764843 -9.321358644656266 a51.164550216763004,51.164550216763004 0 0,0 0.2793650376573379,-0.8352659043422804 l 28.523489713335735 9.813797651920869" fill="#ff2e04" stroke="none" /><path d="M 80.14247586403 93.16781622104843 l -54.932992459631386 -18.90025651949833 a79.09348807803468,79.09348807803468 0 0,0 0.45402268170538757,-1.2835832605329887 l 54.59951669711619 19.84303740645793" fill="#42ffd8" stroke="none" /><path d="M 80.38941819471856 92.48833698450439 l -53.76048296778779 -20.592486016684912 a78.56943641618497,78.56943641618497 0 0,0 0.494637441732381,-1.2587983365240227 l 53.39805197617371 21.5148333581047" fill="#41ffce" stroke="none" /><path d="M 80.52162464483688 92.15188598940014 l -26.39661154412438 -10.635569605495439 a49.45867955202312,49.45867955202312 0 0,0 0.3249631034963884,-0.786923930958655 l 26.20962675374179 11.088368106907405" fill="#ff0200" stroke="none" /><path d="M 80.65960295795068 91.81776055985345 l -27.7785885152274 -11.75214045744386 a51.16227420520231,51.16227420520231 0 0,0 0.35011876708874995,-0.8081223866076462 l 27.57217903829597 12.228561988638104" fill="#ff2e04" stroke="none" /><path d="M 80.95270993114464 91.15688171328213 l -27.137227413309766 -12.599047482447592 a50.919309971098265,50.919309971098265 0 0,0 0.37593437077384695,-0.7918136600672767 l 26.91633484869417 13.064303558155402" fill="#ff2803" stroke="none" /><path d="M 81.10775173730289 90.83032412892265 l -27.160507602161644 -13.182816980947232 a51.190724349710976,51.190724349710976 0 0,0 0.3915846331639518,-0.7894107256403159 l 26.92956295604428 13.648387295086508" fill="#ff2e04" stroke="none" /><path d="M 81.26839172434947 90.50648371742162 l -25.359234307068593 -12.85251646655605 a49.430229407514446,49.430229407514446 0 0,0 0.39118275448859174,-0.7556405707019749 l 25.134242119419888 13.28712975951836" fill="#ff0100" stroke="none" /><path d="M 81.6062741919709 89.86733742301443 l -24.918248815476137 -13.726865883059732 a49.44900650289017,49.44900650289017 0 0,0 0.4171196975079952,-0.7420093984001316 l 24.67827147667571 14.153758791394647" fill="#ff0100" stroke="none" /><line stroke="#e1ed5e" stroke-width="0.3" x1="26.266209847984243" x2="21.928928074336255" y1="57.711370442889674" y2="55.22380399835377" /><path d="M 25.398753493254645 57.213857153982495 a86.0,86.0 0 0,1 29.58750427330803,-30.492523968695096" fill="none" id="id131" stroke="none" /><text fill="#e1ed5e" style="font-size:6.75px; font-family:Arial;" text-anchor="middle"><textPath startOffset="21.46611528233685" xlink:href="#id131">November</textPath></text><path d="M 81.78341655067845 89.55222093294921 l -39.44633985105344 -22.623706850087554 a66.47357297687861,66.47357297687861 0 0,0 0.5778146500152396,-0.9876725382467677 l 39.051065526567875 23.299358800688214" fill="#7cff26" stroke="none" /><path d="M 81.96595687620814 89.24020034530311 l -26.923529861212277 -16.063607329501735 a52.351490245664735,52.351490245664735 0 0,0 0.46838180730160095,-0.7698965384998457 l 26.643032255624462 16.524671641208656" fill="#ff4c07" stroke="none" /><path d="M 82.34701348167596 88.62581576622439 l -28.80887042987691 -18.562150914025594 a55.27104407514451,55.27104407514451 0 0,0 0.5221886243709218,-0.7953291002191841 l 28.48508517014807 19.055298078222446" fill="#ff930d" stroke="none" /><path d="M 82.54541684631803 88.32363383020206 l -47.366681390187765 -31.68627467584743 a77.98791546242774,77.98791546242774 0 0,0 0.7560205505545158,-1.1093668699026724 l 46.81423637396451 32.49691956902051" fill="#40ffc3" stroke="none" /><path d="M 82.7489923806493 88.02491185347247 l -47.08674371072613 -32.686085294890084 a78.31964414739886,78.31964414739886 0 0,0 0.77830101690539,-1.1008515931312792 l 46.51713007401687 33.49176338835315" fill="#40ffc9" stroke="none" /><path d="M 83.17141714833178 87.43820079747576 l -41.25951448471958 -30.79841842412233 a72.48679552023123,72.48679552023123 0 0,0 0.7549812474442787,-0.9934668237295976 l 40.72325729705119 31.504070023732954" fill="#33ff56" stroke="none" /><path d="M 83.39014120810768 87.1503855733568 l -26.989970419307483 -20.87981105799006 a55.1236723265896,55.1236723265896 0 0,0 0.5870563989769908,-0.745502010190064 l 26.62655993973652 21.341305462133175" fill="#ff8f0d" stroke="none" /><path d="M 84.80347519578584 85.50635884689758 l -24.941268884546542 -23.787662361819162 a55.46621206647399,55.46621206647399 0 0,0 0.6648965587691814,-0.6852343498691962 l 24.528108062074242 24.21346090723848" fill="#ff970e" stroke="none" /><path d="M 86.65592168130627 83.78471172551755 l -19.409776636084775 -23.586126818254368 a51.54578215317919,51.54578215317919 0 0,0 0.6899687705520616,-0.5579067616747063 l 19.000904466968212 23.916739677193206" fill="#ff3705" stroke="none" /><path d="M 87.80319425747018 82.90503203632743 l -36.59041722758948 -51.284903891017706 a84.0,84.0 0 0,0 1.184275441665359,-0.8296606289442297 l 35.70221064634046 51.907149362725875" fill="#4dd2ff" stroke="none" /><line stroke="#e1ed5e" stroke-width="0.3" x1="56.762969772571076" x2="54.21961505331055" y1="26.818313649435495" y2="22.513508569990535" /><path d="M 56.25429882871897 25.957352633546506 a86.0,86.0 0 0,1 42.265352541879196,-11.944610805530505" fill="none" id="id132" stroke="none" /><text fill="#e1ed5e" style="font-size:6.75px; font-family:Arial;" text-anchor="middle"><textPath startOffset="22.20632615414155" xlink:href="#id132">December</textPath></text><path d="M 89.94658935756843 81.56283822128135 l -27.41633727227629 -50.27939906636639 a78.26843388728324,78.26843388728324 0 0,0 1.1883941831158147,-0.6347990159236052 l 26.54679804263217 50.74387680879174" fill="#40ffc8" stroke="none" /><path d="M 92.23578459929587 80.48803036053334 l -10.719834536441835 -26.939629469346006 a49.9941112716763,49.9941112716763 0 0,0 0.8023265309254454,-0.31129022910853793 l 10.254524840516714 27.120162402345095" fill="#ff1001" stroke="none" /><path d="M 93.94186890950719 79.89281104454417 l -16.491226466874558 -54.73506626441901 a78.16544436416186,78.16544436416186 0 0,0 1.29162732525523,-0.3770614349953367 l 15.546608923895906 55.01082602833305" fill="#40ffc7" stroke="none" /><path d="M 94.63758080256005 79.69619591428918 l -14.605521203894293 -55.30109269248077 a78.19730852601157,78.19730852601157 0 0,0 1.3043724812104078,-0.3325135885253258 l 13.651439833998886 55.54430927717496" fill="#40ffc7" stroke="none" /><path d="M 96.40284397218896 79.31037775812273 l -9.812321692842703 -56.43714856156302 a78.28379696531792,78.28379696531792 0 0,0 1.3295973338134397,-0.2193949525087832 l 8.839395152890377 56.59768977701143" fill="#40ffc9" stroke="none" /></svg>