<?xml version="1.0" encoding="utf-8" ?>
<svg baseProfile="full" height="200mm" version="1.1" viewBox="0,0,200,200" width="200mm" xmlns="http://www.w3.org/2000/svg" xmlns:ev="http://www.w3.org/2001/xml-events" xmlns:xlink="http://www.w3.org/1999/xlink"><defs /><rect fill="#1a1a1a" height="200" width="200" x="0" y="0" /><text alignment-baseline="middle" fill="#e1ed5e" style="dominant-baseline: central; font-size:9.0px; font-family:Arial;" text-anchor="middle" x="100.0" y="100.0">2012</text><line stroke="#e1ed5e" stroke-width="0.3" x1="100.0" x2="100.0" y1="15.0" y2="10.0" /><path d="M 100.0 14.0 a86.0,86.0 0 0,1 42.35913384403234,11.155469271406648" fill="none" id="id1" stroke="none" /><text fill="#e1ed5e" style="font-size:6.75px; font-family:Arial;" text-anchor="middle"><textPath startOffset="22.145653131862478" xlink:href="#id1">January</textPath></text><line stroke="#e1ed5e" stroke-width="0.3" x1="143.13028292997686" x2="145.6673583964461" y1="26.7553504044142" y2="22.446841604673864" /><path d="M 143.63769802327073 25.89364864446614 a86.0,86.0 0 0,1 29.32050498858742,28.57503671076993" fill="none" id="id2" stroke="none" /><text fill="#e1ed5e" style="font-size:6.75px; font-family:Arial;" text-anchor="middle"><textPath startOffset="20.669276256404974" xlink:href="#id2">February</textPath></text><line stroke="#e1ed5e" stroke-width="0.3" x1="172.87174338648825" x2="177.1583165268699" y1="56.24261187166439" y2="53.66864786411523" /><path d="M 173.72905801456457 55.72781907015455 a86.0,86.0 0 0,1 12.242430191666344,42.057860355516425" fill="none" id="id3" stroke="none" /><text fill="#e1ed5e" style="font-size:6.75px; font-family:Arial;" text-anchor="middle"><textPath startOffset="22.145653131862474" xlink:href="#id3">March</textPath></text><line stroke="#e1ed5e" stroke-width="0.3" x1="184.99686870605535" x2="189.99668451229388" y1="99.2704041080226" y2="99.22748670261217" /><path d="M 185.99683186730306 99.26182062694052 a86.0,86.0 0 0,1 -10.086455211305974,41.156179273409016" fill="none" id="id4" stroke="none" /><text fill="#e1ed5e" style="font-size:6.75px; font-family:Arial;" text-anchor="middle"><textPath startOffset="21.40746469413373" xlink:href="#id4">April</textPath></text><line stroke="#e1ed5e" stroke-width="0.3" x1="174.33088141563837" x2="178.70328620479359" y1="141.23008692659167" y2="143.65538615756765" /><path d="M 175.20536237346943 141.71514677278685 a86.0,86.0 0 0,1 -30.301960400862466,31.631185727798858" fill="none" id="id5" stroke="none" /><text fill="#e1ed5e" style="font-size:6.75px; font-family:Arial;" text-anchor="middle"><textPath startOffset="22.145653131862474" xlink:href="#id5">May</textPath></text><line stroke="#e1ed5e" stroke-width="0.3" x1="143.1302829299769" x2="145.66735839644613" y1="173.24464959558577" y2="177.55315839532614" /><path d="M 143.63769802327073 174.10635135553383 a86.0,86.0 0 0,1 -40.68552437913181,11.842963189579606" fill="none" id="id6" stroke="none" /><text fill="#e1ed5e" style="font-size:6.75px; font-family:Arial;" text-anchor="middle"><textPath startOffset="21.407464694133747" xlink:href="#id6">June</textPath></text><line stroke="#e1ed5e" stroke-width="0.3" x1="101.45913802915013" x2="101.54496967792366" y1="184.9874750549273" y2="189.98673829345242" /><path d="M 101.47630435890484 185.9873277026323 a86.0,86.0 0 0,1 -42.54439059252881,-10.42667462771756" fill="none" id="id7" stroke="none" /><text fill="#e1ed5e" style="font-size:6.75px; font-family:Arial;" text-anchor="middle"><textPath startOffset="22.145653131862474" xlink:href="#id7">July</textPath></text><line stroke="#e1ed5e" stroke-width="0.3" x1="58.13341422392154" x2="55.67067388415222" y1="173.97424548756322" y2="178.32567169271397" /><path d="M 57.64086615596768 174.84453072859336 a86.0,86.0 0 0,1 -31.369924170532247,-30.572349798747897" fill="none" id="id8" stroke="none" /><text fill="#e1ed5e" style="font-size:6.75px; font-family:Arial;" text-anchor="middle"><textPath startOffset="22.145653131862474" xlink:href="#id8">August</textPath></text><path d="M 88.4268655584334 117.5232005979908 l -13.62710932777597 20.633180365011462 a45.72703461004278,45.72703461004278 0 0,0 -0.6512917041038326,-0.4382181247463053 l 13.97929731997681 -20.396212566208035" fill="#fffb17" stroke="none" /><path d="M 86.40962598614128 116.0094264158162 l -16.908760748630296 19.918477645412356 a47.12760880304993,47.12760880304993 0 0,0 -0.6122561310085896,-0.5288522636831391 l 17.24819635940175 -19.625281249264493" fill="#f0ff19" stroke="none" /><path d="M 84.58840730492382 114.26474011684316 l -17.967525779506747 16.630473621926747 a45.482741585182836,45.482741585182836 0 0,0 -0.5254389371704761,-0.5775494353042215 l 18.250362417519106 -16.319586611064853" fill="#fff817" stroke="none" /><path d="M 82.98947788004972 112.3143062007846 l -11.278879484330153 8.16503894427169 a34.92411517416877,34.92411517416877 0 0,0 -0.3473866836706928,-0.48864287500909337 l 11.417381266530807 -7.970218842553092" fill="#ff5d08" stroke="none" /><line stroke="#e1ed5e" stroke-width="0.3" x1="26.387840678322732" x2="22.057713659400548" y1="142.50000000000003" y2="145.00000000000006" /><path d="M 25.521815274538298 143.00000000000003 a86.0,86.0 0 0,1 -11.493303480769221,-40.785679425670985" fill="none" id="id9" stroke="none" /><text fill="#e1ed5e" style="font-size:6.75px; font-family:Arial;" text-anchor="middle"><textPath startOffset="21.40746469413373" xlink:href="#id9">September</textPath></text><path d="M 81.63589988554817 110.18625677009913 l -21.56015638943929 11.959055309957268 a45.654803739711596,45.654803739711596 0 0,0 -0.37427079886622816,-0.688616114915238 l 21.762272537920847 -11.587184361567443" fill="#fffa17" stroke="none" /><path d="M 81.1358732173502 109.22738970284198 l -21.946223465625234 10.734997636319608 a45.43106421453939,45.43106421453939 0 0,0 -0.3366674249875004,-0.7035054333545535 l 22.127270148572645 -10.356679700899951" fill="#fff717" stroke="none" /><path d="M 80.41425534168474 107.57618678355246 l -22.872825619277283 8.847700313794183 a45.52443582740653,45.52443582740653 0 0,0 -0.2756814939954705,-0.7312779157547776 l 23.021337797087188 -8.45375411784526" fill="#fff817" stroke="none" /><path d="M 80.16572619554312 106.89939002012753 l -23.354972493491033 8.12407178253922 a45.727621852891005,45.727621852891005 0 0,0 -0.2515336648016623,-0.7436145853829054 l 23.490991579865064 -7.721955522682152" fill="#fffb17" stroke="none" /><path d="M 79.0935383218832 101.97986365728391 l -32.7402895265116 3.1005394581113253 a53.886773986073955,53.886773986073955 0 0,0 -0.07930690325786513,-0.9216664305058317 l 32.78869005246721 -2.5380519802298314" fill="#98ff23" stroke="none" /><line stroke="#e1ed5e" stroke-width="0.3" x1="15.003131293944662" x2="10.003315487706104" y1="100.72959589197737" y2="100.7725132973878" /><path d="M 14.003168132696942 100.73817937305945 a86.0,86.0 0 0,1 10.791469493833604,-42.45332614584628" fill="none" id="id10" stroke="none" /><text fill="#e1ed5e" style="font-size:6.75px; font-family:Arial;" text-anchor="middle"><textPath startOffset="22.145653131862435" xlink:href="#id10">October</textPath></text><path d="M 79.0935383218832 98.0201363427161 l -32.736781763625295 -3.1002072693189726 a53.88325052898463,53.88325052898463 0 0,0 0.09511062773431368,-0.9201090459233685 l 32.67873874340932 3.661720837525254" fill="#98ff23" stroke="none" /><path d="M 79.22317932658666 96.9465228501225 l -40.709058289652006 -5.982829675165202 a62.146344646302694,62.146344646302694 0 0,0 0.16418030809703998,-1.0541553529892467 l 40.600356489416704 6.680773210085898" fill="#37ff2e" stroke="none" /><path d="M 79.48165901384962 95.52812308129327 l -39.58752070747229 -8.627915884625526 a61.51682031300976,61.51682031300976 0 0,0 0.23373209964224675,-1.029866757490363 l 39.43357774627238 9.306216976054897" fill="#3eff2d" stroke="none" /><line stroke="#e1ed5e" stroke-width="0.3" x1="26.387840678322718" x2="22.05771365940052" y1="57.49999999999999" y2="54.99999999999999" /><path d="M 25.521815274538284 56.99999999999999 a86.0,86.0 0 0,1 29.574782752854787,-30.34633250058573" fill="none" id="id11" stroke="none" /><text fill="#e1ed5e" style="font-size:6.75px; font-family:Arial;" text-anchor="middle"><textPath startOffset="21.40746469413373" xlink:href="#id11">November</textPath></text><path d="M 82.78059297857968 87.97951657250589 l -48.335233922414155 -33.74174718128633 a79.94743710442668,79.94743710442668 0 0,0 0.7952291677304478,-1.118589413689945 l 47.748889656153736 34.56651382168579" fill="#47fdff" stroke="none" /><path d="M 85.60350026404147 84.71141617570332 l -16.857354986729938 -17.901926822310795 a45.589619783559066,45.589619783559066 0 0,0 0.5743645777069591,-0.5316232783603067 l 16.547560637709026 18.188667846803465" fill="#fff917" stroke="none" /><path d="M 87.54013794807813 83.09580414077388 l -4.841043335243031 -6.567805033549863 a29.15915213318295,29.15915213318295 0 0,0 0.4054774354420878,-0.2935343937319001 l 4.727584889426975 6.649940198654843" fill="#ff0000" stroke="none" /><line stroke="#e1ed5e" stroke-width="0.3" x1="56.869717070023135" x2="54.33264160355391" y1="26.7553504044142" y2="22.446841604673864" /><path d="M 56.362301976729285 25.89364864446614 a86.0,86.0 0 0,1 42.16139366436587,-11.88097634709845" fill="none" id="id12" stroke="none" /><text fill="#e1ed5e" style="font-size:6.75px; font-family:Arial;" text-anchor="middle"><textPath startOffset="22.145653131862474" xlink:href="#id12">December</textPath></text><path d="M 94.30408787586887 79.78721728523814 l -17.08773637239339 -60.638348144285594 a84.0,84.0 0 0,0 1.3912743962612895,-0.3791980234234411 l 16.044280575197423 60.922746661853175" fill="#4dd2ff" stroke="none" /></svg>