<?xml version="1.0" encoding="utf-8" ?>
<svg baseProfile="full" height="200mm" version="1.1" viewBox="0,0,200,200" width="200mm" xmlns="http://www.w3.org/2000/svg" xmlns:ev="http://www.w3.org/2001/xml-events" xmlns:xlink="http://www.w3.org/1999/xlink"><defs /><rect fill="#1a1a1a" height="200" width="200" x="0" y="0" /><text alignment-baseline="middle" fill="#e1ed5e" style="dominant-baseline: central; font-size:9.0px; font-family:Arial;" text-anchor="middle" x="100.0" y="100.0">2018</text><line stroke="#e1ed5e" stroke-width="0.3" x1="100.0" x2="100.0" y1="15.0" y2="10.0" /><path d="M 100.0 14.0 a86.0,86.0 0 0,1 42.46469731375804,11.215312516191453" fill="none" id="id73" stroke="none" /><text fill="#e1ed5e" style="font-size:6.75px; font-family:Arial;" text-anchor="middle"><textPath startOffset="22.20632615414155" xlink:href="#id73">January</textPath></text><line stroke="#e1ed5e" stroke-width="0.3" x1="143.23703022742887" x2="145.7803849466894" y1="26.81831364943548" y2="22.513508569990506" /><path d="M 143.74570117128098 25.957352633546492 a86.0,86.0 0 0,1 28.547481713284135,27.462654790039103" fill="none" id="id74" stroke="none" /><text fill="#e1ed5e" style="font-size:6.75px; font-family:Arial;" text-anchor="middle"><textPath startOffset="19.985693538727396" xlink:href="#id74">February</textPath></text><line stroke="#e1ed5e" stroke-width="0.3" x1="172.23445277983987" x2="176.4835382374775" y1="55.19839476539836" y2="52.563006222186495" /><path d="M 173.08426987136738 54.67131705675599 a86.0,86.0 0 0,1 12.851231095245387,41.99856678651699" fill="none" id="id75" stroke="none" /><text fill="#e1ed5e" style="font-size:6.75px; font-family:Arial;" text-anchor="middle"><textPath startOffset="22.20632615414155" xlink:href="#id75">March</textPath></text><line stroke="#e1ed5e" stroke-width="0.3" x1="184.98032266829074" x2="189.97916517819016" y1="98.17113171792111" y2="98.06355123074" /><path d="M 185.9800911702706 98.14961562048488 a86.0,86.0 0 0,1 -9.607161424134198,41.387399972396054" fill="none" id="id76" stroke="none" /><text fill="#e1ed5e" style="font-size:6.75px; font-family:Arial;" text-anchor="middle"><textPath startOffset="21.466115282336823" xlink:href="#id76">April</textPath></text><line stroke="#e1ed5e" stroke-width="0.3" x1="174.80103733775053" x2="179.2010983576182" y1="140.37084112569926" y2="142.7455964860345" /><path d="M 175.68104954172406 140.8457921977663 a86.0,86.0 0 0,1 -30.038265399797805,32.042727171017184" fill="none" id="id77" stroke="none" /><text fill="#e1ed5e" style="font-size:6.75px; font-family:Arial;" text-anchor="middle"><textPath startOffset="22.206326154141568" xlink:href="#id77">May</textPath></text><path d="M 112.92097659922987 116.55440617244103 l 33.350178719722095 42.72838049119948 a75.20284974093263,75.20284974093263 0 0,0 -1.0273112917187657,0.7876984916891824 l -32.60973869950983 -43.29611832471603" fill="#3fffc1" stroke="none" /><path d="M 112.04921762599082 117.19931262002967 l 22.648248141703256 32.32859694100915 a60.47253886010363,60.47253886010363 0 0,0 -0.8576823508979534,0.5899217417128333 l -22.08840890618242 -32.71365947208708" fill="#66ff29" stroke="none" /><path d="M 111.45004920935366 117.60387380957326 l 21.259715721097862 32.68574186352631 a59.99145077720207,59.99145077720207 0 0,0 -0.8704993701628232,0.555593884290119 l -20.69393454888811 -33.04685017664024" fill="#6cff28" stroke="none" /><path d="M 111.1453310114006 117.79835938074945 l 20.799530579195977 33.215480080469696 a60.19041450777202,60.19041450777202 0 0,0 -0.8828523634804719,0.5423200291071893 l -20.224699015783195 -33.56858857640526" fill="#69ff28" stroke="none" /><line stroke="#e1ed5e" stroke-width="0.3" x1="143.8653032363475" x2="146.44561519142675" y1="172.8068346515853" y2="177.08958963109032" /><path d="M 144.38136562736335 173.6633856474863 a86.0,86.0 0 0,1 -40.68145358897372,12.25698825130547" fill="none" id="id78" stroke="none" /><text fill="#e1ed5e" style="font-size:6.75px; font-family:Arial;" text-anchor="middle"><textPath startOffset="21.466115282336833" xlink:href="#id78">June</textPath></text><path d="M 109.89434966115114 118.52300852407294 l 18.394262478865432 34.43552051003817 a60.04041450777202,60.04041450777202 0 0,0 -0.9157852849009311,0.47909557837463873 l -17.798786291438006 -34.74704550735752" fill="#6bff28" stroke="none" /><path d="M 106.2309692047433 120.05430185196036 l 13.962259861968477 44.93737083378208 a68.05647668393783,68.05647668393783 0 0,0 -1.121716653892133,0.33796402623567856 l -13.186668233636098 -45.17105022912349" fill="#34ff5f" stroke="none" /><path d="M 104.48393922423573 120.51570834832081 l 2.826607579807815 12.932792757103941 a34.23808290155441,34.23808290155441 0 0,0 -0.5768440988027983,0.12088328945424431 l -2.6035720195756387 -12.979532027284726" fill="#ff0000" stroke="none" /><path d="M 101.62511606390274 120.93702456842531 l 3.790093037856943 48.829294604141005 a69.97616580310881,69.97616580310881 0 0,0 -1.2017148212623328,0.08287728990124905 l -2.94901545581568 -48.88730023855854" fill="#37ff7a" stroke="none" /><line stroke="#e1ed5e" stroke-width="0.3" x1="102.19456741930631" x2="102.32365962044197" y1="184.97166512339345" y2="189.96999836594603" /><path d="M 102.22038585953345 185.97133177190398 a86.0,86.0 0 0,1 -42.740103519485714,-10.115201625700543" fill="none" id="id79" stroke="none" /><text fill="#e1ed5e" style="font-size:6.75px; font-family:Arial;" text-anchor="middle"><textPath startOffset="22.20632615414155" xlink:href="#id79">July</textPath></text><path d="M 99.09653310690486 120.98055641714683 l -2.364428364597943 54.907405104578224 a75.95829015544041,75.95829015544041 0 0,0 -1.3058023356678197,-0.06749506534825027 l 3.309218768679252 -54.85857023246777" fill="#41ffcb" stroke="none" /><path d="M 96.58105272829116 120.7198165907248 l -8.940003019542749 54.17902300460693 a75.91165803108808,75.91165803108808 0 0,0 -1.2874292897635258,-0.22383608438629768 l 9.871281280778325 -54.017108341699625" fill="#40ffca" stroke="none" /><path d="M 91.7346041902142 119.30500536409082 l -22.03300014772174 51.461199902271254 a76.97953367875647,76.97953367875647 0 0,0 -1.2136348607392486,-0.5320218575071943 l 22.915555683118733 -51.07431349146961" fill="#42ffd8" stroke="none" /><line stroke="#e1ed5e" stroke-width="0.3" x1="58.666819895761336" x2="56.23545636021788" y1="174.27360380694188" y2="178.64263932499728" /><path d="M 58.180547188652646 175.14741091055294 a86.0,86.0 0 0,1 -31.652253787137756,-30.449443065178592" fill="none" id="id80" stroke="none" /><text fill="#e1ed5e" style="font-size:6.75px; font-family:Arial;" text-anchor="middle"><textPath startOffset="22.20632615414155" xlink:href="#id80">August</textPath></text><path d="M 85.44109423537348 115.13401014063109 l -23.514626442415473 24.443498761927522 a54.9178756476684,54.9178756476684 0 0,0 -0.675620751856921,-0.6612371050106701 l 23.93189714664819 -24.03511155399428" fill="#b1ff20" stroke="none" /><path d="M 83.72743513129214 113.27417163493432 l -37.219728127900915 30.361597164404557 a69.03264248704663,69.03264248704663 0 0,0 -0.7431925690400867,-0.9272470009589868 l 37.73683860899586 -29.71642232986731" fill="#36ff6d" stroke="none" /><line stroke="#e1ed5e" stroke-width="0.3" x1="26.63291911575756" x2="22.317208475507996" y1="142.92168965132927" y2="145.44649492493687" /><path d="M 25.769776987707644 143.4266507060508 a86.0,86.0 0 0,1 -11.730757126820373,-40.83630448921669" fill="none" id="id81" stroke="none" /><text fill="#e1ed5e" style="font-size:6.75px; font-family:Arial;" text-anchor="middle"><textPath startOffset="21.46611528233685" xlink:href="#id81">September</textPath></text><path d="M 81.02952815118164 109.00673069616217 l -35.55243351149017 16.87945333057956 a60.3559585492228,60.3559585492228 0 0,0 -0.4375099483883323,-0.9423575061162415 l 35.83771807671833 -16.264975757184494" fill="#67ff28" stroke="none" /><path d="M 79.07016306316243 101.71520430193888 l -54.70727844193525 4.483272354875477 a75.89067357512954,75.89067357512954 0 0,0 -0.095490131482691,-1.3028869768185534 l 54.77634513208228 -3.540912241560163" fill="#40ffca" stroke="none" /><line stroke="#e1ed5e" stroke-width="0.3" x1="15.007084014347285" x2="10.007500721073583" y1="101.09737516637583" y2="101.16192664675087" /><path d="M 14.007167355692545 101.11028546245083 a86.0,86.0 0 0,1 10.666146001902534,-42.60595125391555" fill="none" id="id82" stroke="none" /><text fill="#e1ed5e" style="font-size:6.75px; font-family:Arial;" text-anchor="middle"><textPath startOffset="22.20632615414155" xlink:href="#id82">October</textPath></text><path d="M 79.00019446554 99.90962569577889 l -55.052599001979026 -0.2369231620837547 a76.05310880829015,76.05310880829015 0 0,0 0.01690187226113785,-1.3090686331418397 l 55.040364122600174 1.1845280532860665" fill="#41ffcc" stroke="none" /><path d="M 79.01574976396665 99.18683210126434 l -55.07550236820049 -2.1342497362929813 a76.11683937823834,76.11683937823834 0 0,0 0.06200402259199953,-1.3088069189734404 l 55.03060473737499 3.081967761889431" fill="#41ffcd" stroke="none" /><path d="M 79.16333360222342 97.38593545837743 l -54.53700534112353 -6.841941467360817 a75.96450777202074,75.96450777202074 0 0,0 0.17393702206100153,-1.2960328470857931 l 54.411152320004696 7.77969265651127" fill="#41ffcb" stroke="none" /><path d="M 79.26566170972629 96.67025291283419 l -61.905275298037054 -9.941426980601047 a83.69844559585492,83.69844559585492 0 0,0 0.24068539634212222,-1.4205388336303424 l 61.724978040174705 11.005551602547218" fill="#4dd5ff" stroke="none" /><path d="M 79.62865764111835 94.90015583598534 l -60.97379503820112 -15.264426236880864 a83.85544041450777,83.85544041450777 0 0,0 0.3625895991556276,-1.3972056351528825 l 60.702009107175186 16.31172829758261" fill="#4dd4ff" stroke="none" /><path d="M 79.81627453868168 94.20196356495316 l -60.551176383954946 -17.394109305140535 a84.0,84.0 0 0,0 0.4111764115531722,-1.3862824530138431 l 60.24279407529007 18.433821144900918" fill="#4dd2ff" stroke="none" /><path d="M 80.65960295795068 91.81776055985345 l -48.91359630886317 -20.69361637238542 a74.11088082901554,74.11088082901554 0 0,0 0.5071629560415002,-1.1706020269726216 l 48.55014264297898 21.532517543944643" fill="#3effb3" stroke="none" /><path d="M 81.43458229118936 90.18545643968196 l -45.94082009054392 -24.286454904884714 a72.96528497409327,72.96528497409327 0 0,0 0.5965499270603786,-1.1053164146106882 l 45.515962064265075 25.073652302827877" fill="#3cffa4" stroke="none" /><line stroke="#e1ed5e" stroke-width="0.3" x1="26.266209847984243" x2="21.928928074336255" y1="57.711370442889674" y2="55.22380399835377" /><path d="M 25.398753493254645 57.213857153982495 a86.0,86.0 0 0,1 29.58750427330803,-30.492523968695096" fill="none" id="id83" stroke="none" /><text fill="#e1ed5e" style="font-size:6.75px; font-family:Arial;" text-anchor="middle"><textPath startOffset="21.46611528233685" xlink:href="#id83">November</textPath></text><path d="M 82.7489923806493 88.02491185347247 l -43.73915729039519 -30.362299731395538 a74.24455958549223,74.24455958549223 0 0,0 0.7378048873195825,-1.0435726897226176 l 43.21003978327173 31.11069892144994" fill="#3effb5" stroke="none" /><path d="M 84.31358615837235 86.03803664274999 l -39.71820884437291 -35.35187724227461 a74.17227979274611,74.17227979274611 0 0,0 0.8570654943674222,-0.9463931253489978 l 39.10379970938944 36.03032315489316" fill="#3effb4" stroke="none" /><path d="M 86.10567301691215 84.25364557470407 l -35.73186895165896 -40.49470503147813 a75.00544041450777,75.00544041450777 0 0,0 0.9754500434491425,-0.8459006654347478 l 35.029525109563046 41.10377069033255" fill="#3fffbf" stroke="none" /><path d="M 86.65592168130627 83.78471172551755 l -38.843515618068764 -47.201371896849295 a82.12927461139897,82.12927461139897 0 0,0 1.099345712934624,-0.8889277788233582 l 38.025266506569636 47.86300577293679" fill="#4ae7ff" stroke="none" /><path d="M 88.70189139769569 82.29822771554957 l -28.41252699950326 -44.516485075070555 a73.81088082901555,73.81088082901555 0 0,0 1.0768685825021522,-0.674335007570737 l 27.642039264628867 44.998964423964225" fill="#3dffaf" stroke="none" /><line stroke="#e1ed5e" stroke-width="0.3" x1="56.762969772571076" x2="54.21961505331055" y1="26.818313649435495" y2="22.513508569990535" /><path d="M 56.25429882871897 25.957352633546506 a86.0,86.0 0 0,1 42.265352541879196,-11.944610805530505" fill="none" id="id84" stroke="none" /><text fill="#e1ed5e" style="font-size:6.75px; font-family:Arial;" text-anchor="middle"><textPath startOffset="22.20632615414155" xlink:href="#id84">December</textPath></text><path d="M 94.98787191387505 79.60689891045804 l -12.675564341568327 -51.573714905687304 a74.10854922279793,74.10854922279793 0 0,0 1.2414110576262583,-0.2938018889574956 l 11.785929596979535 51.78426270678567" fill="#3effb3" stroke="none" /><path d="M 97.47563105711357 79.15227682838746 l -6.391829222669052 -52.78748440077883 a74.17305699481867,74.17305699481867 0 0,0 1.268830084524299,-0.14256784398889574 l 5.482232434635035 52.889688198238325" fill="#3effb4" stroke="none" /></svg>