<?xml version="1.0" encoding="utf-8" ?>
<svg baseProfile="full" height="200mm" version="1.1" viewBox="0,0,200,200" width="200mm" xmlns="http://www.w3.org/2000/svg" xmlns:ev="http://www.w3.org/2001/xml-events" xmlns:xlink="http://www.w3.org/1999/xlink"><defs /><rect fill="#1a1a1a" height="200" width="200" x="0" y="0" /><text alignment-baseline="middle" fill="#e1ed5e" style="dominant-baseline: central; font-size:9.0px; font-family:Arial;" text-anchor="middle" x="100.0" y="100.0">2024</text><line stroke="#e1ed5e" stroke-width="0.3" x1="100.0" x2="100.0" y1="15.0" y2="10.0" /><path d="M 100.0 14.0 a86.0,86.0 0 0,1 42.35913384403234,11.155469271406648" fill="none" id="id145" stroke="none" /><text fill="#e1ed5e" style="font-size:6.75px; font-family:Arial;" text-anchor="middle"><textPath startOffset="22.145653131862478" xlink:href="#id145">January</textPath></text><line stroke="#e1ed5e" stroke-width="0.3" x1="143.13028292997686" x2="145.6673583964461" y1="26.7553504044142" y2="22.446841604673864" /><path d="M 143.63769802327073 25.89364864446614 a86.0,86.0 0 0,1 29.32050498858742,28.57503671076993" fill="none" id="id146" stroke="none" /><text fill="#e1ed5e" style="font-size:6.75px; font-family:Arial;" text-anchor="middle"><textPath startOffset="20.669276256404974" xlink:href="#id146">February</textPath></text><line stroke="#e1ed5e" stroke-width="0.3" x1="172.87174338648825" x2="177.1583165268699" y1="56.24261187166439" y2="53.66864786411523" /><path d="M 173.72905801456457 55.72781907015455 a86.0,86.0 0 0,1 12.242430191666344,42.057860355516425" fill="none" id="id147" stroke="none" /><text fill="#e1ed5e" style="font-size:6.75px; font-family:Arial;" text-anchor="middle"><textPath startOffset="22.145653131862474" xlink:href="#id147">March</textPath></text><path d="M 119.31412917781788 91.75594674310238 l 20.73179704741574 -8.849171370686562 a43.541411729592596,43.541411729592596 0 0,0 0.28752707139478656,0.6899603007924114 l -20.880649963347008 8.491978560452873" fill="#ff0100" stroke="none" /><path d="M 119.4528033332814 92.08871423366111 l 20.886870613782964 -8.494508444830368 a43.54812714520221,43.54812714520221 0 0,0 0.27568312978223175,0.6949015766005516 l -21.02961241853132 8.134705851016252" fill="#ff0100" stroke="none" /><path d="M 119.58574465831526 92.42381321644754 l 20.996626428636276 -8.121946161505077 a43.51275928965826,43.51275928965826 0 0,0 0.26349942115298514,0.6989635202227648 l -21.132956533603704 7.760314361088155" fill="#ff0000" stroke="none" /><path d="M 119.83427380445688 93.10060997987247 l 21.450377892985976 -7.461554913574717 a43.71108789732875,43.71108789732875 0 0,0 0.24044132814634428,0.7108220630405003 l -21.575304642704687 7.092231176060055" fill="#ff0400" stroke="none" /><path d="M 119.94978838288452 93.4421083053983 l 21.455793897280966 -7.052945620254247 a43.58528577824205,43.58528577824205 0 0,0 0.22754691401081134,0.7127874672218436 l -21.573705527069034 6.683589119341017" fill="#ff0200" stroke="none" /><path d="M 120.05942366710727 93.78553927170692 l 21.54847462344357 -6.675772520902204 a43.55887181017758,43.55887181017758 0 0,0 0.2151469752686608,0.7161543079079234 l -21.65989791871586 6.304880609403558" fill="#ff0100" stroke="none" /><path d="M 120.26092885502905 94.47779374421319 l 21.792150054233396 -5.939547402668179 a43.58707655573795,43.58707655573795 0 0,0 0.1905596251802986,0.7235859354631229 l -21.890899160218424 5.564580962832258" fill="#ff0200" stroke="none" /><path d="M 120.35273937422433 94.82641323984039 l 21.89003136908387 -5.5643603737193255 a43.58618116699,43.58618116699 0 0,0 0.17810657217373607,0.7267355934856141 l -21.9823254677739 5.187768955625616" fill="#ff0200" stroke="none" /><path d="M 120.43855184770803 95.1765574152323 l 21.992347142417284 -5.19013404355385 a43.596478137591404,43.596478137591404 0 0,0 0.16564406808183096,0.7298583273502381 l -22.078202072056783 4.811841382264585" fill="#ff0200" stroke="none" /><path d="M 120.592083275326 95.88100663000786 l 22.217254194064285 -4.444073069305904 a43.65736457245187,43.65736457245187 0 0,0 0.14068836808606788,0.7361409910719359 l -22.290268854432508 4.0620295132006525" fill="#ff0300" stroke="none" /><path d="M 120.65975698304385 96.23510406497455 l 22.274853426150877 -4.059220308652805 a43.64169526936278,43.64169526936278 0 0,0 0.12798484610057145,0.7381825816587653 l -22.34125308974368 3.6762446940734472" fill="#ff0300" stroke="none" /><path d="M 120.7213421655516 96.59031103205396 l 44.44881845685372 -7.314036162316136 a66.0465602148933,66.0465602148933 0 0,0 0.17448402905345234,1.1203126329200803 l -44.56782397804544 6.549935347464615" fill="#53ff2b" stroke="none" /><path d="M 120.82617615685814 97.30363454192243 l 22.519992901446653 -2.915663947057167 a43.70795403671094,43.70795403671094 0 0,0 0.08995078987262661,0.744921577070461 l -22.56672577757894 2.528648693063293" fill="#ff0400" stroke="none" /><path d="M 120.86939407059847 97.66154086499901 l 26.92372955384625 -3.0168600540342485 a48.092225041038645,48.092225041038645 0 0,0 0.08488874869069579,0.8212216387175248 l -26.97155069501861 2.5542338930337922" fill="#ff6309" stroke="none" /><path d="M 120.9064616781168 98.02013634271609 l 22.51499388431894 -2.132193329595887 a43.61572899567229,43.61572899567229 0 0,0 0.06419067507873022,0.7459929456482164 l -22.548278182095412 1.7453793365720087" fill="#ff0200" stroke="none" /><path d="M 120.96210409425399 98.7389718711861 l 22.603518133484705 -1.3597715214234043 a43.644381435606626,43.644381435606626 0 0,0 0.038570016599805995,0.7482480179734935 l -22.623529739541084 0.9715517100731802" fill="#ff0300" stroke="none" /><path d="M 120.98066250479742 99.09900007780936 l 22.619056918319348 -0.9713596278845537 a43.639904491866886,43.639904491866886 0 0,0 0.025717022738785993,0.7487230573066553 l -22.632398628054982 0.5829303060137785" fill="#ff0300" stroke="none" /><path d="M 120.99303781780057 99.45929381324524 l 22.627028076670037 -0.5827919796607596 a43.6345321593792,43.6345321593792 0 0,0 0.012858823187072623,0.7489619850997707 l -22.633698331455776 0.1942830785919224" fill="#ff0300" stroke="none" /><line stroke="#e1ed5e" stroke-width="0.3" x1="184.99686870605535" x2="189.99668451229388" y1="99.2704041080226" y2="99.22748670261217" /><path d="M 185.99683186730306 99.26182062694052 a86.0,86.0 0 0,1 -10.086455211305974,41.156179273409016" fill="none" id="id148" stroke="none" /><text fill="#e1ed5e" style="font-size:6.75px; font-family:Arial;" text-anchor="middle"><textPath startOffset="21.40746469413373" xlink:href="#id148">April</textPath></text><path d="M 120.99922638620191 100.18025310272382 l 22.620715672893088 0.1941716380824223 a43.62154902253395,43.62154902253395 0 0,0 -0.012854997137999652,0.748739136922796 l -22.61404924415642 -0.5824576909742893" fill="#ff0200" stroke="none" /><path d="M 120.99303781780057 100.54070618675476 l 22.636426541593686 0.5830340507785347 a43.643933741232644,43.643933741232644 0 0,0 -0.02571939717793698,0.7487921865116741 l -22.623082457418903 -0.9715325018543194" fill="#ff0300" stroke="none" /><path d="M 120.77682067341334 103.0534771498775 l 22.337285832823138 3.2828117907417167 a43.577227279510524,43.577227279510524 0 0,0 -0.11512378791518225,0.739177302648611 l -22.27764055276969 -3.6657772753217785" fill="#ff0100" stroke="none" /><path d="M 120.7213421655516 103.40968896794604 l 26.751280566212053 4.401913037114037 a48.11102820474556,48.11102820474556 0 0,0 -0.14109173583931034,0.8137796386514151 l -26.67177401288051 -4.86048570868604" fill="#ff6409" stroke="none" /><path d="M 120.65975698304385 103.76489593502545 l 22.303482078673913 4.064437402813092 a43.67079540367109,43.67079540367109 0 0,0 -0.1407316497120791,0.7363674588283262 l -22.230424136679673 -4.446707426674733" fill="#ff0400" stroke="none" /><path d="M 120.51834098615036 104.47187691870673 l 22.066391570284633 4.809267338373365 a43.584390389494104,43.584390389494104 0 0,0 -0.16559814089105526,0.729655963673543 l -21.980582567835913 -5.187357635985925" fill="#ff0200" stroke="none" /><path d="M 120.43855184770803 104.8234425847677 l 26.43935633417348 6.239616104230065 a48.165646918370385,48.165646918370385 0 0,0 -0.19681968090514831,0.8030914629738204 l -26.328349126752034 -6.692563391811985" fill="#ff6509" stroke="none" /><path d="M 120.35273937422433 105.17358676015961 l 26.32097290210834 6.690688384352061 a48.15803611401283,48.15803611401283 0 0,0 -0.21054353805009846,0.7994681076411181 l -26.20223988325351 -7.141536996365983" fill="#ff6509" stroke="none" /><path d="M 120.16314734710363 105.8691983318838 l 26.074065529251765 7.589780468062493 a48.15624533651694,48.15624533651694 0 0,0 -0.2378544276719802,0.7917400317599469 l -25.939934781576152 -8.036258103413164" fill="#ff6509" stroke="none" /><path d="M 120.05942366710727 106.21446072829308 l 25.96773153980759 8.044869610167787 a48.185345470825254,48.185345470825254 0 0,0 -0.2515625736221473,0.7880161789028587 l -25.82580425040819 -8.48945482276203" fill="#ff6509" stroke="none" /><path d="M 119.94978838288452 106.5578916946017 l 21.528521076880452 7.076852488733938 a43.66184151619161,43.66184151619161 0 0,0 -0.24017043886271838,0.7100212270073342 l -21.403865216445368 -7.445375390215434" fill="#ff0300" stroke="none" /><path d="M 119.71291397450082 107.23885506374661 l 25.480917562451957 9.35694587641683 a48.144605282793606,48.144605282793606 0 0,0 -0.2915484062779301,0.7733667856865786 l -25.316538472359586 -9.792980942297566" fill="#ff6409" stroke="none" /><path d="M 119.58574465831526 107.57618678355244 l 25.342426211264566 9.802994875837985 a48.172362333980004,48.172362333980004 0 0,0 -0.30495703231863147,0.7686909341207769 l -25.170410503979813 -10.236586827172326" fill="#ff6509" stroke="none" /><path d="M 119.4528033332814 107.91128576633889 l 25.235934688571838 10.263234942615254 a48.243098045067896,48.243098045067896 0 0,0 -0.3185748037306341,0.7644635558683638 l -25.05603404030472 -10.694931007924897" fill="#ff6609" stroke="none" /><path d="M 119.16976305983485 108.57439118712176 l 24.82502093652691 11.103916103389931 a48.19519474705268,48.19519474705268 0 0,0 -0.3442870443520904,0.75232932582822 l -24.630749427319767 -11.52843441143284" fill="#ff6509" stroke="none" /><path d="M 119.0197475246899 108.90220220490707 l 41.03557057030276 19.206719034327715 a66.30801372929412,66.30801372929412 0 0,0 -0.4913762999884331,1.0267874798886627 l -40.699815012354414 -19.90831901628148" fill="#4fff2b" stroke="none" /><path d="M 118.8641267826498 109.22738970284198 l 20.38750948145122 9.972552518506273 a43.695866288613644,43.695866288613644 0 0,0 -0.335376358127966,0.6709773759717331 l -20.213313210111526 -10.321061750641752" fill="#ff0400" stroke="none" /><path d="M 118.5362547648365 109.86951160357373 l 47.68994601082991 25.392210103875414 a75.02865243993435,75.02865243993435 0 0,0 -0.6150729252204354,1.1316649052982437 l -47.24702773599413 -26.20712984264826" fill="#3cffa4" stroke="none" /><line stroke="#e1ed5e" stroke-width="0.3" x1="174.33088141563837" x2="178.70328620479359" y1="141.23008692659167" y2="143.65538615756765" /><path d="M 175.20536237346943 141.71514677278685 a86.0,86.0 0 0,1 -30.301960400862466,31.631185727798858" fill="none" id="id149" stroke="none" /><text fill="#e1ed5e" style="font-size:6.75px; font-family:Arial;" text-anchor="middle"><textPath startOffset="22.145653131862474" xlink:href="#id149">May</textPath></text><path d="M 118.36410011445183 110.18625677009912 l 23.815348968431564 13.209972617773454 a48.23369646321444,48.23369646321444 0 0,0 -0.4078426273120588,0.720618843734639 l -23.58507297609813 -13.616848231607216" fill="#ff6609" stroke="none" /><path d="M 118.18653347947321 110.5 l 23.543199788390904 13.592672735412622 a48.185345470825254,48.185345470825254 0 0,0 -0.4197317368139799,0.7127962512325511 l -23.306394341447156 -13.994820154938722" fill="#ff6509" stroke="none" /><path d="M 117.81537515405839 111.11811171558189 l 47.942793635746135 29.919849062391915 a77.51290852111626,77.51290852111626 0 0,0 -0.7141607842598476,1.1227793718098387 l -47.4221151598604 -30.738442108880427" fill="#41ffcc" stroke="none" /><path d="M 117.423217284605 111.72311816256416 l 22.556542009555237 15.17704813051428 a48.18713624832114,48.18713624832114 0 0,0 -0.4676682343279213,0.6823419303189476 l -22.292684038411995 -15.562024795903271" fill="#ff6509" stroke="none" /><path d="M 117.21940702142032 112.02048342749411 l 22.276531781628528 15.550749266220931 a48.16743769586629,48.16743769586629 0 0,0 -0.4791166893888233,0.6739376250522197 l -22.006299993709742 -15.930864117982654" fill="#ff6509" stroke="none" /><path d="M 117.01052211995028 112.31430620078461 l 36.50950444385944 26.430065684656693 a66.07207879420983,66.07207879420983 0 0,0 -0.6729849626656982,0.9130333523604427 l -36.05041746160992 -27.05290534628601" fill="#53ff2b" stroke="none" /><path d="M 116.79662413953412 112.60449989151573 l 21.732089432884752 16.30816505886306 a48.170571556484106,48.170571556484106 0 0,0 -0.5020016349928349,0.657136254674597 l -21.44893582053761 -16.678822226778536" fill="#ff6509" stroke="none" /><path d="M 116.57777611688842 112.89097897827486 l 21.47155456979637 16.69641070301043 a48.19922399641844,48.19922399641844 0 0,0 -0.5135135440488376,0.6488075877417299 l -21.181774595105974 -17.062538234666842" fill="#ff6609" stroke="none" /><path d="M 116.1254893667686 113.45245675266167 l 38.618737054057696 32.21712397347421 a71.29264288912103,71.29264288912103 0 0,0 -0.7920457699037042,0.9330279253758031 l -38.05999672064688 -32.87531868129957" fill="#35ff64" stroke="none" /><path d="M 115.89218393027572 113.72728997021213 l 20.573071925259182 17.77052953421005 a48.185345470825254,48.185345470825254 0 0,0 -0.5460751953042711,0.6213333306152711 l -20.264985665996328 -18.121075142636613" fill="#ff6509" stroke="none" /><path d="M 115.6541949942343 113.99807769240083 l 23.594926989305637 21.09872920737696 a52.65243993433816,52.65243993433816 0 0,0 -0.6082668087788219,0.6685917755092703 l -23.229262479684934 -21.500658558443902" fill="#ffc011" stroke="none" /><path d="M 115.16444852881244 114.52719865689866 l 42.281160612291025 40.50439542802761 a79.551708700194,79.551708700194 0 0,0 -0.9531552333321418,0.9780212377917926 l -41.57961857780808 -41.224239357887136" fill="#45ffec" stroke="none" /><path d="M 114.91283532996324 114.78537596483092 l 19.321797752542615 19.156655174336436 a48.2086255782719,48.2086255782719 0 0,0 -0.5877046508317548,0.5826815643412976 l -18.990101181580897 -19.485516748906395" fill="#ff6609" stroke="none" /><path d="M 114.65682725009322 115.03919595460226 l 43.97048175027964 45.117587863806776 a84.0,84.0 0 0,0 -1.0413100565387516,0.9975514787776794 l -43.18949920787558 -45.86575147289004" fill="#4dd2ff" stroke="none" /><path d="M 114.13192950727249 115.5334660781643 l 18.26934584008792 20.081211396590767 a48.1481868377854,48.1481868377854 0 0,0 -0.6161476999216785,0.550963072625224 l -17.92193311334286 -20.391869999099377" fill="#ff6409" stroke="none" /><path d="M 113.86319453409587 115.77377054828091 l 17.948827834868492 20.42247125519961 a48.188927025817044,48.188927025817044 0 0,0 -0.6260441971834855,0.5407620668506347 l -17.595604157922153 -20.727577454514964" fill="#ff6509" stroke="none" /><path d="M 113.59037401385872 116.0094264158162 l 29.181045258230608 34.37519793950104 a66.09088195791672,66.09088195791672 0 0,0 -0.8712215430394236,0.7268039972714128 l -28.586649381029286 -34.87106412068432" fill="#52ff2b" stroke="none" /><path d="M 113.03279911837588 116.46651593811092 l 16.875928659923513 21.322184568719365 a48.192508580808834,48.192508580808834 0 0,0 -0.6531004135799765,0.5078548318423284 l -16.507418301708306 -21.608740452182488" fill="#ff6509" stroke="none" /><path d="M 112.7482090630111 116.68781488649013 l 27.406189910314083 35.875582343116186 a66.14594836591553,66.14594836591553 0 0,0 -0.9082374527130725,0.6815583166648118 l -26.786299468690245 -36.34075968704501" fill="#52ff2b" stroke="none" /><path d="M 112.45986205192187 116.90419585922612 l 30.495809212547005 41.37342208656092 a72.39800029846292,72.39800029846292 0 0,0 -1.0067424237191578,0.7288038770108 l -29.781085778453882 -41.8908267349448" fill="#37ff77" stroke="none" /><path d="M 111.8722381534696 117.32195027204791 l 15.352385564521398 22.39958935023792 a48.15579764214296,48.15579764214296 0 0,0 -0.685884658305454,0.46149380816764696 l -14.96560461811894 -22.659832832462687" fill="#ff6509" stroke="none" /><path d="M 111.5731344415666 117.5232005979908 l 14.977940873306405 22.678511495133495 a48.17818236084166,48.17818236084166 0 0,0 -0.6940282083760241,0.4498606996584108 l -14.58642703267337 -22.9322860364958" fill="#ff6509" stroke="none" /><path d="M 111.27062007382361 117.71928675628689 l 16.990867629572616 26.712466021789318 a52.65825996119982,52.65825996119982 0 0,0 -0.7668945148405343,0.47859889653357324 l -16.529808985942367 -27.00020071516444" fill="#ffc011" stroke="none" /><line stroke="#e1ed5e" stroke-width="0.3" x1="143.1302829299769" x2="145.66735839644613" y1="173.24464959558577" y2="177.55315839532614" /><path d="M 143.63769802327073 174.10635135553383 a86.0,86.0 0 0,1 -40.68552437913181,11.842963189579606" fill="none" id="id150" stroke="none" /><text fill="#e1ed5e" style="font-size:6.75px; font-family:Arial;" text-anchor="middle"><textPath startOffset="21.407464694133747" xlink:href="#id150">June</textPath></text><line stroke="#e1ed5e" stroke-width="0.3" x1="101.45913802915013" x2="101.54496967792366" y1="184.9874750549273" y2="189.98673829345242" /><path d="M 101.47630435890484 185.9873277026323 a86.0,86.0 0 0,1 -42.54439059252881,-10.42667462771756" fill="none" id="id151" stroke="none" /><text fill="#e1ed5e" style="font-size:6.75px; font-family:Arial;" text-anchor="middle"><textPath startOffset="22.145653131862474" xlink:href="#id151">July</textPath></text><line stroke="#e1ed5e" stroke-width="0.3" x1="58.13341422392154" x2="55.67067388415222" y1="173.97424548756322" y2="178.32567169271397" /><path d="M 57.64086615596768 174.84453072859336 a86.0,86.0 0 0,1 -31.369924170532247,-30.572349798747897" fill="none" id="id152" stroke="none" /><text fill="#e1ed5e" style="font-size:6.75px; font-family:Arial;" text-anchor="middle"><textPath startOffset="22.145653131862474" xlink:href="#id152">August</textPath></text><line stroke="#e1ed5e" stroke-width="0.3" x1="26.387840678322732" x2="22.057713659400548" y1="142.50000000000003" y2="145.00000000000006" /><path d="M 25.521815274538298 143.00000000000003 a86.0,86.0 0 0,1 -11.493303480769221,-40.785679425670985" fill="none" id="id153" stroke="none" /><text fill="#e1ed5e" style="font-size:6.75px; font-family:Arial;" text-anchor="middle"><textPath startOffset="21.40746469413373" xlink:href="#id153">September</textPath></text><line stroke="#e1ed5e" stroke-width="0.3" x1="15.003131293944662" x2="10.003315487706104" y1="100.72959589197737" y2="100.7725132973878" /><path d="M 14.003168132696942 100.73817937305945 a86.0,86.0 0 0,1 10.791469493833604,-42.45332614584628" fill="none" id="id154" stroke="none" /><text fill="#e1ed5e" style="font-size:6.75px; font-family:Arial;" text-anchor="middle"><textPath startOffset="22.145653131862435" xlink:href="#id154">October</textPath></text><line stroke="#e1ed5e" stroke-width="0.3" x1="26.387840678322718" x2="22.05771365940052" y1="57.49999999999999" y2="54.99999999999999" /><path d="M 25.521815274538284 56.99999999999999 a86.0,86.0 0 0,1 29.574782752854787,-30.34633250058573" fill="none" id="id155" stroke="none" /><text fill="#e1ed5e" style="font-size:6.75px; font-family:Arial;" text-anchor="middle"><textPath startOffset="21.40746469413373" xlink:href="#id155">November</textPath></text><line stroke="#e1ed5e" stroke-width="0.3" x1="56.869717070023135" x2="54.33264160355391" y1="26.7553504044142" y2="22.446841604673864" /><path d="M 56.362301976729285 25.89364864446614 a86.0,86.0 0 0,1 42.16139366436587,-11.88097634709845" fill="none" id="id156" stroke="none" /><text fill="#e1ed5e" style="font-size:6.75px; font-family:Arial;" text-anchor="middle"><textPath startOffset="22.145653131862474" xlink:href="#id156">December</textPath></text></svg>