<?xml version="1.0" encoding="utf-8" ?>
<svg baseProfile="full" height="200mm" version="1.1" viewBox="0,0,200,200" width="200mm" xmlns="http://www.w3.org/2000/svg" xmlns:ev="http://www.w3.org/2001/xml-events" xmlns:xlink="http://www.w3.org/1999/xlink"><defs /><rect fill="#1a1a1a" height="200" width="200" x="0" y="0" /><text alignment-baseline="middle" fill="#e1ed5e" style="dominant-baseline: central; font-size:9.0px; font-family:Arial;" text-anchor="middle" x="100.0" y="100.0">2024</text><line stroke="#e1ed5e" stroke-width="0.3" x1="100.0" x2="100.0" y1="15.0" y2="10.0" /><path d="M 100.0 14.0 a86.0,86.0 0 0,1 42.35913384403234,11.155469271406648" fill="none" id="id145" stroke="none" /><text fill="#e1ed5e" style="font-size:6.75px; font-family:Arial;" text-anchor="middle"><textPath startOffset="22.145653131862478" xlink:href="#id145">January</textPath></text><line stroke="#e1ed5e" stroke-width="0.3" x1="143.13028292997686" x2="145.6673583964461" y1="26.7553504044142" y2="22.446841604673864" /><path d="M 143.63769802327073 25.89364864446614 a86.0,86.0 0 0,1 29.32050498858742,28.57503671076993" fill="none" id="id146" stroke="none" /><text fill="#e1ed5e" style="font-size:6.75px; font-family:Arial;" text-anchor="middle"><textPath startOffset="20.669276256404974" xlink:href="#id146">February</textPath></text><line stroke="#e1ed5e" stroke-width="0.3" x1="172.87174338648825" x2="177.1583165268699" y1="56.24261187166439" y2="53.66864786411523" /><path d="M 173.72905801456457 55.72781907015455 a86.0,86.0 0 0,1 12.242430191666344,42.057860355516425" fill="none" id="id147" stroke="none" /><text fill="#e1ed5e" style="font-size:6.75px; font-family:Arial;" text-anchor="middle"><textPath startOffset="22.145653131862474" xlink:href="#id147">March</textPath></text><path d="M 119.31412917781788 91.75594674310238 l 24.174269669954015 -10.3185582311727 a47.28436717986112,47.28436717986112 0 0,0 0.312243794537813,0.7492714385285518 l -24.34783930902831 9.90205428320287" fill="#ff0100" stroke="none" /><path d="M 119.4528033332814 92.08871423366111 l 24.35509288578373 -9.905004249722195 a47.292197676538336,47.292197676538336 0 0,0 0.2993851153753799,0.7546460635782375 l -24.521536676125233 9.485457168930393" fill="#ff0100" stroke="none" /><path d="M 119.58574465831526 92.42381321644754 l 24.483073429874587 -9.470578758996004 a47.25095706070499,47.25095706070499 0 0,0 0.2861367570725277,0.7590117432266485 l -24.642040870761555 9.048898735575198" fill="#ff0000" stroke="none" /><path d="M 119.83427380445688 93.10060997987247 l 25.012169399569775 -8.700530891045457 a47.48221772923882,47.48221772923882 0 0,0 0.26118516018105714,0.77214751651373 l -25.157839981323196 8.269881700057564" fill="#ff0600" stroke="none" /><path d="M 119.94978838288452 93.4421083053983 l 25.018484720333397 -8.224072857823021 a47.335526424818944,47.335526424818944 0 0,0 0.24712589968657991,0.7741183609905931 l -25.155975335797233 7.793385463141042" fill="#ff0200" stroke="none" /><path d="M 120.05942366710727 93.78553927170692 l 25.126554892076722 -7.784270934471414 a47.30472647122188,47.30472647122188 0 0,0 0.23364858622937895,0.777740153473305 l -25.25647979830973 7.3517931774073855" fill="#ff0100" stroke="none" /><path d="M 120.26092885502905 94.47779374421319 l 25.41069213123562 -6.92579713669701 a47.3376145572662,47.3376145572662 0 0,0 0.20695671285562706,0.7858483481499529 l -25.52583832489598 6.488568284174259" fill="#ff0200" stroke="none" /><path d="M 120.35273937422433 94.82641323984039 l 25.52482643881317 -6.48831106668896 a47.33657049104257,47.33657049104257 0 0,0 0.19343181905106205,0.7892678304984232 l -25.632445784380526 6.049187411582442" fill="#ff0200" stroke="none" /><path d="M 120.43855184770803 95.1765574152323 l 25.644131537661806 -6.051945217538168 a47.348577252614305,47.348577252614305 0 0,0 0.17990010406935095,0.7926730523264199 l -25.744242503288824 5.610837831272722" fill="#ff0200" stroke="none" /><path d="M 120.592083275326 95.88100663000786 l 25.90638394659452 -5.182002339916441 a47.41957375582108,47.41957375582108 0 0,0 0.1528123035455304,0.7995785444833238 l -25.991522542422206 4.736521230399803" fill="#ff0400" stroke="none" /><path d="M 120.65975698304385 96.23510406497455 l 25.973547413710225 -4.733245563165438 a47.40130259690757,47.40130259690757 0 0,0 0.1390103748350657,0.8017749014790844 l -26.050972606037526 4.286677628765761" fill="#ff0400" stroke="none" /><path d="M 120.7213421655516 96.59031103205396 l 51.829454119644275 -8.52851695196706 a73.52644967766525,73.52644967766525 0 0,0 0.19424465316608572,1.247190015038454 l -51.96822026494863 7.6375387549971645" fill="#37ff78" stroke="none" /><path d="M 120.82617615685814 97.30363454192243 l 26.25939179897975 -3.3998039997168723 a47.47856349745612,47.47856349745612 0 0,0 0.09771068865467336,0.8091846707777516 l -26.313884573894086 2.9485256520157077" fill="#ff0600" stroke="none" /><path d="M 120.86939407059847 97.66154086499901 l 31.394359942218383 -3.5178035138939823 a52.59083376145573,52.59083376145573 0 0,0 0.09282935166340887,0.8980397693441979 l -31.450121686363456 2.978359222266853" fill="#ff7e0b" stroke="none" /><path d="M 120.9064616781168 98.02013634271609 l 26.253562705252197 -2.4862396839136145 a47.37102467642234,47.37102467642234 0 0,0 0.06971746484972095,0.8102226203818592 l -26.29237379279966 2.035196016156093" fill="#ff0300" stroke="none" /><path d="M 120.96210409425399 98.7389718711861 l 26.356786225469424 -1.5855588096503446 a47.40443479557846,47.40443479557846 0 0,0 0.04189290297692746,0.8127111259734201 l -26.380120717902923 1.1328758903001939" fill="#ff0400" stroke="none" /><path d="M 120.98066250479742 99.09900007780936 l 26.37490519383849 -1.1326519132558481 a47.399214464460314,47.399214464460314 0 0,0 0.027932386433391417,0.8132209541012764 l -26.390462267268727 0.6797246945904518" fill="#ff0400" stroke="none" /><path d="M 120.99303781780057 99.45929381324524 l 26.384199946778185 -0.6795633994285954 a47.39295006711855,47.39295006711855 0 0,0 0.013966405391969932,0.8134730958579487 l -26.39197778376882 0.22654338760158033" fill="#ff0300" stroke="none" /><line stroke="#e1ed5e" stroke-width="0.3" x1="184.99686870605535" x2="189.99668451229388" y1="99.2704041080226" y2="99.22748670261217" /><path d="M 185.99683186730306 99.26182062694052 a86.0,86.0 0 0,1 -10.086455211305974,41.156179273409016" fill="none" id="id148" stroke="none" /><text fill="#e1ed5e" style="font-size:6.75px; font-family:Arial;" text-anchor="middle"><textPath startOffset="21.40746469413373" xlink:href="#id148">April</textPath></text><path d="M 120.99922638620191 100.18025310272382 l 26.376839381226596 0.22641344262273203 a47.37781110687592,47.37781110687592 0 0,0 -0.013961944035251025,0.8132132441956298 l -26.369066005592675 -0.6791736027874329" fill="#ff0300" stroke="none" /><path d="M 120.99303781780057 100.54070618675476 l 26.395159007636646 0.6798456659618352 a47.403912762466646,47.403912762466646 0 0,0 -0.027935155143320987,0.8133015620698159 l -26.37959916549648 -1.1328534925957618" fill="#ff0400" stroke="none" /><path d="M 120.77682067341334 103.0534771498775 l 26.04634659419553 3.8279159941413394 a47.32612982880629,47.32612982880629 0 0,0 -0.12502776503680008,0.8027679404032045 l -25.97679733702046 -4.2744721164759945" fill="#ff0200" stroke="none" /><path d="M 120.7213421655516 103.40968896794604 l 31.193276151853023 5.132841720353694 a52.61275915215194,52.61275915215194 0 0,0 -0.15429363688678077,0.889924695624546 l -31.10056769747401 -5.667559448898828" fill="#ff7f0b" stroke="none" /><path d="M 120.65975698304385 103.76489593502545 l 26.00692979560391 4.7393289451721134 a47.435234749175514,47.435234749175514 0 0,0 -0.15286277199727938,0.7998426167488398 l -25.92174073132447 -5.185074126954268" fill="#ff0500" stroke="none" /><path d="M 120.51834098615036 104.47187691870673 l 25.730470891781916 5.60783637264247 a47.334482358595324,47.334482358595324 0 0,0 -0.17984655076220332,0.792437086573877 l -25.630413479462046 -6.048707793155364" fill="#ff0200" stroke="none" /><path d="M 120.43855184770803 104.8234425847677 l 30.829557537173944 7.2756916342400615 a52.6764471917933,52.6764471917933 0 0,0 -0.21525220132673828,0.8783024364069263 l -30.700117809330912 -7.803849895255087" fill="#ff800b" stroke="none" /><path d="M 120.35273937422433 105.17358676015961 l 30.691516777627054 7.8016635466300395 a52.66757262889246,52.66757262889246 0 0,0 -0.23025891370539017,0.8743306002758687 l -30.553068383116933 -8.327374651278712" fill="#ff800b" stroke="none" /><path d="M 120.16314734710363 105.8691983318838 l 30.403610939011926 8.850048037372781 a52.6654844964452,52.6654844964452 0 0,0 -0.26012656479824214,0.8658767326332509 l -30.247208054210052 -9.370662373596756" fill="#ff800b" stroke="none" /><path d="M 120.05942366710727 106.21446072829308 l 30.279620407461458 9.380703803487023 a52.69941664871315,52.69941664871315 0 0,0 -0.2751293106025968,0.8618386468365689 l -30.114126381081604 -9.899111484014975" fill="#ff810b" stroke="none" /><path d="M 119.94978838288452 106.5578916946017 l 25.103288099796938 8.251949413061837 a47.42479408693922,47.42479408693922 0 0,0 -0.2608692902842944,0.7712137032903562 l -24.95793338794028 -8.681664790826353" fill="#ff0400" stroke="none" /><path d="M 119.71291397450082 107.23885506374661 l 29.711971961898232 10.910647658103551 a52.65191163553802,52.65191163553802 0 0,0 -0.31884321897875556,0.8457695191943436 l -29.520298059105034 -11.419085457492054" fill="#ff800b" stroke="none" /><path d="M 119.58574465831526 107.57618678355244 l 29.550484404263766 11.430762184276004 a52.684277688470516,52.684277688470516 0 0,0 -0.3335198897313294,0.8406879934402185 l -29.349905839566315 -11.936351194929786" fill="#ff810b" stroke="none" /><path d="M 119.4528033332814 107.91128576633889 l 29.426310181390086 11.96742417560002 a52.76675892013722,52.76675892013722 0 0,0 -0.348446939514138,0.8361458071795778 l -29.21653739733946 -12.470802492220875" fill="#ff820c" stroke="none" /><path d="M 119.16976305983485 108.57439118712176 l 28.94716503877134 12.947698728767623 a52.710901377173066,52.710901377173066 0 0,0 -0.376545432288999,0.8228197251824886 l -28.720635141627287 -13.4427074361648" fill="#ff810b" stroke="none" /><path d="M 119.0197475246899 108.90220220490707 l 47.84944338197557 22.395955562798356 a73.83131701496494,73.83131701496494 0 0,0 -0.5471278256983724,1.1432867261587905 l -47.45793629831728 -23.21405479102225" fill="#38ff7e" stroke="none" /><path d="M 118.8641267826498 109.22738970284198 l 23.772813855747305 11.628474527740016 a47.464468603437126,47.464468603437126 0 0,0 -0.3643012937552858,0.728846623272597 l -23.569692648780286 -12.034853007176359" fill="#ff0500" stroke="none" /><path d="M 118.5362547648365 109.86951160357373 l 55.608764294509484 29.608534810721164 a84.0,84.0 0 0,0 -0.6886186015386442,1.2669806661015868 l -55.092300343355504 -30.558770310297355" fill="#4dd2ff" stroke="none" /><line stroke="#e1ed5e" stroke-width="0.3" x1="174.33088141563837" x2="178.70328620479359" y1="141.23008692659167" y2="143.65538615756765" /><path d="M 175.20536237346943 141.71514677278685 a86.0,86.0 0 0,1 -30.301960400862466,31.631185727798858" fill="none" id="id149" stroke="none" /><text fill="#e1ed5e" style="font-size:6.75px; font-family:Arial;" text-anchor="middle"><textPath startOffset="22.145653131862474" xlink:href="#id149">May</textPath></text><line stroke="#e1ed5e" stroke-width="0.3" x1="143.1302829299769" x2="145.66735839644613" y1="173.24464959558577" y2="177.55315839532614" /><path d="M 143.63769802327073 174.10635135553383 a86.0,86.0 0 0,1 -40.68552437913181,11.842963189579606" fill="none" id="id150" stroke="none" /><text fill="#e1ed5e" style="font-size:6.75px; font-family:Arial;" text-anchor="middle"><textPath startOffset="21.407464694133747" xlink:href="#id150">June</textPath></text><line stroke="#e1ed5e" stroke-width="0.3" x1="101.45913802915013" x2="101.54496967792366" y1="184.9874750549273" y2="189.98673829345242" /><path d="M 101.47630435890484 185.9873277026323 a86.0,86.0 0 0,1 -42.54439059252881,-10.42667462771756" fill="none" id="id151" stroke="none" /><text fill="#e1ed5e" style="font-size:6.75px; font-family:Arial;" text-anchor="middle"><textPath startOffset="22.145653131862474" xlink:href="#id151">July</textPath></text><line stroke="#e1ed5e" stroke-width="0.3" x1="58.13341422392154" x2="55.67067388415222" y1="173.97424548756322" y2="178.32567169271397" /><path d="M 57.64086615596768 174.84453072859336 a86.0,86.0 0 0,1 -31.369924170532247,-30.572349798747897" fill="none" id="id152" stroke="none" /><text fill="#e1ed5e" style="font-size:6.75px; font-family:Arial;" text-anchor="middle"><textPath startOffset="22.145653131862474" xlink:href="#id152">August</textPath></text><line stroke="#e1ed5e" stroke-width="0.3" x1="26.387840678322732" x2="22.057713659400548" y1="142.50000000000003" y2="145.00000000000006" /><path d="M 25.521815274538298 143.00000000000003 a86.0,86.0 0 0,1 -11.493303480769221,-40.785679425670985" fill="none" id="id153" stroke="none" /><text fill="#e1ed5e" style="font-size:6.75px; font-family:Arial;" text-anchor="middle"><textPath startOffset="21.40746469413373" xlink:href="#id153">September</textPath></text><line stroke="#e1ed5e" stroke-width="0.3" x1="15.003131293944662" x2="10.003315487706104" y1="100.72959589197737" y2="100.7725132973878" /><path d="M 14.003168132696942 100.73817937305945 a86.0,86.0 0 0,1 10.791469493833604,-42.45332614584628" fill="none" id="id154" stroke="none" /><text fill="#e1ed5e" style="font-size:6.75px; font-family:Arial;" text-anchor="middle"><textPath startOffset="22.145653131862435" xlink:href="#id154">October</textPath></text><line stroke="#e1ed5e" stroke-width="0.3" x1="26.387840678322718" x2="22.05771365940052" y1="57.49999999999999" y2="54.99999999999999" /><path d="M 25.521815274538284 56.99999999999999 a86.0,86.0 0 0,1 29.574782752854787,-30.34633250058573" fill="none" id="id155" stroke="none" /><text fill="#e1ed5e" style="font-size:6.75px; font-family:Arial;" text-anchor="middle"><textPath startOffset="21.40746469413373" xlink:href="#id155">November</textPath></text><line stroke="#e1ed5e" stroke-width="0.3" x1="56.869717070023135" x2="54.33264160355391" y1="26.7553504044142" y2="22.446841604673864" /><path d="M 56.362301976729285 25.89364864446614 a86.0,86.0 0 0,1 42.16139366436587,-11.88097634709845" fill="none" id="id156" stroke="none" /><text fill="#e1ed5e" style="font-size:6.75px; font-family:Arial;" text-anchor="middle"><textPath startOffset="22.145653131862474" xlink:href="#id156">December</textPath></text></svg>