<?xml version="1.0" encoding="utf-8" ?>
<svg baseProfile="full" height="200mm" version="1.1" viewBox="0,0,200,200" width="200mm" xmlns="http://www.w3.org/2000/svg" xmlns:ev="http://www.w3.org/2001/xml-events" xmlns:xlink="http://www.w3.org/1999/xlink"><defs /><rect fill="#1a1a1a" height="200" width="200" x="0" y="0" /><text alignment-baseline="middle" fill="#e1ed5e" style="dominant-baseline: central; font-size:9.0px; font-family:Arial;" text-anchor="middle" x="100.0" y="100.0">2023</text><line stroke="#e1ed5e" stroke-width="0.3" x1="100.0" x2="100.0" y1="15.0" y2="10.0" /><path d="M 100.0 14.0 a86.0,86.0 0 0,1 42.46469731375804,11.215312516191453" fill="none" id="id133" stroke="none" /><text fill="#e1ed5e" style="font-size:6.75px; font-family:Arial;" text-anchor="middle"><textPath startOffset="22.20632615414155" xlink:href="#id133">January</textPath></text><line stroke="#e1ed5e" stroke-width="0.3" x1="143.23703022742887" x2="145.7803849466894" y1="26.81831364943548" y2="22.513508569990506" /><path d="M 143.74570117128098 25.957352633546492 a86.0,86.0 0 0,1 28.547481713284135,27.462654790039103" fill="none" id="id134" stroke="none" /><text fill="#e1ed5e" style="font-size:6.75px; font-family:Arial;" text-anchor="middle"><textPath startOffset="19.985693538727396" xlink:href="#id134">February</textPath></text><path d="M 115.9244219780498 86.31012108654704 l 29.458315972977857 -25.32467295957025 a59.84754098360656,59.84754098360656 0 0,0 0.664847434303342,0.7869696585394385 l -29.889874020768318 24.813844351401706" fill="#ffd013" stroke="none" /><path d="M 116.38621287248628 86.86637796730983 l 29.05674644432038 -23.289110685251003 a58.238114754098355,58.238114754098355 0 0,0 0.6202246056502169,0.7876222643809385 l -29.453325130564558 22.785496026917027" fill="#ffa80f" stroke="none" /><path d="M 116.82858285166822 87.43820079747576 l 30.379139055356315 -22.676695246570844 a58.9094262295082,58.9094262295082 0 0,0 0.5995784219341111,0.8178242936983444 l -30.76498008980405 22.150408509201007" fill="#ffb911" stroke="none" /><path d="M 117.45458315368197 88.32363383020206 l 31.01611978956818 -20.74845148925365 a58.31618852459017,58.31618852459017 0 0,0 0.5509584769704885,0.8391475595144575 l -31.368674901896593 20.211485865761517" fill="#ffaa0f" stroke="none" /><line stroke="#e1ed5e" stroke-width="0.3" x1="172.23445277983987" x2="176.4835382374775" y1="55.19839476539836" y2="52.563006222186495" /><path d="M 173.08426987136738 54.67131705675599 a86.0,86.0 0 0,1 12.851231095245387,41.99856678651699" fill="none" id="id135" stroke="none" /><text fill="#e1ed5e" style="font-size:6.75px; font-family:Arial;" text-anchor="middle"><textPath startOffset="22.20632615414155" xlink:href="#id135">March</textPath></text><path d="M 117.84615892207809 88.93136811851018 l 53.538476766234254 -33.20589564446945 a84.0,84.0 0 0,0 0.7515368068551043,1.2353289071716742 l -54.10212937137558 32.279398964090696" fill="#4dd2ff" stroke="none" /><path d="M 118.21658344932153 89.55222093294921 l 38.50919615415269 -22.086225695812033 a65.39323770491804,65.39323770491804 0 0,0 0.5516148747892279,0.9812613114082602 l -38.88366867023435 21.42008087446898" fill="#aeff20" stroke="none" /><path d="M 118.56541770881063 90.18545643968196 l 54.75928649499194 -28.948306527031768 a82.94016393442624,82.94016393442624 0 0,0 0.6563748980026272,1.267907383007123 l -55.249470826154685 28.0014264217643" fill="#4ae5ff" stroke="none" /><path d="M 118.89224826269711 90.83032412892265 l 39.82470448327156 -19.329601574953404 a65.26782786885246,65.26782786885246 0 0,0 0.4818686627053451,1.0149382954876895 l -40.15153133981866 18.641220863825176" fill="#b1ff20" stroke="none" /><path d="M 119.196687751892 91.48605970444005 l 40.82724127232746 -18.10732659287838 a65.6625,65.6625 0 0,0 0.44934815547404644,1.0371574961229615 l -41.132880137644186 17.401869952168816" fill="#a8ff21" stroke="none" /><path d="M 120.53481517161879 95.60439243477599 l 43.63467883086338 -9.340280044991678 a65.6231557377049,65.6231557377049 0 0,0 0.22693332256914006,1.1066074745762375 l -43.78899144934751 8.587796914252028" fill="#a9ff21" stroke="none" /><path d="M 120.67395015179393 96.31383870115 l 43.9587732823595 -7.837840742993862 a65.65204918032786,65.65204918032786 0 0,0 0.18879071606584608,1.1142534930503047 l -44.087175859945575 7.080001461627719" fill="#a8ff21" stroke="none" /><line stroke="#e1ed5e" stroke-width="0.3" x1="184.98032266829074" x2="189.97916517819016" y1="98.17113171792111" y2="98.06355123074" /><path d="M 185.9800911702706 98.14961562048488 a86.0,86.0 0 0,1 -9.607161424134198,41.387399972396054" fill="none" id="id136" stroke="none" /><text fill="#e1ed5e" style="font-size:6.75px; font-family:Arial;" text-anchor="middle"><textPath startOffset="21.466115282336823" xlink:href="#id136">April</textPath></text><line stroke="#e1ed5e" stroke-width="0.3" x1="174.80103733775053" x2="179.2010983576182" y1="140.37084112569926" y2="142.7455964860345" /><path d="M 175.68104954172406 140.8457921977663 a86.0,86.0 0 0,1 -30.038265399797805,32.042727171017184" fill="none" id="id137" stroke="none" /><text fill="#e1ed5e" style="font-size:6.75px; font-family:Arial;" text-anchor="middle"><textPath startOffset="22.206326154141568" xlink:href="#id137">May</textPath></text><line stroke="#e1ed5e" stroke-width="0.3" x1="143.8653032363475" x2="146.44561519142675" y1="172.8068346515853" y2="177.08958963109032" /><path d="M 144.38136562736335 173.6633856474863 a86.0,86.0 0 0,1 -40.68145358897372,12.25698825130547" fill="none" id="id138" stroke="none" /><text fill="#e1ed5e" style="font-size:6.75px; font-family:Arial;" text-anchor="middle"><textPath startOffset="21.466115282336833" xlink:href="#id138">June</textPath></text><line stroke="#e1ed5e" stroke-width="0.3" x1="102.19456741930631" x2="102.32365962044197" y1="184.97166512339345" y2="189.96999836594603" /><path d="M 102.22038585953345 185.97133177190398 a86.0,86.0 0 0,1 -42.740103519485714,-10.115201625700543" fill="none" id="id139" stroke="none" /><text fill="#e1ed5e" style="font-size:6.75px; font-family:Arial;" text-anchor="middle"><textPath startOffset="22.20632615414155" xlink:href="#id139">July</textPath></text><line stroke="#e1ed5e" stroke-width="0.3" x1="58.666819895761336" x2="56.23545636021788" y1="174.27360380694188" y2="178.64263932499728" /><path d="M 58.180547188652646 175.14741091055294 a86.0,86.0 0 0,1 -31.652253787137756,-30.449443065178592" fill="none" id="id140" stroke="none" /><text fill="#e1ed5e" style="font-size:6.75px; font-family:Arial;" text-anchor="middle"><textPath startOffset="22.20632615414155" xlink:href="#id140">August</textPath></text><line stroke="#e1ed5e" stroke-width="0.3" x1="26.63291911575756" x2="22.317208475507996" y1="142.92168965132927" y2="145.44649492493687" /><path d="M 25.769776987707644 143.4266507060508 a86.0,86.0 0 0,1 -11.730757126820373,-40.83630448921669" fill="none" id="id141" stroke="none" /><text fill="#e1ed5e" style="font-size:6.75px; font-family:Arial;" text-anchor="middle"><textPath startOffset="21.46611528233685" xlink:href="#id141">September</textPath></text><line stroke="#e1ed5e" stroke-width="0.3" x1="15.007084014347285" x2="10.007500721073583" y1="101.09737516637583" y2="101.16192664675087" /><path d="M 14.007167355692545 101.11028546245083 a86.0,86.0 0 0,1 10.666146001902534,-42.60595125391555" fill="none" id="id142" stroke="none" /><text fill="#e1ed5e" style="font-size:6.75px; font-family:Arial;" text-anchor="middle"><textPath startOffset="22.20632615414155" xlink:href="#id142">October</textPath></text><path d="M 79.21141760316559 97.0276538004421 l -30.687501637668976 -4.387691143410621 a51.99959016393443,51.99959016393443 0 0,0 0.13431768142690817,-0.8849856990398859 l 30.607428062802764 4.9152759548426" fill="#ff0200" stroke="none" /><path d="M 79.32604984820605 96.31383870115002 l -30.75492168804779 -5.483596566851862 a52.23995901639344,52.23995901639344 0 0,0 0.16546205033113845,-0.883904889094349 l 30.655973913806793 6.012179533408783" fill="#ff0801" stroke="none" /><path d="M 79.62865764111835 94.90015583598534 l -30.077547517931933 -7.529734785018823 a52.00573770491803,52.00573770491803 0 0,0 0.22487198797129623,-0.8665235007104308 l 29.94347919809033 8.046354711278118" fill="#ff0200" stroke="none" /><path d="M 79.71946130924805 94.55025226153421 l -29.88529732479719 -8.030720189077602 a51.94549180327869,51.94549180327869 0 0,0 0.239476705523526,-0.8615251254012352 l 29.742633848707303 8.543956617897779" fill="#ff0000" stroke="none" /><line stroke="#e1ed5e" stroke-width="0.3" x1="26.266209847984243" x2="21.928928074336255" y1="57.711370442889674" y2="55.22380399835377" /><path d="M 25.398753493254645 57.213857153982495 a86.0,86.0 0 0,1 29.58750427330803,-30.492523968695096" fill="none" id="id143" stroke="none" /><text fill="#e1ed5e" style="font-size:6.75px; font-family:Arial;" text-anchor="middle"><textPath startOffset="21.46611528233685" xlink:href="#id143">November</textPath></text><line stroke="#e1ed5e" stroke-width="0.3" x1="56.762969772571076" x2="54.21961505331055" y1="26.818313649435495" y2="22.513508569990535" /><path d="M 56.25429882871897 25.957352633546506 a86.0,86.0 0 0,1 42.265352541879196,-11.944610805530505" fill="none" id="id144" stroke="none" /><text fill="#e1ed5e" style="font-size:6.75px; font-family:Arial;" text-anchor="middle"><textPath startOffset="22.20632615414155" xlink:href="#id144">December</textPath></text></svg>