<?xml version="1.0" encoding="utf-8" ?>
<svg baseProfile="full" height="200mm" version="1.1" viewBox="0,0,200,200" width="200mm" xmlns="http://www.w3.org/2000/svg" xmlns:ev="http://www.w3.org/2001/xml-events" xmlns:xlink="http://www.w3.org/1999/xlink"><defs /><rect fill="#1a1a1a" height="200" width="200" x="0" y="0" /><text alignment-baseline="middle" fill="#e1ed5e" style="dominant-baseline: central; font-size:9.0px; font-family:Arial;" text-anchor="middle" x="100.0" y="100.0">2024</text><line stroke="#e1ed5e" stroke-width="0.3" x1="100.0" x2="100.0" y1="15.0" y2="10.0" /><path d="M 100.0 14.0 a86.0,86.0 0 0,1 42.35913384403234,11.155469271406648" fill="none" id="id145" stroke="none" /><text fill="#e1ed5e" style="font-size:6.75px; font-family:Arial;" text-anchor="middle"><textPath startOffset="22.145653131862478" xlink:href="#id145">January</textPath></text><line stroke="#e1ed5e" stroke-width="0.3" x1="143.13028292997686" x2="145.6673583964461" y1="26.7553504044142" y2="22.446841604673864" /><path d="M 143.63769802327073 25.89364864446614 a86.0,86.0 0 0,1 29.32050498858742,28.57503671076993" fill="none" id="id146" stroke="none" /><text fill="#e1ed5e" style="font-size:6.75px; font-family:Arial;" text-anchor="middle"><textPath startOffset="20.669276256404974" xlink:href="#id146">February</textPath></text><line stroke="#e1ed5e" stroke-width="0.3" x1="172.87174338648825" x2="177.1583165268699" y1="56.24261187166439" y2="53.66864786411523" /><path d="M 173.72905801456457 55.72781907015455 a86.0,86.0 0 0,1 12.242430191666344,42.057860355516425" fill="none" id="id147" stroke="none" /><text fill="#e1ed5e" style="font-size:6.75px; font-family:Arial;" text-anchor="middle"><textPath startOffset="22.145653131862474" xlink:href="#id147">March</textPath></text><path d="M 119.31412917781788 91.75594674310238 l 28.827200896311286 -12.304617891311366 a52.343438435619504,52.343438435619504 0 0,0 0.34565152948172,0.8294378407350509 l -29.034178270329488 11.807947541135038" fill="#ff0100" stroke="none" /><path d="M 119.4528033332814 92.08871423366111 l 29.042827975871784 -11.811465301077776 a52.35277610347519,52.35277610347519 0 0,0 0.3314213059237052,0.8353981913485954 l -29.241307956761617 11.311166092515615" fill="#ff0100" stroke="none" /><path d="M 119.58574465831526 92.42381321644754 l 29.195441515213243 -11.293423967601319 a52.3035977194352,52.3035977194352 0 0,0 0.31673394076310274,0.8401744081300003 l -29.385006139790786 10.79058127927716" fill="#ff0000" stroke="none" /><path d="M 119.83427380445688 93.10060997987247 l 29.82637498373447 -10.37516149712111 a52.57937017677341,52.57937017677341 0 0,0 0.28922303714097836,0.8550365177414916 l -30.000083442447814 9.861623304905457" fill="#ff0801" stroke="none" /><path d="M 119.94978838288452 93.4421083053983 l 29.833905842902634 -9.806997427228422 a52.40444453227671,52.40444453227671 0 0,0 0.2735893414681485,0.8570147154564715 l -29.99785990014804 9.293413678080563" fill="#ff0300" stroke="none" /><path d="M 120.05942366710727 93.78553927170692 l 29.96277677030922 -9.282544834776433 a52.367716372044306,52.367716372044306 0 0,0 0.25865582167212997,0.860981107099682 l -30.117708911984973 8.766826124086027" fill="#ff0200" stroke="none" /><path d="M 120.26092885502905 94.47779374421319 l 30.30160319142493 -8.25883669506703 a52.40693457703823,52.40693457703823 0 0,0 0.22911942252144823,0.8700037666483242 l -30.43891209475111 7.737452424045908" fill="#ff0300" stroke="none" /><path d="M 120.35273937422433 94.82641323984039 l 30.4377054463687 -7.737145698745661 a52.40568955465747,52.40568955465747 0 0,0 0.21414580215735807,0.8737879502361768 l -30.56603877504235 7.213501923901389" fill="#ff0300" stroke="none" /><path d="M 120.43855184770803 95.1765574152323 l 30.579973738210356 -7.216790537266101 a52.420007312036205,52.420007312036205 0 0,0 0.1991689152651522,0.8775749897893868 l -30.699353515033177 6.690781213537688" fill="#ff0300" stroke="none" /><path d="M 120.592083275326 95.88100663000786 l 30.892703056657613 -6.179405811940319 a52.504668833927845,52.504668833927845 0 0,0 0.1691993148804466,0.885322312279482 l -30.994228663820216 5.648180934627522" fill="#ff0600" stroke="none" /><path d="M 120.65975698304385 96.23510406497455 l 30.972793780632767 -5.644274784877242 a52.48288094226456,52.48288094226456 0 0,0 0.15391275244584285,0.8877278553853057 l -31.065121350570845 5.111753896571344" fill="#ff0500" stroke="none" /><path d="M 120.7213421655516 96.59031103205396 l 61.80530401338806 -10.170039255726499 a83.63645346481823,83.63645346481823 0 0,0 0.22095360195597788,1.418680625976634 l -61.9707791074823 9.107570447818423" fill="#4cd8ff" stroke="none" /><path d="M 120.82617615685814 97.30363454192243 l 31.313655930006764 -4.054179681371418 a52.57501259844076,52.57501259844076 0 0,0 0.10819915997030996,0.8960442592768177 l -31.378637176236737 3.5160417451711874" fill="#ff0801" stroke="none" /><path d="M 120.86939407059847 97.66154086499901 l 37.43697466030453 -4.194891096743709 a58.67126468582948,58.67126468582948 0 0,0 0.10356206723707681,1.0018690565847428 l -37.503469120023276 3.5516175178760356" fill="#ffac0f" stroke="none" /><path d="M 120.9064616781168 98.02013634271609 l 31.30670488419559 -2.964777501991669 a52.446775293222544,52.446775293222544 0 0,0 0.07718761073805439,0.8970370389687466 l -31.352986117631385 2.42691941564726" fill="#ff0400" stroke="none" /><path d="M 120.96210409425399 98.7389718711861 l 31.429796303094783 -1.8907384985249736 a52.48661600940684,52.48661600940684 0 0,0 0.04638419847322845,0.8998410587424248 l -31.457622091024586 1.3509256464058181" fill="#ff0500" stroke="none" /><path d="M 120.98066250479742 99.09900007780936 l 31.451402711409912 -1.3506585594848206 a52.48039089750304,52.48039089750304 0 0,0 0.030926726851636298,0.9003979082665013 l -31.469954125258397 0.8105543866541992" fill="#ff0500" stroke="none" /><path d="M 120.99303781780057 99.45929381324524 l 31.462486467566023 -0.8103620462816492 a52.47292076321848,52.47292076321848 0 0,0 0.015463440921950245,0.900667910343472 l -31.47176134008664 0.27014721996911073" fill="#ff0500" stroke="none" /><line stroke="#e1ed5e" stroke-width="0.3" x1="184.99686870605535" x2="189.99668451229388" y1="99.2704041080226" y2="99.22748670261217" /><path d="M 185.99683186730306 99.26182062694052 a86.0,86.0 0 0,1 -10.086455211305974,41.156179273409016" fill="none" id="id148" stroke="none" /><text fill="#e1ed5e" style="font-size:6.75px; font-family:Arial;" text-anchor="middle"><textPath startOffset="21.40746469413373" xlink:href="#id148">April</textPath></text><path d="M 120.99922638620191 100.18025310272382 l 31.453709180609156 0.2699922638913525 a52.45486793869747,52.45486793869747 0 0,0 -0.015458120867687965,0.900358043854219 l -31.4444396281428 -0.8098972237146427" fill="#ff0400" stroke="none" /><path d="M 120.99303781780057 100.54070618675476 l 31.475554868527674 0.8106986419336009 a52.48599349821646,52.48599349821646 0 0,0 -0.03093002846771166,0.9004940312160098 l -31.457000153063117 -1.3508989377137215" fill="#ff0500" stroke="none" /><path d="M 120.77682067341334 103.0534771498775 l 31.059604949267364 4.564692331304063 a52.39323933084988,52.39323933084988 0 0,0 -0.13841422571991363,0.888718620787746 l -30.976669231409183 -5.09719913402326" fill="#ff0300" stroke="none" /><path d="M 120.7213421655516 103.40968896794604 l 37.19718736161899 6.120783025164516 a58.69741015582542,58.69741015582542 0 0,0 -0.17213765319903274,0.9928442398508107 l -37.086634890927726 -6.758420297935914" fill="#ffad10" stroke="none" /><path d="M 120.65975698304385 103.76489593502545 l 31.01260142083803 5.651529062984903 a52.52334416963924,52.52334416963924 0 0,0 -0.16925949722379624,0.8856372117305557 l -30.911015631332077 -6.183068839748772" fill="#ff0601" stroke="none" /><path d="M 120.51834098615036 104.47187691870673 l 30.682931219055014 6.687202050564099 a52.403199509895956,52.403199509895956 0 0,0 -0.1991050543103066,0.8772936066391978 l -30.563615303187042 -7.212929991142313" fill="#ff0300" stroke="none" /><path d="M 120.43855184770803 104.8234425847677 l 36.76346217702268 8.676076972059715 a58.773356521051745,58.773356521051745 0 0,0 -0.2401660522862401,0.9799594501941826 l -36.609108598220146 -9.305892246861996" fill="#ffaf10" stroke="none" /><path d="M 120.35273937422433 105.17358676015961 l 36.598852086969636 9.303285081809893 a58.76277383081529,58.76277383081529 0 0,0 -0.2569067035600648,0.9755165987882792 l -36.433755902604844 -9.930182184970974" fill="#ffae10" stroke="none" /><path d="M 120.16314734710363 105.8691983318838 l 36.25553170698336 10.553456886122172 a58.760283786053776,58.760283786053776 0 0,0 -0.2902301367581214,0.9660817330315278 l -36.069025250221614 -11.174276222744423" fill="#ffae10" stroke="none" /><path d="M 120.05942366710727 106.21446072829308 l 36.10767615597625 11.18625037214728 a58.80074701342846,58.80074701342846 0 0,0 -0.30698269577747445,0.9616189222138205 l -35.91032874442152 -11.804438328052484" fill="#ffaf10" stroke="none" /><path d="M 119.94978838288452 106.5578916946017 l 29.935031713088488 9.840239509373523 a52.51089394583164,52.51089394583164 0 0,0 -0.28884637033385685,0.8539229692555452 l -29.761699921182267 -10.352664153103229" fill="#ff0601" stroke="none" /><path d="M 119.71291397450082 107.23885506374661 l 35.430769841860446 13.01066945323017 a58.7440984951039,58.7440984951039 0 0,0 -0.3557355635980719,0.9436308463712914 l -35.20220359444794 -13.616968579795621" fill="#ffae10" stroke="none" /><path d="M 119.58574465831526 107.57618678355244 l 35.238200042245396 13.63089277909545 a58.78269418890744,58.78269418890744 0 0,0 -0.3721261549778311,0.9380010013404294 l -34.999015212301444 -14.233794797649445" fill="#ffaf10" stroke="none" /><path d="M 119.4528033332814 107.91128576633889 l 35.0901254440137 14.27084853571299 a58.881050956987444,58.881050956987444 0 0,0 -0.388822857822114,0.9330333127817599 l -34.8399767416551 -14.871114357936026" fill="#ffb110" stroke="none" /><path d="M 119.16976305983485 108.57439118712176 l 34.51875706460286 15.43980097413253 a58.81444225961681,58.81444225961681 0 0,0 -0.4201466680870391,0.9180962941714477 l -34.24862593166077 -16.030086250518668" fill="#ffb010" stroke="none" /><path d="M 119.0197475246899 108.90220220490707 l 57.05924257406971 26.70660661472122 a84.0,84.0 0 0,0 -0.6224829681603521,1.300749991739586 l -56.592380347949444 -27.682169108525912" fill="#4dd2ff" stroke="none" /><path d="M 118.8641267826498 109.22738970284198 l 28.348475062392392 13.866659713217208 a52.55820479630051,52.55820479630051 0 0,0 -0.4033969528811077,0.8070641306680352 l -28.106258196299553 -14.35125570004899" fill="#ff0701" stroke="none" /><line stroke="#e1ed5e" stroke-width="0.3" x1="174.33088141563837" x2="178.70328620479359" y1="141.23008692659167" y2="143.65538615756765" /><path d="M 175.20536237346943 141.71514677278685 a86.0,86.0 0 0,1 -30.301960400862466,31.631185727798858" fill="none" id="id149" stroke="none" /><text fill="#e1ed5e" style="font-size:6.75px; font-family:Arial;" text-anchor="middle"><textPath startOffset="22.145653131862474" xlink:href="#id149">May</textPath></text><line stroke="#e1ed5e" stroke-width="0.3" x1="143.1302829299769" x2="145.66735839644613" y1="173.24464959558577" y2="177.55315839532614" /><path d="M 143.63769802327073 174.10635135553383 a86.0,86.0 0 0,1 -40.68552437913181,11.842963189579606" fill="none" id="id150" stroke="none" /><text fill="#e1ed5e" style="font-size:6.75px; font-family:Arial;" text-anchor="middle"><textPath startOffset="21.407464694133747" xlink:href="#id150">June</textPath></text><line stroke="#e1ed5e" stroke-width="0.3" x1="101.45913802915013" x2="101.54496967792366" y1="184.9874750549273" y2="189.98673829345242" /><path d="M 101.47630435890484 185.9873277026323 a86.0,86.0 0 0,1 -42.54439059252881,-10.42667462771756" fill="none" id="id151" stroke="none" /><text fill="#e1ed5e" style="font-size:6.75px; font-family:Arial;" text-anchor="middle"><textPath startOffset="22.145653131862474" xlink:href="#id151">July</textPath></text><line stroke="#e1ed5e" stroke-width="0.3" x1="58.13341422392154" x2="55.67067388415222" y1="173.97424548756322" y2="178.32567169271397" /><path d="M 57.64086615596768 174.84453072859336 a86.0,86.0 0 0,1 -31.369924170532247,-30.572349798747897" fill="none" id="id152" stroke="none" /><text fill="#e1ed5e" style="font-size:6.75px; font-family:Arial;" text-anchor="middle"><textPath startOffset="22.145653131862474" xlink:href="#id152">August</textPath></text><line stroke="#e1ed5e" stroke-width="0.3" x1="26.387840678322732" x2="22.057713659400548" y1="142.50000000000003" y2="145.00000000000006" /><path d="M 25.521815274538298 143.00000000000003 a86.0,86.0 0 0,1 -11.493303480769221,-40.785679425670985" fill="none" id="id153" stroke="none" /><text fill="#e1ed5e" style="font-size:6.75px; font-family:Arial;" text-anchor="middle"><textPath startOffset="21.40746469413373" xlink:href="#id153">September</textPath></text><line stroke="#e1ed5e" stroke-width="0.3" x1="15.003131293944662" x2="10.003315487706104" y1="100.72959589197737" y2="100.7725132973878" /><path d="M 14.003168132696942 100.73817937305945 a86.0,86.0 0 0,1 10.791469493833604,-42.45332614584628" fill="none" id="id154" stroke="none" /><text fill="#e1ed5e" style="font-size:6.75px; font-family:Arial;" text-anchor="middle"><textPath startOffset="22.145653131862435" xlink:href="#id154">October</textPath></text><line stroke="#e1ed5e" stroke-width="0.3" x1="26.387840678322718" x2="22.05771365940052" y1="57.49999999999999" y2="54.99999999999999" /><path d="M 25.521815274538284 56.99999999999999 a86.0,86.0 0 0,1 29.574782752854787,-30.34633250058573" fill="none" id="id155" stroke="none" /><text fill="#e1ed5e" style="font-size:6.75px; font-family:Arial;" text-anchor="middle"><textPath startOffset="21.40746469413373" xlink:href="#id155">November</textPath></text><line stroke="#e1ed5e" stroke-width="0.3" x1="56.869717070023135" x2="54.33264160355391" y1="26.7553504044142" y2="22.446841604673864" /><path d="M 56.362301976729285 25.89364864446614 a86.0,86.0 0 0,1 42.16139366436587,-11.88097634709845" fill="none" id="id156" stroke="none" /><text fill="#e1ed5e" style="font-size:6.75px; font-family:Arial;" text-anchor="middle"><textPath startOffset="22.145653131862474" xlink:href="#id156">December</textPath></text></svg>