<?xml version="1.0" encoding="utf-8" ?>
<svg baseProfile="full" height="200mm" version="1.1" viewBox="0,0,200,200" width="200mm" xmlns="http://www.w3.org/2000/svg" xmlns:ev="http://www.w3.org/2001/xml-events" xmlns:xlink="http://www.w3.org/1999/xlink"><defs /><rect fill="#1a1a1a" height="200" width="200" x="0" y="0" /><text alignment-baseline="middle" fill="#e1ed5e" style="dominant-baseline: central; font-size:9.0px; font-family:Arial;" text-anchor="middle" x="100.0" y="100.0">2024</text><line stroke="#e1ed5e" stroke-width="0.3" x1="100.0" x2="100.0" y1="15.0" y2="10.0" /><path d="M 100.0 14.0 a86.0,86.0 0 0,1 42.35913384403234,11.155469271406648" fill="none" id="id145" stroke="none" /><text fill="#e1ed5e" style="font-size:6.75px; font-family:Arial;" text-anchor="middle"><textPath startOffset="22.145653131862478" xlink:href="#id145">January</textPath></text><line stroke="#e1ed5e" stroke-width="0.3" x1="143.13028292997686" x2="145.6673583964461" y1="26.7553504044142" y2="22.446841604673864" /><path d="M 143.63769802327073 25.89364864446614 a86.0,86.0 0 0,1 29.32050498858742,28.57503671076993" fill="none" id="id146" stroke="none" /><text fill="#e1ed5e" style="font-size:6.75px; font-family:Arial;" text-anchor="middle"><textPath startOffset="20.669276256404974" xlink:href="#id146">February</textPath></text><line stroke="#e1ed5e" stroke-width="0.3" x1="172.87174338648825" x2="177.1583165268699" y1="56.24261187166439" y2="53.66864786411523" /><path d="M 173.72905801456457 55.72781907015455 a86.0,86.0 0 0,1 12.242430191666344,42.057860355516425" fill="none" id="id147" stroke="none" /><text fill="#e1ed5e" style="font-size:6.75px; font-family:Arial;" text-anchor="middle"><textPath startOffset="22.145653131862474" xlink:href="#id147">March</textPath></text><path d="M 119.31412917781788 91.75594674310238 l 28.99451606862909 -12.376034789198698 a52.52535803377096,52.52535803377096 0 0,0 0.34685284122628735,0.8323205515998275 l -29.20269475439186 11.876481728157593" fill="#ff0100" stroke="none" /><path d="M 119.4528033332814 92.08871423366111 l 29.211394663454737 -11.880019905435098 a52.53474989813057,52.53474989813057 0 0,0 0.3325732981800351,0.8383019643715861 l -29.411026636600898 11.376816923849946" fill="#ff0100" stroke="none" /><path d="M 119.58574465831526 92.42381321644754 l 29.364893982887185 -11.358971822351208 a52.485286079169946,52.485286079169946 0 0,0 0.3178341876424524,0.843092943694668 l -29.555558854344078 10.853210598462383" fill="#ff0000" stroke="none" /><path d="M 119.83427380445688 93.10060997987247 l 29.999489435185005 -10.43537968965253 a52.76265913992387,52.76265913992387 0 0,0 0.29023125367949093,0.8580171307892653 l -30.17420611043686 9.918860884389103" fill="#ff0801" stroke="none" /><path d="M 119.94978838288452 93.4421083053983 l 30.007064004007944 -9.863917954141842 a52.58671821425377,52.58671821425377 0 0,0 0.27454094275052376,0.8599955929199957 l -30.171969662535723 9.34735332753046" fill="#ff0300" stroke="none" /><path d="M 120.05942366710727 93.78553927170692 l 30.13668290765764 -9.336421400668655 a52.549776881105956,52.549776881105956 0 0,0 0.2595550590998389,0.8639743760354018 l -30.292514286761104 8.81770942104253" fill="#ff0200" stroke="none" /><path d="M 120.26092885502905 94.47779374421319 l 30.477475901984494 -8.306771584401243 a52.58922271141633,52.58922271141633 0 0,0 0.22991637339099066,0.8730299189085966 l -30.615581756180212 7.782361161119849" fill="#ff0300" stroke="none" /><path d="M 120.35273937422433 94.82641323984039 l 30.614368104322757 -7.782052655563633 a52.58797046283505,52.58797046283505 0 0,0 0.2148906581382902,0.8768272168211066 l -30.74344628897734 7.255369614134431" fill="#ff0300" stroke="none" /><path d="M 120.43855184770803 95.1765574152323 l 30.757462131685894 -7.258677314850489 a52.6023713215198,52.6023713215198 0 0,0 0.19986180417941818,0.8806279861922272 l -30.87753479742298 6.729614994719236" fill="#ff0300" stroke="none" /><path d="M 120.592083275326 95.88100663000786 l 31.072006553860806 -6.215271533068268 a52.68752422504696,52.68752422504696 0 0,0 0.16978857689440977,0.8884055801349633 l -31.174121423037374 5.680963387899991" fill="#ff0600" stroke="none" /><path d="M 120.65975698304385 96.23510406497455 l 31.152562130227665 -5.677034566572232 a52.66560987487452,52.66560987487452 0 0,0 0.15444862838223494,0.8908186453829268 l -31.245425576102132 5.141422888268712" fill="#ff0500" stroke="none" /><path d="M 120.7213421655516 96.59031103205396 l 62.16402649665483 -10.229066903838131 a84.0,84.0 0 0,0 0.22191403144693922,1.424847272274235 l -62.330462020240034 9.160431449632455" fill="#4dd2ff" stroke="none" /><path d="M 120.82617615685814 97.30363454192243 l 31.495402668327788 -4.077710435343539 a52.75827626988938,52.75827626988938 0 0,0 0.10857631585337682,0.8991676510292792 l -31.56076107044083 3.5364491073908466" fill="#ff0801" stroke="none" /><path d="M 120.86939407059847 97.66154086499901 l 37.654261586249106 -4.219238550012956 a58.88991144813604,58.88991144813604 0 0,0 0.10394800592137843,1.00560266326001 l -37.72114198465215 3.5722313644700145" fill="#ffae10" stroke="none" /><path d="M 120.9064616781168 98.02013634271609 l 31.488411278140767 -2.9819852864177028 a52.62929466601736,52.62929466601736 0 0,0 0.07745623038570049,0.9001588064522749 l -31.534961131224208 2.4410054325897654" fill="#ff0400" stroke="none" /><path d="M 120.96210409425399 98.7389718711861 l 31.612217128595013 -1.9017124823961966 a52.669366620618376,52.669366620618376 0 0,0 0.04654570137179635,0.9029741718287961 l -31.64020441942338 1.35876651719067" fill="#ff0500" stroke="none" /><path d="M 120.98066250479742 99.09900007780936 l 31.633948942076717 -1.3584978800777416 a52.663105377711965,52.663105377711965 0 0,0 0.031034400607959804,0.9035327121994869 l -31.652608029681524 0.8152589033141348" fill="#ff0500" stroke="none" /><path d="M 120.99303781780057 99.45929381324524 l 31.64509702916034 -0.8150654465840621 a52.65559188622427,52.65559188622427 0 0,0 0.015517272957172618,0.9038033565173211 l -31.654425733716177 0.2717151740976745" fill="#ff0500" stroke="none" /><line stroke="#e1ed5e" stroke-width="0.3" x1="184.99686870605535" x2="189.99668451229388" y1="99.2704041080226" y2="99.22748670261217" /><path d="M 185.99683186730306 99.26182062694052 a86.0,86.0 0 0,1 -10.086455211305974,41.156179273409016" fill="none" id="id148" stroke="none" /><text fill="#e1ed5e" style="font-size:6.75px; font-family:Arial;" text-anchor="middle"><textPath startOffset="21.40746469413373" xlink:href="#id148">April</textPath></text><path d="M 120.99922638620191 100.18025310272382 l 31.636268798191075 0.2715593186435618 a52.63743428179568,52.63743428179568 0 0,0 -0.015511922024928168,0.9034916915404094 l -31.62694544456748 -0.8145979261530424" fill="#ff0400" stroke="none" /><path d="M 120.99303781780057 100.54070618675476 l 31.65824128007241 0.8154039958616781 a52.66874049632773,52.66874049632773 0 0,0 -0.031037721386855174,0.903629393053591 l -31.63957887168871 -1.3587396534793799" fill="#ff0500" stroke="none" /><path d="M 120.77682067341334 103.0534771498775 l 31.239877157203956 4.591186137856321 a52.575447977022236,52.575447977022236 0 0,0 -0.13889559066320642,0.8918093290315967 l -31.15646007440248 -5.126783648819368" fill="#ff0300" stroke="none" /><path d="M 120.7213421655516 103.40968896794604 l 37.41308254462801 6.156308495370898 a58.916208668342954,58.916208668342954 0 0,0 -0.17277930778597653,0.9965451329952315 l -37.3018884193498 -6.797646661286718" fill="#ffaf10" stroke="none" /><path d="M 120.65975698304385 103.76489593502545 l 31.19260081687426 5.684330949038065 a52.706307953766185,52.706307953766185 0 0,0 -0.16984910854046087,0.8887223072853723 l -31.09042541605164 -6.218955821356752" fill="#ff0601" stroke="none" /><path d="M 120.51834098615036 104.47187691870673 l 30.861017185243593 6.726015058023222 a52.5854659656725,52.5854659656725 0 0,0 -0.19979757257094224,0.8803449698737527 l -30.74100875111499 -7.254794361835992" fill="#ff0300" stroke="none" /><path d="M 120.43855184770803 104.8234425847677 l 36.976839987489704 8.726433554332276 a58.99259583180115,58.99259583180115 0 0,0 -0.24106193169291956,0.9836149438930321 l -36.821590529280485 -9.359904322833406" fill="#ffb010" stroke="none" /><path d="M 120.35273937422433 105.17358676015961 l 36.81127448849212 9.357282025605565 a58.98195171886025,58.98195171886025 0 0,0 -0.25786493383137576,0.9791551552065111 l -36.64522007385601 -9.987817685184881" fill="#ffb010" stroke="none" /><path d="M 120.16314734710363 105.8691983318838 l 36.465961452030314 10.614709918069373 a58.9794472216977,58.9794472216977 0 0,0 -0.29131263380886596,0.9696850136503711 l -36.27837249821781 -11.239132535310468" fill="#ffb010" stroke="none" /><path d="M 120.05942366710727 106.21446072829308 l 36.31724773664282 11.251176183548047 a59.020145300589355,59.020145300589355 0 0,0 -0.30812811451894434,0.9652069301074453 l -36.118754906346624 -11.872952147346876" fill="#ffb110" stroke="none" /><path d="M 119.94978838288452 106.5578916946017 l 30.108776816105248 9.897352975751385 a52.69378546795336,52.69378546795336 0 0,0 -0.2898524006708035,0.8568971191868519 l -29.93443899386208 -10.412751769412397" fill="#ff0601" stroke="none" /><path d="M 119.71291397450082 107.23885506374661 l 35.63641260900827 13.086184325775976 a58.963167990141024,58.963167990141024 0 0,0 -0.3570621787352618,0.9471498506340471 l -35.406519746458564 -13.696002456604182" fill="#ffb010" stroke="none" /><path d="M 119.58574465831526 107.57618678355244 l 35.442725120259205 13.710007472970283 a59.00198769616076,59.00198769616076 0 0,0 -0.373514401140954,0.9415002885410131 l -35.20215204415212 -14.31640877872486" fill="#ffb110" stroke="none" /><path d="M 119.4528033332814 107.91128576633889 l 35.293791086281104 14.353677579381245 a59.10091533408203,59.10091533408203 0 0,0 -0.39027473909878563,0.9365172993069515 l -35.04219050264583 -14.957427388129474" fill="#ffb310" stroke="none" /><path d="M 119.16976305983485 108.57439118712176 l 34.719106443206584 15.529414702840759 a59.03392003498345,59.03392003498345 0 0,0 -0.4217145288453271,0.9215223528821236 l -34.4474074495062 -16.12312603793757" fill="#ffb210" stroke="none" /><line stroke="#e1ed5e" stroke-width="0.3" x1="174.33088141563837" x2="178.70328620479359" y1="141.23008692659167" y2="143.65538615756765" /><path d="M 175.20536237346943 141.71514677278685 a86.0,86.0 0 0,1 -30.301960400862466,31.631185727798858" fill="none" id="id149" stroke="none" /><text fill="#e1ed5e" style="font-size:6.75px; font-family:Arial;" text-anchor="middle"><textPath startOffset="22.145653131862474" xlink:href="#id149">May</textPath></text><line stroke="#e1ed5e" stroke-width="0.3" x1="143.1302829299769" x2="145.66735839644613" y1="173.24464959558577" y2="177.55315839532614" /><path d="M 143.63769802327073 174.10635135553383 a86.0,86.0 0 0,1 -40.68552437913181,11.842963189579606" fill="none" id="id150" stroke="none" /><text fill="#e1ed5e" style="font-size:6.75px; font-family:Arial;" text-anchor="middle"><textPath startOffset="21.407464694133747" xlink:href="#id150">June</textPath></text><line stroke="#e1ed5e" stroke-width="0.3" x1="101.45913802915013" x2="101.54496967792366" y1="184.9874750549273" y2="189.98673829345242" /><path d="M 101.47630435890484 185.9873277026323 a86.0,86.0 0 0,1 -42.54439059252881,-10.42667462771756" fill="none" id="id151" stroke="none" /><text fill="#e1ed5e" style="font-size:6.75px; font-family:Arial;" text-anchor="middle"><textPath startOffset="22.145653131862474" xlink:href="#id151">July</textPath></text><line stroke="#e1ed5e" stroke-width="0.3" x1="58.13341422392154" x2="55.67067388415222" y1="173.97424548756322" y2="178.32567169271397" /><path d="M 57.64086615596768 174.84453072859336 a86.0,86.0 0 0,1 -31.369924170532247,-30.572349798747897" fill="none" id="id152" stroke="none" /><text fill="#e1ed5e" style="font-size:6.75px; font-family:Arial;" text-anchor="middle"><textPath startOffset="22.145653131862474" xlink:href="#id152">August</textPath></text><line stroke="#e1ed5e" stroke-width="0.3" x1="26.387840678322732" x2="22.057713659400548" y1="142.50000000000003" y2="145.00000000000006" /><path d="M 25.521815274538298 143.00000000000003 a86.0,86.0 0 0,1 -11.493303480769221,-40.785679425670985" fill="none" id="id153" stroke="none" /><text fill="#e1ed5e" style="font-size:6.75px; font-family:Arial;" text-anchor="middle"><textPath startOffset="21.40746469413373" xlink:href="#id153">September</textPath></text><line stroke="#e1ed5e" stroke-width="0.3" x1="15.003131293944662" x2="10.003315487706104" y1="100.72959589197737" y2="100.7725132973878" /><path d="M 14.003168132696942 100.73817937305945 a86.0,86.0 0 0,1 10.791469493833604,-42.45332614584628" fill="none" id="id154" stroke="none" /><text fill="#e1ed5e" style="font-size:6.75px; font-family:Arial;" text-anchor="middle"><textPath startOffset="22.145653131862435" xlink:href="#id154">October</textPath></text><line stroke="#e1ed5e" stroke-width="0.3" x1="26.387840678322718" x2="22.05771365940052" y1="57.49999999999999" y2="54.99999999999999" /><path d="M 25.521815274538284 56.99999999999999 a86.0,86.0 0 0,1 29.574782752854787,-30.34633250058573" fill="none" id="id155" stroke="none" /><text fill="#e1ed5e" style="font-size:6.75px; font-family:Arial;" text-anchor="middle"><textPath startOffset="21.40746469413373" xlink:href="#id155">November</textPath></text><line stroke="#e1ed5e" stroke-width="0.3" x1="56.869717070023135" x2="54.33264160355391" y1="26.7553504044142" y2="22.446841604673864" /><path d="M 56.362301976729285 25.89364864446614 a86.0,86.0 0 0,1 42.16139366436587,-11.88097634709845" fill="none" id="id156" stroke="none" /><text fill="#e1ed5e" style="font-size:6.75px; font-family:Arial;" text-anchor="middle"><textPath startOffset="22.145653131862474" xlink:href="#id156">December</textPath></text></svg>