<?xml version="1.0" encoding="utf-8" ?>
<svg baseProfile="full" height="200mm" version="1.1" viewBox="0,0,200,200" width="200mm" xmlns="http://www.w3.org/2000/svg" xmlns:ev="http://www.w3.org/2001/xml-events" xmlns:xlink="http://www.w3.org/1999/xlink"><defs /><rect fill="#1a1a1a" height="200" width="200" x="0" y="0" /><text alignment-baseline="middle" fill="#e1ed5e" style="dominant-baseline: central; font-size:9.0px; font-family:Arial;" text-anchor="middle" x="100.0" y="100.0">2024</text><line stroke="#e1ed5e" stroke-width="0.3" x1="100.0" x2="100.0" y1="15.0" y2="10.0" /><path d="M 100.0 14.0 a86.0,86.0 0 0,1 42.35913384403234,11.155469271406648" fill="none" id="id145" stroke="none" /><text fill="#e1ed5e" style="font-size:6.75px; font-family:Arial;" text-anchor="middle"><textPath startOffset="22.145653131862478" xlink:href="#id145">January</textPath></text><line stroke="#e1ed5e" stroke-width="0.3" x1="143.13028292997686" x2="145.6673583964461" y1="26.7553504044142" y2="22.446841604673864" /><path d="M 143.63769802327073 25.89364864446614 a86.0,86.0 0 0,1 29.32050498858742,28.57503671076993" fill="none" id="id146" stroke="none" /><text fill="#e1ed5e" style="font-size:6.75px; font-family:Arial;" text-anchor="middle"><textPath startOffset="20.669276256404974" xlink:href="#id146">February</textPath></text><line stroke="#e1ed5e" stroke-width="0.3" x1="172.87174338648825" x2="177.1583165268699" y1="56.24261187166439" y2="53.66864786411523" /><path d="M 173.72905801456457 55.72781907015455 a86.0,86.0 0 0,1 12.242430191666344,42.057860355516425" fill="none" id="id147" stroke="none" /><text fill="#e1ed5e" style="font-size:6.75px; font-family:Arial;" text-anchor="middle"><textPath startOffset="22.145653131862474" xlink:href="#id147">March</textPath></text><path d="M 119.31412917781788 91.75594674310238 l 23.111590752742117 -9.864963792209393 a46.128930294460154,46.128930294460154 0 0,0 0.304613831000938,0.7309623036307488 l -23.27753042827954 9.466768979137365" fill="#ff0100" stroke="none" /><path d="M 119.4528033332814 92.08871423366111 l 23.28446514439521 -9.469589267810395 a46.136416569622355,46.136416569622355 0 0,0 0.2920683976704975,0.7362031553281744 l -23.44359221703183 9.068485095268656" fill="#ff0100" stroke="none" /><path d="M 119.58574465831526 92.42381321644754 l 23.406819780118397 -9.054260726708621 a46.096988853768096,46.096988853768096 0 0,0 0.27914869289271627,0.7404750727577302 l -23.558799156825554 8.651117373756735" fill="#ff0000" stroke="none" /><path d="M 119.83427380445688 93.10060997987247 l 23.91265717200117 -8.318063462961932 a46.31808351355847,46.31808351355847 0 0,0 0.25478161384022374,0.7532165695926741 l -24.051924207413755 7.906345218895097" fill="#ff0500" stroke="none" /><path d="M 119.94978838288452 93.4421083053983 l 23.918694877005446 -7.862550091719133 a46.17784062551988,46.17784062551988 0 0,0 0.24108193722720914,0.7551857346698769 l -24.050141530009913 7.450795323357869" fill="#ff0200" stroke="none" /><path d="M 120.05942366710727 93.78553927170692 l 24.02201438224844 -7.442081461082295 a46.148394609881876,46.148394609881876 0 0,0 0.22793720546960555,0.7587288244499408 l -24.146227907721673 7.02861503304163" fill="#ff0100" stroke="none" /><path d="M 120.26092885502905 94.47779374421319 l 24.29366120669073 -6.621345390996417 a46.17983696556313,46.17983696556313 0 0,0 0.20189499086482193,0.766628165289572 l -24.40374567836028 6.203336721334047" fill="#ff0200" stroke="none" /><path d="M 120.35273937422433 94.82641323984039 l 24.402778273869746 -6.203090810895558 a46.17883879554151,46.17883879554151 0 0,0 0.1887009704595652,0.769964353839076 l -24.5056667708456 5.783270632448387" fill="#ff0200" stroke="none" /><path d="M 120.43855184770803 95.1765574152323 l 24.516838829036466 -5.785907207761494 a46.190317750790214,46.190317750790214 0 0,0 0.17549931703396093,0.7732823726487895 l -24.612549007628093 5.364190501173678" fill="#ff0200" stroke="none" /><path d="M 120.592083275326 95.88100663000786 l 24.767562860493225 -4.9542062281515316 a46.25819331226085,46.25819331226085 0 0,0 0.14906968827473452,0.7799955999078405 l -24.848958841050116 4.5283080632103765" fill="#ff0400" stroke="none" /><path d="M 120.65975698304385 96.23510406497455 l 24.831773882654637 -4.525176391329637 a46.24072533688238,46.24072533688238 0 0,0 0.13560683376968408,0.7821441810698045 l -24.905795533916553 4.09823917733924" fill="#ff0300" stroke="none" /><path d="M 120.7213421655516 96.59031103205396 l 49.5510784360966 -8.15361110026292 a71.2174347030444,71.2174347030444 0 0,0 0.18814461957454448,1.2080234235119198 l -49.68374454780941 7.301799494819559" fill="#33ff53" stroke="none" /><path d="M 120.82617615685814 97.30363454192243 l 25.105052808616538 -3.2503517067426513 a46.31458991848278,46.31458991848278 0 0,0 0.09531523581028763,0.7893468848821019 l -25.15715013068649 2.8189111449371365" fill="#ff0500" stroke="none" /><path d="M 120.86939407059847 97.66154086499901 l 30.014292420616158 -3.36316406955307 a51.20212942937947,51.20212942937947 0 0,0 0.09037811608529397,0.8743262887075955 l -30.06760292918312 2.8474332585625426" fill="#ff760a" stroke="none" /><path d="M 120.9064616781168 98.02013634271609 l 25.099479956549864 -2.376946847716194 a46.211778406255206,46.211778406255206 0 0,0 0.06801136472533895,0.7903951508031783 l -25.136584943972945 1.9457306495373534" fill="#ff0300" stroke="none" /><path d="M 120.96210409425399 98.7389718711861 l 25.198165864661615 -1.515859085852309 a46.24371984694726,46.24371984694726 0 0,0 0.04086713990356598,0.7928115963850147 l -25.220474594021756 1.0830756960905639" fill="#ff0400" stroke="none" /><path d="M 120.98066250479742 99.09900007780936 l 25.215488339653625 -1.0828615648734643 a46.23872899683913,46.23872899683913 0 0,0 0.02724851162875231,0.793310685337072 l -25.230361538279226 0.6498446149722724" fill="#ff0300" stroke="none" /><path d="M 120.99303781780057 99.45929381324524 l 25.224374503704198 -0.6496904101990933 a46.23273997670937,46.23273997670937 0 0,0 0.013624498748902546,0.7935587479907203 l -25.231810434051766 0.2165847462393066" fill="#ff0300" stroke="none" /><line stroke="#e1ed5e" stroke-width="0.3" x1="184.99686870605535" x2="189.99668451229388" y1="99.2704041080226" y2="99.22748670261217" /><path d="M 185.99683186730306 99.26182062694052 a86.0,86.0 0 0,1 -10.086455211305974,41.156179273409016" fill="none" id="id148" stroke="none" /><text fill="#e1ed5e" style="font-size:6.75px; font-family:Arial;" text-anchor="middle"><textPath startOffset="21.40746469413373" xlink:href="#id148">April</textPath></text><path d="M 120.99922638620191 100.18025310272382 l 25.217337501922568 0.21646051352359202 a46.21826651139577,46.21826651139577 0 0,0 -0.013620233509368961,0.7933103191712385 l -25.20990583681453 -0.6493177486639016" fill="#ff0300" stroke="none" /><path d="M 120.99303781780057 100.54070618675476 l 25.234851814210494 0.6499602685521478 a46.24322076193644,46.24322076193644 0 0,0 -0.02725115862871058,0.7933877498525977 l -25.21997596858494 -1.0830542829688563" fill="#ff0300" stroke="none" /><path d="M 120.77682067341334 103.0534771498775 l 24.9013728773495 3.659644287100356 a46.16885709532524,46.16885709532524 0 0,0 -0.12197044292048592,0.7831377392415643 l -24.834880942290745 -4.086570208273371" fill="#ff0200" stroke="none" /><path d="M 120.7213421655516 103.40968896794604 l 29.822048090864577 4.907206664731519 a51.22309099983364,51.22309099983364 0 0,0 -0.15021825751603068,0.8664189904039824 l -29.73341501585631 -5.41841868805609" fill="#ff760a" stroke="none" /><path d="M 120.65975698304385 103.76489593502545 l 24.8636888053891 4.530992353393866 a46.27316586258526,46.27316586258526 0 0,0 -0.14911793817922675,0.7802480637966397 l -24.782244574927713 -4.95714298222382" fill="#ff0400" stroke="none" /><path d="M 120.51834098615036 104.47187691870673 l 24.599382783642884 5.361320983936106 a46.17684245549826,46.17684245549826 0 0,0 -0.17544811788150885,0.773056779736206 l -24.503723804203712 -5.782812097611329" fill="#ff0200" stroke="none" /><path d="M 120.43855184770803 104.8234425847677 l 29.47431821582041 6.955858844525982 a51.28397937115288,51.28397937115288 0 0,0 -0.20956214856789934,0.855085079415598 l -29.350568540736216 -7.460799748549679" fill="#ff770b" stroke="none" /><path d="M 120.35273937422433 105.17358676015961 l 29.34234560256663 7.45870950982252 a51.275494925969056,51.275494925969056 0 0,0 -0.2241728481498875,0.8512208180536295 l -29.209983273612014 -7.9613108322489525" fill="#ff770b" stroke="none" /><path d="M 120.16314734710363 105.8691983318838 l 29.067095842874078 8.461007971466772 a51.27349858592581,51.27349858592581 0 0,0 -0.2532512361724245,0.8429909997173521 l -28.917568286698025 -8.958736574774848" fill="#ff770b" stroke="none" /><path d="M 120.05942366710727 106.21446072829308 l 28.948555822367435 8.968336592536073 a51.30593911162868,51.30593911162868 0 0,0 -0.26785434365801275,0.839049916498937 l -28.790336762932167 -9.463955542726392" fill="#ff780b" stroke="none" /><path d="M 119.94978838288452 106.5578916946017 l 23.99977037700481 7.889201218932977 a46.26318416236899,46.26318416236899 0 0,0 -0.2544796292969569,0.7523238059496451 l -23.86080532613549 -8.300026699356783" fill="#ff0400" stroke="none" /><path d="M 119.71291397450082 107.23885506374661 l 28.405860686406687 10.4310255062168 a51.26052237564465,51.26052237564465 0 0,0 -0.3104174084678712,0.8234190557677147 l -28.222612594124374 -10.917112842178673" fill="#ff770a" stroke="none" /><path d="M 119.58574465831526 107.57618678355244 l 28.251471974993155 10.92827627066883 a51.29146564631509,51.29146564631509 0 0,0 -0.32470263837860175,0.8184627601764575 l -28.05971066164843 -11.411640048058851" fill="#ff780b" stroke="none" /><path d="M 119.4528033332814 107.91128576633889 l 28.132756338066862 11.4413470887481 a51.37032107802362,51.37032107802362 0 0,0 -0.3392255186373572,0.8140177540157025 l -27.93220497489302 -11.92259735220508" fill="#ff790b" stroke="none" /><path d="M 119.16976305983485 108.57439118712176 l 27.674673980313894 12.378529663752442 a51.31691898186658,51.31691898186658 0 0,0 -0.3665873839549736,0.8010595924310493 l -27.458102131503864 -12.851778238398179" fill="#ff780b" stroke="none" /><path d="M 119.0197475246899 108.90220220490707 l 45.74602535212091 21.411449717023796 a71.5089003493595,71.5089003493595 0 0,0 -0.5299175302303826,1.107323827842098 l -45.37172856393062 -22.193586046931" fill="#34ff58" stroke="none" /><path d="M 118.8641267826498 109.22738970284198 l 22.72778257115365 11.117297359259776 a46.30111462319081,46.30111462319081 0 0,0 -0.3553722701599726,0.71098259476619 l -22.533590387781945 -11.505811810189712" fill="#ff0500" stroke="none" /><path d="M 118.5362547648365 109.86951160357373 l 53.16425357154736 28.30697053835787 a81.23057727499585,81.23057727499585 0 0,0 -0.6659153157771954,1.2252091774248888 l -52.67049290615483 -29.21543454925736" fill="#47fcff" stroke="none" /><line stroke="#e1ed5e" stroke-width="0.3" x1="174.33088141563837" x2="178.70328620479359" y1="141.23008692659167" y2="143.65538615756765" /><path d="M 175.20536237346943 141.71514677278685 a86.0,86.0 0 0,1 -30.301960400862466,31.631185727798858" fill="none" id="id149" stroke="none" /><text fill="#e1ed5e" style="font-size:6.75px; font-family:Arial;" text-anchor="middle"><textPath startOffset="22.145653131862474" xlink:href="#id149">May</textPath></text><path d="M 118.36410011445183 110.18625677009912 l 26.549102218842112 14.726339462934607 a51.35984029279654,51.35984029279654 0 0,0 -0.43427590542053857,0.7673239133645335 l -26.292392948400195 -15.179920146398263" fill="#ff790b" stroke="none" /><path d="M 118.18653347947321 110.5 l 26.245713156214844 15.152969555814334 a51.30593911162868,51.30593911162868 0 0,0 -0.44691452809516174,0.7589585735537969 l -25.981724917989915 -15.60127929766168" fill="#ff780b" stroke="none" /><path d="M 117.81537515405839 111.11811171558189 l 53.44612546217515 33.35433514674567 a84.0,84.0 0 0,0 -0.7739292334964403,1.2167453012853122 l -52.865678537052815 -34.26689412270965" fill="#4dd2ff" stroke="none" /><path d="M 117.423217284605 111.72311816256416 l 25.145797372488715 16.9192146934913 a51.30793545167193,51.30793545167193 0 0,0 -0.49795637275561005,0.7265332294569288 l -24.851651262917784 -17.348382658018274" fill="#ff780b" stroke="none" /><path d="M 117.21940702142032 112.02048342749411 l 24.833644895806483 17.33581281532964 a51.285975711196144,51.285975711196144 0 0,0 -0.5101364753918113,0.7175708387796509 l -24.53239332188471 -17.759560880818796" fill="#ff770b" stroke="none" /><path d="M 117.01052211995028 112.31430620078461 l 40.7004141204961 29.46396109680327 a71.24588254866079,71.24588254866079 0 0,0 -0.7256833519107776,0.9845288383900932 l -40.188628749001495 -30.15829624446224" fill="#33ff53" stroke="none" /><path d="M 116.79662413953412 112.60449989151573 l 24.226706253495376 18.18017202785583 a51.28946930627183,51.28946930627183 0 0,0 -0.5345047114392708,0.6996838251057528 l -23.911049564701802 -18.593376766202457" fill="#ff770b" stroke="none" /><line stroke="#e1ed5e" stroke-width="0.3" x1="143.1302829299769" x2="145.66735839644613" y1="173.24464959558577" y2="177.55315839532614" /><path d="M 143.63769802327073 174.10635135553383 a86.0,86.0 0 0,1 -40.68552437913181,11.842963189579606" fill="none" id="id150" stroke="none" /><text fill="#e1ed5e" style="font-size:6.75px; font-family:Arial;" text-anchor="middle"><textPath startOffset="21.407464694133747" xlink:href="#id150">June</textPath></text><line stroke="#e1ed5e" stroke-width="0.3" x1="101.45913802915013" x2="101.54496967792366" y1="184.9874750549273" y2="189.98673829345242" /><path d="M 101.47630435890484 185.9873277026323 a86.0,86.0 0 0,1 -42.54439059252881,-10.42667462771756" fill="none" id="id151" stroke="none" /><text fill="#e1ed5e" style="font-size:6.75px; font-family:Arial;" text-anchor="middle"><textPath startOffset="22.145653131862474" xlink:href="#id151">July</textPath></text><line stroke="#e1ed5e" stroke-width="0.3" x1="58.13341422392154" x2="55.67067388415222" y1="173.97424548756322" y2="178.32567169271397" /><path d="M 57.64086615596768 174.84453072859336 a86.0,86.0 0 0,1 -31.369924170532247,-30.572349798747897" fill="none" id="id152" stroke="none" /><text fill="#e1ed5e" style="font-size:6.75px; font-family:Arial;" text-anchor="middle"><textPath startOffset="22.145653131862474" xlink:href="#id152">August</textPath></text><line stroke="#e1ed5e" stroke-width="0.3" x1="26.387840678322732" x2="22.057713659400548" y1="142.50000000000003" y2="145.00000000000006" /><path d="M 25.521815274538298 143.00000000000003 a86.0,86.0 0 0,1 -11.493303480769221,-40.785679425670985" fill="none" id="id153" stroke="none" /><text fill="#e1ed5e" style="font-size:6.75px; font-family:Arial;" text-anchor="middle"><textPath startOffset="21.40746469413373" xlink:href="#id153">September</textPath></text><line stroke="#e1ed5e" stroke-width="0.3" x1="15.003131293944662" x2="10.003315487706104" y1="100.72959589197737" y2="100.7725132973878" /><path d="M 14.003168132696942 100.73817937305945 a86.0,86.0 0 0,1 10.791469493833604,-42.45332614584628" fill="none" id="id154" stroke="none" /><text fill="#e1ed5e" style="font-size:6.75px; font-family:Arial;" text-anchor="middle"><textPath startOffset="22.145653131862435" xlink:href="#id154">October</textPath></text><line stroke="#e1ed5e" stroke-width="0.3" x1="26.387840678322718" x2="22.05771365940052" y1="57.49999999999999" y2="54.99999999999999" /><path d="M 25.521815274538284 56.99999999999999 a86.0,86.0 0 0,1 29.574782752854787,-30.34633250058573" fill="none" id="id155" stroke="none" /><text fill="#e1ed5e" style="font-size:6.75px; font-family:Arial;" text-anchor="middle"><textPath startOffset="21.40746469413373" xlink:href="#id155">November</textPath></text><line stroke="#e1ed5e" stroke-width="0.3" x1="56.869717070023135" x2="54.33264160355391" y1="26.7553504044142" y2="22.446841604673864" /><path d="M 56.362301976729285 25.89364864446614 a86.0,86.0 0 0,1 42.16139366436587,-11.88097634709845" fill="none" id="id156" stroke="none" /><text fill="#e1ed5e" style="font-size:6.75px; font-family:Arial;" text-anchor="middle"><textPath startOffset="22.145653131862474" xlink:href="#id156">December</textPath></text></svg>