<?xml version="1.0" encoding="utf-8" ?>
<svg baseProfile="full" height="200mm" version="1.1" viewBox="0,0,200,200" width="200mm" xmlns="http://www.w3.org/2000/svg" xmlns:ev="http://www.w3.org/2001/xml-events" xmlns:xlink="http://www.w3.org/1999/xlink"><defs /><rect fill="#1a1a1a" height="200" width="200" x="0" y="0" /><text alignment-baseline="middle" fill="#e1ed5e" style="dominant-baseline: central; font-size:9.0px; font-family:Arial;" text-anchor="middle" x="100.0" y="100.0">2024</text><line stroke="#e1ed5e" stroke-width="0.3" x1="100.0" x2="100.0" y1="15.0" y2="10.0" /><path d="M 100.0 14.0 a86.0,86.0 0 0,1 42.35913384403234,11.155469271406648" fill="none" id="id145" stroke="none" /><text fill="#e1ed5e" style="font-size:6.75px; font-family:Arial;" text-anchor="middle"><textPath startOffset="22.145653131862478" xlink:href="#id145">January</textPath></text><line stroke="#e1ed5e" stroke-width="0.3" x1="143.13028292997686" x2="145.6673583964461" y1="26.7553504044142" y2="22.446841604673864" /><path d="M 143.63769802327073 25.89364864446614 a86.0,86.0 0 0,1 29.32050498858742,28.57503671076993" fill="none" id="id146" stroke="none" /><text fill="#e1ed5e" style="font-size:6.75px; font-family:Arial;" text-anchor="middle"><textPath startOffset="20.669276256404974" xlink:href="#id146">February</textPath></text><line stroke="#e1ed5e" stroke-width="0.3" x1="172.87174338648825" x2="177.1583165268699" y1="56.24261187166439" y2="53.66864786411523" /><path d="M 173.72905801456457 55.72781907015455 a86.0,86.0 0 0,1 12.242430191666344,42.057860355516425" fill="none" id="id147" stroke="none" /><text fill="#e1ed5e" style="font-size:6.75px; font-family:Arial;" text-anchor="middle"><textPath startOffset="22.145653131862474" xlink:href="#id147">March</textPath></text><path d="M 119.31412917781788 91.75594674310238 l 22.306833446567957 -9.521460752031073 a45.25392820277555,45.25392820277555 0 0,0 0.2988357273774535,0.7170969583791525 l -22.466995018481896 9.137131284210643" fill="#ff0100" stroke="none" /><path d="M 119.4528033332814 92.08871423366111 l 22.473688264266947 -9.139853369002365 a45.26115380204152,45.26115380204152 0 0,0 0.28652751233359214,0.7222365047049755 l -22.627274451566663 8.752715847083824" fill="#ff0100" stroke="none" /><path d="M 119.58574465831526 92.42381321644754 l 22.591782449547928 -8.738986778247936 a45.223098979240746,45.223098979240746 0 0,0 0.27385669395151974,0.72643741683891 l -22.73846982731389 8.349881081214868" fill="#ff0000" stroke="none" /><path d="M 119.83427380445688 93.10060997987247 l 23.080006327016704 -8.028424276431913 a45.43649501089574,45.43649501089574 0 0,0 0.24993226506728397,0.7388803316182859 l -23.21442401365635 7.631042270339465" fill="#ff0500" stroke="none" /><path d="M 119.94978838288452 93.4421083053983 l 23.08583379607199 -7.588772111693223 a45.30113545131323,45.30113545131323 0 0,0 0.23650489813417605,0.7408482249010413 l -23.212703409983426 7.191354853100795" fill="#ff0200" stroke="none" /><path d="M 120.05942366710727 93.78553927170692 l 23.185555663765747 -7.18294441192705 a45.27271476086707,45.27271476086707 0 0,0 0.22361202754396348,0.7443317138233615 l -23.305444011313337 6.783875094512965" fill="#ff0100" stroke="none" /><path d="M 120.26092885502905 94.47779374421319 l 23.44774360807262 -6.390786787864577 a45.30306227778415,45.30306227778415 0 0,0 0.19806179375519053,0.752072891507086 l -23.55399488263254 5.987333391984693" fill="#ff0200" stroke="none" /><path d="M 120.35273937422433 94.82641323984039 l 23.55306116365677 -5.987096044272333 a45.30209886454868,45.30209886454868 0 0,0 0.18511834083668752,0.7553460024023789 l -23.652367031009753 5.581894217261858" fill="#ff0200" stroke="none" /><path d="M 120.43855184770803 95.1765574152323 l 23.663150072470874 -5.584438985685983 a45.31317811675651,45.31317811675651 0 0,0 0.1721666400961908,0.7585979831408115 l -23.75552757412473 5.177406668606145" fill="#ff0200" stroke="none" /><path d="M 120.592083275326 95.88100663000786 l 23.905143766050546 -4.781698255807593 a45.37869021676798,45.37869021676798 0 0,0 0.14623543896895724,0.7651656099002555 l -23.98370549730166 4.370630080874023" fill="#ff0400" stroke="none" /><path d="M 120.65975698304385 96.23510406497455 l 23.967118927869237 -4.367607455395738 a45.36183048514738,45.36183048514738 0 0,0 0.1330293623482919,0.7672780108475905 l -24.038563107709763 3.955536411627554" fill="#ff0300" stroke="none" /><path d="M 120.7213421655516 96.59031103205396 l 47.82568476558405 -7.869698228369375 a69.46883816951484,69.46883816951484 0 0,0 0.1835251183110958,1.17836291159397 l -47.95373137603342 7.047547134843963" fill="#30ff37" stroke="none" /><path d="M 120.82617615685814 97.30363454192243 l 24.23088214309343 -3.1371728125842537 a45.433123064571625,45.433123064571625 0 0,0 0.09350118064565438,0.7743239058060434 l -24.28116540999875 2.7207552298547975" fill="#ff0500" stroke="none" /><path d="M 120.86939407059847 97.66154086499901 l 28.969179543118855 -3.2460569917326425 a50.150475972015144,50.150475972015144 0 0,0 0.08852181715182351,0.8563682804249114 l -29.020633752752346 2.7482841890247998" fill="#ff6f0a" stroke="none" /><path d="M 120.9064616781168 98.02013634271609 l 24.225503340560806 -2.294180353511968 a45.33389150131896,45.33389150131896 0 0,0 0.06671935025330694,0.7753799841823391 l -24.261316313511855 1.877979321953967" fill="#ff0300" stroke="none" /><path d="M 120.96210409425399 98.7389718711861 l 24.320752955324398 -1.4630761040350415 a45.36472072485377,45.36472072485377 0 0,0 0.04009033863808392,0.7777418593587887 l -24.342284883419055 1.045362451299522" fill="#ff0300" stroke="none" /><path d="M 120.98066250479742 99.09900007780936 l 24.33747225295575 -1.0451557762399535 a45.35990365867646,45.35990365867646 0 0,0 0.026730619312806413,0.7782328156283896 l -24.351827559265402 0.6272166960474438" fill="#ff0300" stroke="none" /><path d="M 120.99303781780057 99.45929381324524 l 24.34604899626933 -0.6270678607626391 a45.35412317926368,45.35412317926368 0 0,0 0.013365575884638088,0.778477789213545 l -24.35322600375264 0.20904315558002765" fill="#ff0300" stroke="none" /><line stroke="#e1ed5e" stroke-width="0.3" x1="184.99686870605535" x2="189.99668451229388" y1="99.2704041080226" y2="99.22748670261217" /><path d="M 185.99683186730306 99.26182062694052 a86.0,86.0 0 0,1 -10.086455211305974,41.156179273409016" fill="none" id="id148" stroke="none" /><text fill="#e1ed5e" style="font-size:6.75px; font-family:Arial;" text-anchor="middle"><textPath startOffset="21.40746469413373" xlink:href="#id148">April</textPath></text><path d="M 120.99922638620191 100.18025310272382 l 24.339257026457073 0.20892324871045262 a45.34015368734946,45.34015368734946 0 0,0 -0.013361459162907197,0.7782380108114957 l -24.332084135695496 -0.6267081754910194" fill="#ff0300" stroke="none" /><path d="M 120.99303781780057 100.54070618675476 l 24.35616148151245 0.6273283225110386 a45.364239018236034,45.364239018236034 0 0,0 -0.026733174142884352,0.7783071967184181 l -24.34180362037272 -1.0453417837935675" fill="#ff0300" stroke="none" /><path d="M 120.77682067341334 103.0534771498775 l 24.034294450286385 3.532213617807586 a45.29246473219406,45.29246473219406 0 0,0 -0.11965516003439376,0.7682719622409763 l -23.970117798113723 -3.944273761980013" fill="#ff0200" stroke="none" /><path d="M 120.7213421655516 103.40968896794604 l 28.783629258385332 4.73633524101177 a50.17070764995985,50.17070764995985 0 0,0 -0.14713200891269207,0.8486183285985758 l -28.698082431980406 -5.229746602530934" fill="#ff700a" stroke="none" /><path d="M 120.65975698304385 103.76489593502545 l 23.997922556815162 4.373220902712551 a45.393141415299915,45.393141415299915 0 0,0 -0.14628200878731518,0.7654092828684628 l -23.91931425574569 -4.7845327506143285" fill="#ff0400" stroke="none" /><path d="M 120.51834098615036 104.47187691870673 l 23.742819804733145 5.1746370694134525 a45.30017203807776,45.30017203807776 0 0,0 -0.17211722372418198,0.7583802454878061 l -23.6504917194513 -5.581451648840275" fill="#ff0200" stroke="none" /><path d="M 120.43855184770803 104.8234425847677 l 28.448007513867996 6.71365231336437 a50.22947585732308,50.22947585732308 0 0,0 -0.20525312214794733,0.8375027811633219 l -28.328566865203754 -7.201010919135792" fill="#ff710a" stroke="none" /><path d="M 120.35273937422433 105.17358676015961 l 28.32063025390976 7.198993463580734 a50.22128684482165,50.22128684482165 0 0,0 -0.21956392475607833,0.833719985218595 l -28.19287684834895 -7.684093953172133" fill="#ff710a" stroke="none" /><path d="M 120.16314734710363 105.8691983318838 l 28.054964830384503 8.166391384686486 a50.21936001835073,50.21936001835073 0 0,0 -0.24804461086504406,0.8256598374321896 l -27.91064389951583 -8.646788825709399" fill="#ff710a" stroke="none" /><path d="M 120.05942366710727 106.21446072829308 l 27.94055243348445 8.656054565985556 a50.25067094850327,50.25067094850327 0 0,0 -0.2623450758010857,0.8217922134047999 l -27.78784264190611 -9.13441581308174" fill="#ff710a" stroke="none" /><path d="M 119.94978838288452 106.5578916946017 l 23.16408620606105 7.614495233146987 a45.38350728294529,45.38350728294529 0 0,0 -0.24964079577890136,0.7380186544578837 l -23.029959988709784 -8.01101556207903" fill="#ff0400" stroke="none" /><path d="M 119.71291397450082 107.23885506374661 l 27.416754217271116 10.067811910198058 a50.20683564628971,50.20683564628971 0 0,0 -0.30403661699902046,0.8064932483129579 l -27.239886916457653 -10.536973438705175" fill="#ff700a" stroke="none" /><path d="M 119.58574465831526 107.57618678355244 l 27.267741399054643 10.547748150956128 a50.23670145658906,50.23670145658906 0 0,0 -0.3180254122366751,0.8016317884118502 l -27.082657311851843 -11.014280956581542" fill="#ff710a" stroke="none" /><path d="M 119.4528033332814 107.91128576633889 l 27.153159500787687 11.042953583054336 a50.312811102190615,50.312811102190615 0 0,0 -0.33224221850436275,0.7972603758776661 l -26.95959143774684 -11.50744646837328" fill="#ff730a" stroke="none" /><path d="M 119.16976305983485 108.57439118712176 l 26.71102780295143 11.947502985702751 a50.26126849409336,50.26126849409336 0 0,0 -0.35904624239072025,0.7845808371537875 l -26.501997095705654 -12.404272805071228" fill="#ff720a" stroke="none" /><path d="M 119.0197475246899 108.90220220490707 l 44.15312555892171 20.665892183580926 a69.75015483426998,69.75015483426998 0 0,0 -0.516884326320006,1.0800894443394229 l -43.79186197464179 -21.420794129985453" fill="#31ff3d" stroke="none" /><path d="M 118.8641267826498 109.22738970284198 l 21.936389660429686 10.7301874294202 a45.420116985892875,45.420116985892875 0 0,0 -0.348610399891404,0.6974543246317332 l -21.74895934732655 -11.10517361021568" fill="#ff0500" stroke="none" /><path d="M 118.5362547648365 109.86951160357373 l 51.3130473111595 27.321307474308615 a79.13331804105977,79.13331804105977 0 0,0 -0.648722319101754,1.1935760000296503 l -50.836479642442406 -28.19813830781287" fill="#43ffe2" stroke="none" /><line stroke="#e1ed5e" stroke-width="0.3" x1="174.33088141563837" x2="178.70328620479359" y1="141.23008692659167" y2="143.65538615756765" /><path d="M 175.20536237346943 141.71514677278685 a86.0,86.0 0 0,1 -30.301960400862466,31.631185727798858" fill="none" id="id149" stroke="none" /><text fill="#e1ed5e" style="font-size:6.75px; font-family:Arial;" text-anchor="middle"><textPath startOffset="22.145653131862474" xlink:href="#id149">May</textPath></text><path d="M 118.36410011445183 110.18625677009912 l 25.624649020810175 14.213560857481351 a50.30269526321826,50.30269526321826 0 0,0 -0.42533715848784376,0.7515300040286503 l -25.376878497300954 -14.651347631609124" fill="#ff720a" stroke="none" /><path d="M 118.18653347947321 110.5 l 25.331824119143295 14.625335474251628 a50.25067094850327,50.25067094850327 0 0,0 -0.43772232381427084,0.7433482010770388 l -25.07702808519926 -15.058034843622217" fill="#ff710a" stroke="none" /><path d="M 117.81537515405839 111.11811171558189 l 51.58510427966382 32.19292028832705 a81.80630806285126,81.80630806285126 0 0,0 -0.7537177773125731,1.1849695351306313 l -51.02486881072536 -33.073703498136354" fill="#49f2ff" stroke="none" /><path d="M 117.423217284605 111.72311816256416 l 24.270207960596576 16.33007906085637 a50.25259777497419,50.25259777497419 0 0,0 -0.4877140561062541,0.711589383370177 l -23.986304167675 -16.74430317929659" fill="#ff710a" stroke="none" /><path d="M 117.21940702142032 112.02048342749411 l 23.96892479139464 16.732171024902517 a50.231402683794016,50.231402683794016 0 0,0 -0.499646742871723,0.7028157163249534 l -23.678162949992956 -17.141163967936976" fill="#ff710a" stroke="none" /><path d="M 117.01052211995028 112.31430620078461 l 39.28320506819853 28.43801103498547 a69.49629544672555,69.49629544672555 0 0,0 -0.707862725831438,0.9603517365631336 l -38.789240322783265 -29.10816908081748" fill="#30ff38" stroke="none" /><path d="M 116.79662413953412 112.60449989151573 l 23.3831200602896 17.54712922161004 a50.23477463011813,50.23477463011813 0 0,0 -0.5235133855168337,0.6852958266469804 l -23.078454697418458 -17.9459459614979" fill="#ff710a" stroke="none" /><path d="M 116.57777611688842 112.89097897827486 l 23.10279183863834 17.964870669712358 a50.265603853652934,50.265603853652934 0 0,0 -0.5355287126730974,0.676623034119664 l -22.79099669532368 -18.358813647746704" fill="#ff720a" stroke="none" /><path d="M 116.1254893667686 113.45245675266167 l 41.55268033019118 34.66472380373334 a75.1134763160913,75.1134763160913 0 0,0 -0.834494398972557,0.9830323036833519 l -40.951491367711505 -35.372922889866246" fill="#3bff9f" stroke="none" /><path d="M 115.89218393027572 113.72728997021213 l 22.136049657027925 19.120592473017332 a50.25067094850327,50.25067094850327 0 0,0 -0.5694811292572147,0.6479649868856869 l -21.804557463812124 -19.497769737714314" fill="#ff710a" stroke="none" /><path d="M 115.6541949942343 113.99807769240083 l 25.387481139749042 22.701642182140866 a55.057139580227094,55.057139580227094 0 0,0 -0.6360470784396491,0.6991271582534775 l -24.994036360467515 -23.134106915952014" fill="#ffd614" stroke="none" /><path d="M 115.16444852881244 114.52719865689866 l 45.49334558643733 43.58159597069598 a84.0,84.0 0 0,0 -1.0064527953967715,1.0327092317290507 l -44.738505989889745 -44.356127894492765" fill="#4dd2ff" stroke="none" /><path d="M 114.91283532996324 114.78537596483092 l 20.78971366391826 20.61202487126045 a50.2757196926253,50.2757196926253 0 0,0 -0.6129043077425294,0.6076658408632772 l -20.432817436045763 -20.96587072235239" fill="#ff720a" stroke="none" /><line stroke="#e1ed5e" stroke-width="0.3" x1="143.1302829299769" x2="145.66735839644613" y1="173.24464959558577" y2="177.55315839532614" /><path d="M 143.63769802327073 174.10635135553383 a86.0,86.0 0 0,1 -40.68552437913181,11.842963189579606" fill="none" id="id150" stroke="none" /><text fill="#e1ed5e" style="font-size:6.75px; font-family:Arial;" text-anchor="middle"><textPath startOffset="21.407464694133747" xlink:href="#id150">June</textPath></text><line stroke="#e1ed5e" stroke-width="0.3" x1="101.45913802915013" x2="101.54496967792366" y1="184.9874750549273" y2="189.98673829345242" /><path d="M 101.47630435890484 185.9873277026323 a86.0,86.0 0 0,1 -42.54439059252881,-10.42667462771756" fill="none" id="id151" stroke="none" /><text fill="#e1ed5e" style="font-size:6.75px; font-family:Arial;" text-anchor="middle"><textPath startOffset="22.145653131862474" xlink:href="#id151">July</textPath></text><line stroke="#e1ed5e" stroke-width="0.3" x1="58.13341422392154" x2="55.67067388415222" y1="173.97424548756322" y2="178.32567169271397" /><path d="M 57.64086615596768 174.84453072859336 a86.0,86.0 0 0,1 -31.369924170532247,-30.572349798747897" fill="none" id="id152" stroke="none" /><text fill="#e1ed5e" style="font-size:6.75px; font-family:Arial;" text-anchor="middle"><textPath startOffset="22.145653131862474" xlink:href="#id152">August</textPath></text><line stroke="#e1ed5e" stroke-width="0.3" x1="26.387840678322732" x2="22.057713659400548" y1="142.50000000000003" y2="145.00000000000006" /><path d="M 25.521815274538298 143.00000000000003 a86.0,86.0 0 0,1 -11.493303480769221,-40.785679425670985" fill="none" id="id153" stroke="none" /><text fill="#e1ed5e" style="font-size:6.75px; font-family:Arial;" text-anchor="middle"><textPath startOffset="21.40746469413373" xlink:href="#id153">September</textPath></text><line stroke="#e1ed5e" stroke-width="0.3" x1="15.003131293944662" x2="10.003315487706104" y1="100.72959589197737" y2="100.7725132973878" /><path d="M 14.003168132696942 100.73817937305945 a86.0,86.0 0 0,1 10.791469493833604,-42.45332614584628" fill="none" id="id154" stroke="none" /><text fill="#e1ed5e" style="font-size:6.75px; font-family:Arial;" text-anchor="middle"><textPath startOffset="22.145653131862435" xlink:href="#id154">October</textPath></text><line stroke="#e1ed5e" stroke-width="0.3" x1="26.387840678322718" x2="22.05771365940052" y1="57.49999999999999" y2="54.99999999999999" /><path d="M 25.521815274538284 56.99999999999999 a86.0,86.0 0 0,1 29.574782752854787,-30.34633250058573" fill="none" id="id155" stroke="none" /><text fill="#e1ed5e" style="font-size:6.75px; font-family:Arial;" text-anchor="middle"><textPath startOffset="21.40746469413373" xlink:href="#id155">November</textPath></text><line stroke="#e1ed5e" stroke-width="0.3" x1="56.869717070023135" x2="54.33264160355391" y1="26.7553504044142" y2="22.446841604673864" /><path d="M 56.362301976729285 25.89364864446614 a86.0,86.0 0 0,1 42.16139366436587,-11.88097634709845" fill="none" id="id156" stroke="none" /><text fill="#e1ed5e" style="font-size:6.75px; font-family:Arial;" text-anchor="middle"><textPath startOffset="22.145653131862474" xlink:href="#id156">December</textPath></text></svg>