<?xml version="1.0" encoding="utf-8" ?>
<svg baseProfile="full" height="200mm" version="1.1" viewBox="0,0,200,200" width="200mm" xmlns="http://www.w3.org/2000/svg" xmlns:ev="http://www.w3.org/2001/xml-events" xmlns:xlink="http://www.w3.org/1999/xlink"><defs /><rect fill="#1a1a1a" height="200" width="200" x="0" y="0" /><text alignment-baseline="middle" fill="#e1ed5e" style="dominant-baseline: central; font-size:9.0px; font-family:Arial;" text-anchor="middle" x="100.0" y="100.0">2024</text><line stroke="#e1ed5e" stroke-width="0.3" x1="100.0" x2="100.0" y1="15.0" y2="10.0" /><path d="M 100.0 14.0 a86.0,86.0 0 0,1 42.35913384403234,11.155469271406648" fill="none" id="id145" stroke="none" /><text fill="#e1ed5e" style="font-size:6.75px; font-family:Arial;" text-anchor="middle"><textPath startOffset="22.145653131862478" xlink:href="#id145">January</textPath></text><line stroke="#e1ed5e" stroke-width="0.3" x1="143.13028292997686" x2="145.6673583964461" y1="26.7553504044142" y2="22.446841604673864" /><path d="M 143.63769802327073 25.89364864446614 a86.0,86.0 0 0,1 29.32050498858742,28.57503671076993" fill="none" id="id146" stroke="none" /><text fill="#e1ed5e" style="font-size:6.75px; font-family:Arial;" text-anchor="middle"><textPath startOffset="20.669276256404974" xlink:href="#id146">February</textPath></text><line stroke="#e1ed5e" stroke-width="0.3" x1="172.87174338648825" x2="177.1583165268699" y1="56.24261187166439" y2="53.66864786411523" /><path d="M 173.72905801456457 55.72781907015455 a86.0,86.0 0 0,1 12.242430191666344,42.057860355516425" fill="none" id="id147" stroke="none" /><text fill="#e1ed5e" style="font-size:6.75px; font-family:Arial;" text-anchor="middle"><textPath startOffset="22.145653131862474" xlink:href="#id147">March</textPath></text><path d="M 119.31412917781788 91.75594674310238 l 16.84430081357401 -7.189830393274658 a39.31458792826707,39.31458792826707 0 0,0 0.2596151084927909,0.6229817508209365 l -16.96524176660328 6.899616133012443" fill="#ff0000" stroke="none" /><path d="M 119.4528033332814 92.08871423366111 l 16.970295959781012 -6.9016716293777876 a39.32004411136387,39.32004411136387 0 0,0 0.24891708402643567,0.6274336564207511 l -17.086271718773574 6.609336955743471" fill="#ff0100" stroke="none" /><path d="M 119.58574465831526 92.42381321644754 l 17.059471054308506 -6.5989698829845365 a39.29130821372071,39.29130821372071 0 0,0 0.23793565702737693,0.6311525987217059 l -17.170237395150323 6.3051490040686735" fill="#ff0000" stroke="none" /><path d="M 119.83427380445688 93.10060997987247 l 17.428137896966938 -6.062411049741613 a39.45244748784628,39.45244748784628 0 0,0 0.21701584949985575,0.641568797856932 l -17.52963916803916 5.762340577410519" fill="#ff0300" stroke="none" /><path d="M 119.94978838288452 93.4421083053983 l 17.43253832618896 -5.7304216020265715 a39.35023499116618,39.35023499116618 0 0,0 0.2054368665470583,0.6435280584517713 l -17.528339908513274 5.430324509883413" fill="#ff0100" stroke="none" /><path d="M 120.05942366710727 93.78553927170692 l 17.507840145299625 -5.423973630837998 a39.32877400431876,39.32877400431876 0 0,0 0.19425357949874375,0.6466069885985692 l -17.598370044801996 5.1226290386487054" fill="#ff0100" stroke="none" /><path d="M 120.26092885502905 94.47779374421319 l 17.705823091385454 -4.825800817855107 a39.35168997332533,39.35168997332533 0 0,0 0.1720428136982042,0.6532745862180321 l -17.78605538588839 4.521145727264276" fill="#ff0100" stroke="none" /><path d="M 120.35273937422433 94.82641323984039 l 17.785350317491265 -4.5209665016348755 a39.350962482245755,39.350962482245755 0 0,0 0.16080016307457778,0.6561195385344635 l -17.86033800708213 4.2149911384923175" fill="#ff0100" stroke="none" /><path d="M 120.43855184770803 95.1765574152323 l 17.86848048030637 -4.216912740002432 a39.35932862966085,39.35932862966085 0 0,0 0.14954509147758638,0.6589232659714033 l -17.938236433341622 3.909555140092003" fill="#ff0100" stroke="none" /><path d="M 120.592083275326 95.88100663000786 l 18.051214375702486 -3.6107484288836815 a39.40879802307185,39.40879802307185 0 0,0 0.12699711804404176,0.6645025854804728 l -18.110537786028686 3.3003432783698945" fill="#ff0200" stroke="none" /><path d="M 120.65975698304385 96.23510406497455 l 18.098012961935922 -3.29806083819635 a39.39606692917932,39.39606692917932 0 0,0 0.1155339986629362,0.6663694023224346 l -18.151961778091092 2.9868984029533228" fill="#ff0200" stroke="none" /><path d="M 120.7213421655516 96.59031103205396 l 36.114055486015495 -5.942554087213992 a57.59971246781141,57.59971246781141 0 0,0 0.1521688619513876,0.9770332523040635 l -36.21074584010515 5.321732652978487" fill="#b5ff20" stroke="none" /><path d="M 120.82617615685814 97.30363454192243 l 18.297185424106946 -2.3689369755645657 a39.44990126906777,39.44990126906777 0 0,0 0.08118773476720745,0.67235090994983 l -18.335155245133816 2.0544923886913224" fill="#ff0300" stroke="none" /><path d="M 120.86939407059847 97.66154086499901 l 21.875161067372595 -2.4511574248187253 a43.01206134020023,43.01206134020023 0 0,0 0.07592162896728794,0.7344728897088076 l -21.91401508882155 2.0752800128269864" fill="#ff4a06" stroke="none" /><path d="M 120.9064616781168 98.02013634271609 l 18.293123791240344 -1.7323778423195577 a39.37496968787168,39.37496968787168 0 0,0 0.057949412830399116,0.6734600177192765 l -18.32016682676848 1.4180967772246191" fill="#ff0200" stroke="none" /><path d="M 120.96210409425399 98.7389718711861 l 18.365048529787305 -1.1047957151134709 a39.398249402418045,39.398249402418045 0 0,0 0.034817566052495925,0.6754514798308983 l -18.381307685296374 0.789372441905842" fill="#ff0200" stroke="none" /><path d="M 120.98066250479742 99.09900007780936 l 18.37767357938785 -0.7892163777615346 a39.394611947020174,39.394611947020174 0 0,0 0.02321526921343241,0.6758872330685165 l -18.388513535598133 0.47362288012889825" fill="#ff0200" stroke="none" /><path d="M 120.99303781780057 99.45929381324524 l 18.384150036242243 -0.4735104918638883 a39.39024700054273,39.39024700054273 0 0,0 0.011608058948014238,0.6761112386707552 l -18.38956952678892 0.15785233722406672" fill="#ff0200" stroke="none" /><line stroke="#e1ed5e" stroke-width="0.3" x1="184.99686870605535" x2="189.99668451229388" y1="99.2704041080226" y2="99.22748670261217" /><path d="M 185.99683186730306 99.26182062694052 a86.0,86.0 0 0,1 -10.086455211305974,41.156179273409016" fill="none" id="id148" stroke="none" /><text fill="#e1ed5e" style="font-size:6.75px; font-family:Arial;" text-anchor="middle"><textPath startOffset="21.40746469413373" xlink:href="#id148">April</textPath></text><path d="M 120.99922638620191 100.18025310272382 l 18.379021294733125 0.15776179333824028 a39.37969837988891,39.37969837988891 0 0,0 -0.011604950335607203,0.6759301775827968 l -18.373604912798847 -0.4732388868901082" fill="#ff0200" stroke="none" /><path d="M 120.99303781780057 100.54070618675476 l 18.391786160115046 0.47370717132764917 a39.39788565687825,39.39788565687825 0 0,0 -0.023217198412683222,0.6759433995996529 l -18.380944274705517 -0.7893568354914128" fill="#ff0200" stroke="none" /><path d="M 120.77682067341334 103.0534771498775 l 18.148738436244674 2.6672395639959188 a39.34368757145002,39.34368757145002 0 0,0 -0.10393948001153505,0.6673660228260573 l -18.10027746409487 -2.9783937687534268" fill="#ff0100" stroke="none" /><path d="M 120.7213421655516 103.40968896794604 l 21.735048629648876 3.576493980852691 a43.02733865287128,43.02733865287128 0 0,0 -0.12618316684573896,0.7277909744945315 l -21.670450645310904 -3.9490779882678106" fill="#ff4a06" stroke="none" /><path d="M 120.65975698304385 103.76489593502545 l 18.12127334953678 3.302299655661503 a39.41971038926546,39.41971038926546 0 0,0 -0.12703228377167056,0.6646865874270715 l -18.061914773482947 -3.612888808121889" fill="#ff0300" stroke="none" /><path d="M 120.51834098615036 104.47187691870673 l 17.92864056260479 3.907463764727298 a39.34950750008661,39.34950750008661 0 0,0 -0.1495077762648641,0.6587588482590284 l -17.858921924782265 -4.214656946925343" fill="#ff0100" stroke="none" /><path d="M 120.43855184770803 104.8234425847677 l 21.481614468418954 5.069602523143218 a43.07171560872527,43.07171560872527 0 0,0 -0.176004307312923,0.7181576354538836 l -21.391422634589738 -5.437615983205202" fill="#ff4b07" stroke="none" /><path d="M 120.35273937422433 105.17358676015961 l 21.385429553214177 5.436092565355296 a43.0655319345489,43.0655319345489 0 0,0 -0.18827946887292396,0.7149278105685416 l -21.288960603536523 -5.802400880296641" fill="#ff4b07" stroke="none" /><path d="M 120.16314734710363 105.8691983318838 l 21.184820698517523 6.1665925544534135 a43.064076952389755,43.064076952389755 0 0,0 -0.21270307319755913,0.7080193527493134 l -21.075841305316334 -6.52934951079345" fill="#ff4b06" stroke="none" /><path d="M 120.05942366710727 106.21446072829308 l 21.098425790212726 6.5363462419451785 a43.087720412475896,43.087720412475896 0 0,0 -0.2249492606634273,0.7046503551091474 l -20.983111813772044 -6.897565630745709" fill="#ff4b07" stroke="none" /><path d="M 119.94978838288452 106.5578916946017 l 17.491628162332674 5.74984560484029 a39.412435478469725,39.412435478469725 0 0,0 -0.2167957556715141,0.6409181295615525 l -17.390346985088794 -6.049265408876003" fill="#ff0200" stroke="none" /><path d="M 119.71291397450082 107.23885506374661 l 20.702896109110977 7.602390216256845 a43.05461956835529,43.05461956835529 0 0,0 -0.26072507281605456,0.6916042316466433 l -20.56934035248048 -7.956662728097647" fill="#ff4b06" stroke="none" /><path d="M 119.58574465831526 107.57618678355244 l 20.590373785351797 7.964798911781873 a43.077171791822074,43.077171791822074 0 0,0 -0.2727017284150816,0.6873864975598155 l -20.45061338197059 -8.317086426555253" fill="#ff4b07" stroke="none" /><path d="M 119.4528033332814 107.91128576633889 l 20.50385088344276 8.338737654936903 a43.1346435871084,43.1346435871084 0 0,0 -0.28484096526961705,0.6835146239346163 l -20.357684073636655 -8.689484788312797" fill="#ff4c07" stroke="none" /><path d="M 119.16976305983485 108.57439118712176 l 20.169989094614277 9.02177957011706 a43.095722814351205,43.095722814351205 0 0,0 -0.3078584724025269,0.6727263218079106 l -20.012146157356693 -9.36669487413966" fill="#ff4b07" stroke="none" /><path d="M 119.0197475246899 108.90220220490707 l 33.340838382796434 15.605195840769706 a57.812139863046916,57.812139863046916 0 0,0 -0.4284175287815578,0.8952278624917388 l -33.06804159605496 -16.17523620532655" fill="#b1ff20" stroke="none" /><path d="M 118.8641267826498 109.22738970284198 l 16.564571887315658 8.10256217136873 a39.44008013949353,39.44008013949353 0 0,0 -0.3027121685628476,0.6056271159683616 l -16.42303980554108 -8.385721143500838" fill="#ff0300" stroke="none" /><path d="M 118.5362547648365 109.86951160357373 l 38.74742717923992 20.630822515430044 a64.89753923255466,64.89753923255466 0 0,0 -0.5320196751145367,0.9788562795859044 l -38.38756215451005 -21.29293362849055" fill="#49ff2c" stroke="none" /><line stroke="#e1ed5e" stroke-width="0.3" x1="174.33088141563837" x2="178.70328620479359" y1="141.23008692659167" y2="143.65538615756765" /><path d="M 175.20536237346943 141.71514677278685 a86.0,86.0 0 0,1 -30.301960400862466,31.631185727798858" fill="none" id="id149" stroke="none" /><text fill="#e1ed5e" style="font-size:6.75px; font-family:Arial;" text-anchor="middle"><textPath startOffset="22.145653131862474" xlink:href="#id149">May</textPath></text><path d="M 118.36410011445183 110.18625677009912 l 19.349644465794405 10.732921608481037 a43.12700493077288,43.12700493077288 0 0,0 -0.3646627210601793,0.6443240868062734 l -19.162548379712845 -11.063502465386433" fill="#ff4c07" stroke="none" /><path d="M 118.18653347947321 110.5 l 19.128526988892226 11.043860206237943 a43.087720412475896,43.087720412475896 0 0,0 -0.3753274682866758,0.6373880955728485 l -18.936125810475787 -11.370599470104342" fill="#ff4b07" stroke="none" /><path d="M 117.81537515405839 111.11811171558189 l 38.95286240727855 24.309467083389254 a66.91596323283179,66.91596323283179 0 0,0 -0.6165264301602558,0.9692819505301046 l -38.52981828549241 -24.97456270859803" fill="#30ff32" stroke="none" /><path d="M 117.423217284605 111.72311816256416 l 18.326881073260797 12.331143488805301 a43.08917539463504,43.08917539463504 0 0,0 -0.418191246551971,0.6101535265161423 l -18.112500089893505 -12.643931750391488" fill="#ff4b07" stroke="none" /><path d="M 117.21940702142032 112.02048342749411 l 18.099376602746844 12.634770537141744 a43.07317059088442,43.07317059088442 0 0,0 -0.4284445235656709,0.6026608779727759 l -17.879816980651213 -12.943608641824024" fill="#ff4b07" stroke="none" /><path d="M 117.01052211995028 112.31430620078461 l 29.663471719328996 21.474065943085797 a57.62044596357926,57.62044596357926 0 0,0 -0.5868998582042271,0.7962423750354422 l -29.29046984154094 -21.980114627390115" fill="#b4ff20" stroke="none" /><path d="M 116.79662413953412 112.60449989151573 l 17.657024660128727 13.25016048250135 a43.07571680966293,43.07571680966293 0 0,0 -0.4489064498971754,0.5876329530060393 l -17.426966232877245 -13.551314348748267" fill="#ff4b07" stroke="none" /><path d="M 116.57777611688842 112.89097897827486 l 17.445343656487463 13.565604744502425 a43.098996524209284,43.098996524209284 0 0,0 -0.4591758251489653,0.5801536549849698 l -17.209901400696936 -13.863078343402078" fill="#ff4b07" stroke="none" /><path d="M 116.1254893667686 113.45245675266167 l 31.377194291989827 26.175971446963967 a61.86208270303353,61.86208270303353 0 0,0 -0.6872742955900104,0.8096073920783967 l -30.923225432892703 -26.71074562149192" fill="#74ff27" stroke="none" /><path d="M 115.89218393027572 113.72728997021213 l 16.71533882836059 14.438311565858566 a43.087720412475896,43.087720412475896 0 0,0 -0.4883047970197655,0.5556012221332474 l -16.465022967382236 -14.723125065803107" fill="#ff4b07" stroke="none" /><path d="M 115.6541949942343 113.99807769240083 l 19.17055463031951 17.142428161937744 a46.71717340846892,46.71717340846892 0 0,0 -0.5396996990030073,0.5932245106759519 l -18.873457230474624 -17.468990248171366" fill="#ff900d" stroke="none" /><path d="M 115.16444852881244 114.52719865689866 l 34.35286321159716 32.90926586350577 a68.57246042102102,68.57246042102102 0 0,0 -0.821606481880608,0.8430406299900399 l -33.782869928565745 -33.494129185563544" fill="#32ff4d" stroke="none" /><path d="M 114.91283532996324 114.78537596483092 l 15.698695721287486 15.56451964103395 a43.106635180544814,43.106635180544814 0 0,0 -0.5255069953442564,0.5210155095525092 l -15.429196805813264 -15.831715160815122" fill="#ff4c07" stroke="none" /><path d="M 114.65682725009322 115.03919595460226 l 35.725413471178086 36.65742145857778 a72.18663610434301,72.18663610434301 0 0,0 -0.8948651205137584,0.8572605427842094 l -35.09087586479902 -37.26529413166757" fill="#39ff87" stroke="none" /><path d="M 114.13192950727249 115.5334660781643 l 14.843592974301156 16.315708893518682 a43.057529532673584,43.057529532673584 0 0,0 -0.5510030497149833,0.49271032470854964 l -14.561324897762795 -16.56811474811062" fill="#ff4b06" stroke="none" /><path d="M 113.86319453409587 115.77377054828091 l 14.583176490205023 16.59297784906838 a43.090630376794195,43.090630376794195 0 0,0 -0.5598099141306424,0.4835504706707441 l -14.296187096311526 -16.84087245220384" fill="#ff4b07" stroke="none" /><path d="M 113.59037401385872 116.0094264158162 l 23.709199123451015 27.92937695149208 a57.635723276250296,57.635723276250296 0 0,0 -0.7597641653337501,0.6338222886703349 l -23.22626062395537 -28.332261424074286" fill="#b4ff20" stroke="none" /><path d="M 113.03279911837588 116.46651593811092 l 13.711460622831078 17.323982578867874 a43.09354034111249,43.09354034111249 0 0,0 -0.5839996681686249,0.454121674258339 l -13.412051010027222 -17.556805304747005" fill="#ff4b07" stroke="none" /><path d="M 112.7482090630111 116.68781488649013 l 22.267153491202606 29.148418705213995 a57.68046397764409,57.68046397764409 0 0,0 -0.7919994945806611,0.5943311858735989 l -21.763501007711177 -29.52636891835161" fill="#b4ff20" stroke="none" /><path d="M 112.45986205192187 116.90419585922612 l 24.777426807462138 33.615338106923524 a62.76017044076722,62.76017044076722 0 0,0 -0.8727219790890671,0.6317834104605905 l -24.196723817999104 -34.03572228875719" fill="#67ff28" stroke="none" /><path d="M 111.8722381534696 117.32195027204791 l 12.473602749598822 18.199359189799143 a43.06371320684997,43.06371320684997 0 0,0 -0.613357927071187,0.41269458662805775 l -12.159348534430631 -18.41080345048432" fill="#ff4b06" stroke="none" /><path d="M 111.5731344415666 117.5232005979908 l 12.169371572607945 18.425979607770767 a43.081900483839306,43.081900483839306 0 0,0 -0.620613994573099,0.4022744932367224 l -11.851271945777837 -18.632167942711384" fill="#ff4b07" stroke="none" /><path d="M 111.27062007382361 117.71928675628689 l 13.80484695955547 21.703512344554873 a46.72190210048615,46.72190210048615 0 0,0 -0.6804396968335157,0.4246446959265004 l -13.430243133932239 -21.93729283732292" fill="#ff900d" stroke="none" /><line stroke="#e1ed5e" stroke-width="0.3" x1="143.1302829299769" x2="145.66735839644613" y1="173.24464959558577" y2="177.55315839532614" /><path d="M 143.63769802327073 174.10635135553383 a86.0,86.0 0 0,1 -40.68552437913181,11.842963189579606" fill="none" id="id150" stroke="none" /><text fill="#e1ed5e" style="font-size:6.75px; font-family:Arial;" text-anchor="middle"><textPath startOffset="21.407464694133747" xlink:href="#id150">June</textPath></text><path d="M 110.65571695917076 118.09573695890943 l 13.057587593277546 22.174638394698665 a46.73354195775933,46.73354195775933 0 0,0 -0.6947887525130743,0.4011364732933492 l -12.675006372904074 -22.395521765268185" fill="#ff900d" stroke="none" /><path d="M 110.34350942703117 118.27599006163325 l 17.99827255546882 31.801223044346127 a57.54114943590572,57.54114943590572 0 0,0 -0.8638181799927593,0.47914538307060195 l -17.449710187319965 -32.10550134284987" fill="#b6ff1f" stroke="none" /><path d="M 109.71004243097381 118.62028667847754 l 10.207435567428037 19.574103601371878 a43.07571680966293,43.07571680966293 0 0,0 -0.6585923844170201,0.33628196413985617 l -9.869915961297435 -19.74644351718457" fill="#ff4b07" stroke="none" /><path d="M 108.73861861582097 119.09545874513695 l 10.716233226068885 23.416903571141802 a46.752456725828246,46.752456725828246 0 0,0 -0.7326479472401131,0.32770410789483145 l -10.312671875973145 -23.597411429946483" fill="#ff900d" stroke="none" /><path d="M 107.74402155503746 119.51999308798841 l 20.219641263865878 50.9667044322112 a75.83100266746729,75.83100266746729 0 0,0 -1.2141184028442698,0.4696470804540638 l -19.34175059852808 -51.3062914008033" fill="#3fffbd" stroke="none" /><path d="M 107.06938296918513 119.77432235084164 l 8.666053386791466 24.24049367914926 a46.742999341793784,46.742999341793784 0 0,0 -0.7578914987230537,0.26363400516606667 l -8.24865611602339 -24.385686116883917" fill="#ff900d" stroke="none" /><path d="M 106.38641147887787 120.00534299687104 l 6.730477839398264 21.083125970714867 a43.13136987725032,43.13136987725032 0 0,0 -0.7072710111576098,0.21911436719422758 l -6.36756619536903 -21.195556925715742" fill="#ff4c07" stroke="none" /><path d="M 105.69591212413111 120.21278271476187 l 6.987800690813417 24.797239483223343 a46.76300534648206,46.76300534648206 0 0,0 -0.7745258575093692,0.21110046662768298 l -6.561093432369353 -24.91354044399517" fill="#ff900d" stroke="none" /><path d="M 104.9986988182912 120.39639698878246 l 5.253543046085469 21.43624840398904 a43.07062437210592,43.07062437210592 0 0,0 -0.7196236766914035,0.1698292282654882 l -4.884787215654186 -21.523273775900755" fill="#ff4b07" stroke="none" /><path d="M 104.64783097203109 120.47920084513623 l 4.9000028657260195 21.590316737593103 a43.139372279125624,43.139372279125624 0 0,0 -0.7235861066746024,0.15770222413786417 l -4.528654342432282 -21.671250419864684" fill="#ff4c07" stroke="none" /><path d="M 103.94208987418118 120.62667999033965 l 4.153376495862856 21.73222087620625 a43.125549948613724,43.125549948613724 0 0,0 -0.7283397458705847,0.13272776397109964 l -3.779702016441215 -21.80031681410871" fill="#ff4c07" stroke="none" /><path d="M 103.2317021107853 120.74984581791261 l 3.397860538114392 21.816702115378597 a43.07971801060059,43.07971801060059 0 0,0 -0.7316882796134121,0.10753298003345177 l -3.0228471528932945 -21.87181616871093" fill="#ff4b07" stroke="none" /><path d="M 102.15924093988457 120.88869738790638 l 5.746726546543545 55.594366327740104 a76.89059342486632,76.89059342486632 0 0,0 -1.314098454846181,0.12444648993694625 l -4.79152852831235 -55.68482457318223" fill="#41ffcd" stroke="none" /><line stroke="#e1ed5e" stroke-width="0.3" x1="101.45913802915013" x2="101.54496967792366" y1="184.9874750549273" y2="189.98673829345242" /><path d="M 101.47630435890484 185.9873277026323 a86.0,86.0 0 0,1 -42.54439059252881,-10.42667462771756" fill="none" id="id151" stroke="none" /><text fill="#e1ed5e" style="font-size:6.75px; font-family:Arial;" text-anchor="middle"><textPath startOffset="22.145653131862474" xlink:href="#id151">July</textPath></text><path d="M 100.36049292484886 120.99690560180557 l 0.3795334985074266 22.105923560704152 a43.10918139932332,43.10918139932332 0 0,0 -0.7400264233562762,0.006352236813601577 l -2.70759382324495e-15 -22.10918139932332" fill="#ff4c07" stroke="none" /><path d="M 99.27912038922189 120.98762331915562 l -0.7578813067550649 22.06488732513313 a43.077899282901654,43.077899282901654 0 0,0 -0.7388356956729895,-0.031728783786539476 l 1.1365427630288931 -22.048625972920764" fill="#ff4b07" stroke="none" /><path d="M 97.48249496171623 120.84855314841334 l -4.397995455712876 36.42171142085113 a57.68628390628068,57.68628390628068 0 0,0 -0.982101231866643,-0.12715266681678372 l 5.022574509470313 -36.34084715783395" fill="#b3ff20" stroke="none" /><path d="M 97.12497278360702 120.80226474461374 l -5.0990657242253254 36.894299483745215 a58.24499705539325,58.24499705539325 0 0,0 -0.9892632463625282,-0.14538763006445088 l 5.731654076195539 -36.80133078038188" fill="#abff21" stroke="none" /><path d="M 96.76829788921471 120.74984581791261 l -5.640019709366439 36.21297241127965 a57.64954560676221,57.64954560676221 0 0,0 -0.9765352529092259,-0.16068850425096448 l 6.260832465328729 -36.11081790853302" fill="#b4ff20" stroke="none" /><path d="M 94.6519064749342 120.30758222061772 l -9.335063003751749 35.44675473509088 a57.6553655353988,57.6553655353988 0 0,0 -0.9549337366247844,-0.26027143631878735 l 9.94217814131123 -35.28128280462794" fill="#b4ff20" stroke="none" /><path d="M 93.61358852112213 120.00534299687104 l -11.154962531842946 34.942761252516924 a57.6801002321043,57.6801002321043 0 0,0 -0.9406725152235634,-0.3092177398842545 l 11.753157784714253 -34.74612259123065" fill="#b4ff20" stroke="none" /><path d="M 92.93061703081489 119.77432235084164 l -12.35621594916565 34.56253512936746 a57.704834928809795,57.704834928809795 0 0,0 -0.9299020067579788,-0.34147289736643704 l 12.947707107577749 -34.345331382992306" fill="#b3ff20" stroke="none" /><path d="M 92.25597844496254 119.51999308798841 l -13.556173577352235 34.17041296293327 a57.761215487476754,57.761215487476754 0 0,0 -0.918528582298118,-0.3735575780318546 l 14.140756620840794 -33.93266812832212" fill="#b2ff20" stroke="none" /><path d="M 90.93487009805054 118.94263497670748 l -27.19538970584839 56.82790493012245 a84.0,84.0 0 0,0 -1.2953590029517223,-0.6336249996111154 l 28.166908958062184 -56.35268618041412" fill="#4dd2ff" stroke="none" /><line stroke="#e1ed5e" stroke-width="0.3" x1="58.13341422392154" x2="55.67067388415222" y1="173.97424548756322" y2="178.32567169271397" /><path d="M 57.64086615596768 174.84453072859336 a86.0,86.0 0 0,1 -31.369924170532247,-30.572349798747897" fill="none" id="id152" stroke="none" /><text fill="#e1ed5e" style="font-size:6.75px; font-family:Arial;" text-anchor="middle"><textPath startOffset="22.145653131862474" xlink:href="#id152">August</textPath></text><line stroke="#e1ed5e" stroke-width="0.3" x1="26.387840678322732" x2="22.057713659400548" y1="142.50000000000003" y2="145.00000000000006" /><path d="M 25.521815274538298 143.00000000000003 a86.0,86.0 0 0,1 -11.493303480769221,-40.785679425670985" fill="none" id="id153" stroke="none" /><text fill="#e1ed5e" style="font-size:6.75px; font-family:Arial;" text-anchor="middle"><textPath startOffset="21.40746469413373" xlink:href="#id153">September</textPath></text><path d="M 79.407916724674 104.11899336999214 l -21.60196303918366 4.320997606095981 a43.029884871649784,43.029884871649784 0 0,0 -0.13866627866364123,-0.7255605647601415 l 21.672955610129456 -3.949534476302525" fill="#ff4a06" stroke="none" /><line stroke="#e1ed5e" stroke-width="0.3" x1="15.003131293944662" x2="10.003315487706104" y1="100.72959589197737" y2="100.7725132973878" /><path d="M 14.003168132696942 100.73817937305945 a86.0,86.0 0 0,1 10.791469493833604,-42.45332614584628" fill="none" id="id154" stroke="none" /><text fill="#e1ed5e" style="font-size:6.75px; font-family:Arial;" text-anchor="middle"><textPath startOffset="22.145653131862435" xlink:href="#id154">October</textPath></text><line stroke="#e1ed5e" stroke-width="0.3" x1="26.387840678322718" x2="22.05771365940052" y1="57.49999999999999" y2="54.99999999999999" /><path d="M 25.521815274538284 56.99999999999999 a86.0,86.0 0 0,1 29.574782752854787,-30.34633250058573" fill="none" id="id155" stroke="none" /><text fill="#e1ed5e" style="font-size:6.75px; font-family:Arial;" text-anchor="middle"><textPath startOffset="21.40746469413373" xlink:href="#id155">November</textPath></text><line stroke="#e1ed5e" stroke-width="0.3" x1="56.869717070023135" x2="54.33264160355391" y1="26.7553504044142" y2="22.446841604673864" /><path d="M 56.362301976729285 25.89364864446614 a86.0,86.0 0 0,1 42.16139366436587,-11.88097634709845" fill="none" id="id156" stroke="none" /><text fill="#e1ed5e" style="font-size:6.75px; font-family:Arial;" text-anchor="middle"><textPath startOffset="22.145653131862474" xlink:href="#id156">December</textPath></text></svg>