<?xml version="1.0" encoding="utf-8" ?>
<svg baseProfile="full" height="200mm" version="1.1" viewBox="0,0,200,200" width="200mm" xmlns="http://www.w3.org/2000/svg" xmlns:ev="http://www.w3.org/2001/xml-events" xmlns:xlink="http://www.w3.org/1999/xlink"><defs /><rect fill="#1a1a1a" height="200" width="200" x="0" y="0" /><text alignment-baseline="middle" fill="#e1ed5e" style="dominant-baseline: central; font-size:9.0px; font-family:Arial;" text-anchor="middle" x="100.0" y="100.0">2024</text><line stroke="#e1ed5e" stroke-width="0.3" x1="100.0" x2="100.0" y1="15.0" y2="10.0" /><path d="M 100.0 14.0 a86.0,86.0 0 0,1 42.35913384403234,11.155469271406648" fill="none" id="id145" stroke="none" /><text fill="#e1ed5e" style="font-size:6.75px; font-family:Arial;" text-anchor="middle"><textPath startOffset="22.145653131862478" xlink:href="#id145">January</textPath></text><line stroke="#e1ed5e" stroke-width="0.3" x1="143.13028292997686" x2="145.6673583964461" y1="26.7553504044142" y2="22.446841604673864" /><path d="M 143.63769802327073 25.89364864446614 a86.0,86.0 0 0,1 29.32050498858742,28.57503671076993" fill="none" id="id146" stroke="none" /><text fill="#e1ed5e" style="font-size:6.75px; font-family:Arial;" text-anchor="middle"><textPath startOffset="20.669276256404974" xlink:href="#id146">February</textPath></text><line stroke="#e1ed5e" stroke-width="0.3" x1="172.87174338648825" x2="177.1583165268699" y1="56.24261187166439" y2="53.66864786411523" /><path d="M 173.72905801456457 55.72781907015455 a86.0,86.0 0 0,1 12.242430191666344,42.057860355516425" fill="none" id="id147" stroke="none" /><text fill="#e1ed5e" style="font-size:6.75px; font-family:Arial;" text-anchor="middle"><textPath startOffset="22.145653131862474" xlink:href="#id147">March</textPath></text><path d="M 119.31412917781788 91.75594674310238 l 18.986932974360347 -8.104392653930505 a41.644243848151355,41.644243848151355 0 0,0 0.27499906407424496,0.6598976438840395 l -19.123257882971075 7.777262500605188" fill="#ff0100" stroke="none" /><path d="M 119.4528033332814 92.08871423366111 l 19.128954980652203 -7.779579460635162 a41.65039406975458,41.65039406975458 0 0,0 0.26366945599124986,0.66461927073471 l -19.25968311160958 7.4500591726868866" fill="#ff0100" stroke="none" /><path d="M 119.58574465831526 92.42381321644754 l 19.22947334359971 -7.438373385440937 a41.61800290264428,41.61800290264428 0 0,0 0.2520253795303761,0.6685272616206442 l -19.354329406944526 7.107177843626135" fill="#ff0000" stroke="none" /><path d="M 119.83427380445688 93.10060997987247 l 19.64503542058326 -6.833563086911077 a41.799639447326115,41.799639447326115 0 0,0 0.22992703472309614,0.6797384228021737 l -19.75944787687872 6.495322989634742" fill="#ff0400" stroke="none" /><path d="M 119.94978838288452 93.4421083053983 l 19.649995594093674 -6.4593438502847205 a41.68442529595908,41.68442529595908 0 0,0 0.21762303880876974,0.6817010694957342 l -19.7579833486797 6.1210737470976" fill="#ff0100" stroke="none" /><path d="M 120.05942366710727 93.78553927170692 l 19.734875970437308 -6.1139150222506515 a41.66023442431973,41.66023442431973 0 0,0 0.20576918209533374,0.6849386843958508 l -19.836921472536268 5.774238734264077" fill="#ff0100" stroke="none" /><path d="M 120.26092885502905 94.47779374421319 l 19.958042783295987 -5.439653310061431 a41.68606535505327,41.68606535505327 0 0,0 0.18224853825978032,0.6920273847029156 l -20.048480802360498 5.096245420985716" fill="#ff0100" stroke="none" /><path d="M 120.35273937422433 94.82641323984039 l 20.047686047710435 -5.096043397461535 a41.68524532550617,41.68524532550617 0 0,0 0.1703387623408045,0.6950402785956488 l -20.13221233656753 4.75114729425779" fill="#ff0100" stroke="none" /><path d="M 120.43855184770803 95.1765574152323 l 20.14139055031859 -4.7533133277120605 a41.69467566529778,41.69467566529778 0 0,0 0.15841820233174486,0.6980198295936517 l -20.220019614208002 4.406859164179382" fill="#ff0200" stroke="none" /><path d="M 120.592083275326 95.88100663000786 l 20.347368599655848 -4.070043581223901 a41.75043767450033,41.75043767450033 0 0,0 0.13454318648934097,0.7039868042512875 l -20.41423807842735 3.720154211939299" fill="#ff0300" stroke="none" /><path d="M 120.65975698304385 96.23510406497455 l 20.400120069125744 -3.717581440348913 a41.73608715742615,41.73608715742615 0 0,0 0.12239640689286213,0.705949949378626 l -20.46093129351084 3.366838458049694" fill="#ff0300" stroke="none" /><path d="M 120.7213421655516 96.59031103205396 l 40.707842880170986 -6.698460054781156 a62.255276499645305,62.255276499645305 0 0,0 0.16446808793904982,1.0560031060142607 l -40.8168324602483 5.998668766835454" fill="#80ff25" stroke="none" /><path d="M 120.82617615685814 97.30363454192243 l 20.624627707135392 -2.6702709761204244 a41.79676934391128,41.79676934391128 0 0,0 0.08601757962523296,0.7123489539218809 l -20.66742737302029 2.3158283452751305" fill="#ff0400" stroke="none" /><path d="M 120.86939407059847 97.66154086499901 l 24.657729732233012 -2.7629500475991593 a45.812044021268704,45.812044021268704 0 0,0 0.08086394606633453,0.7822853243334393 l -24.701526070781014 2.3392602009827885" fill="#ff5708" stroke="none" /><path d="M 120.9064616781168 98.02013634271609 l 20.620049425622966 -1.9527401191910527 a41.71230630056036,41.71230630056036 0 0,0 0.06138934650821534,0.7134372613609925 l -20.65053239482892 1.598481810454398" fill="#ff0200" stroke="none" /><path d="M 120.96210409425399 98.7389718711861 l 20.701123149317628 -1.245328163239396 a41.73854724606744,41.73854724606744 0 0,0 0.0368857664418456,0.7155740148601075 l -20.71945050521605 0.8897823550025579" fill="#ff0300" stroke="none" /><path d="M 120.98066250479742 99.09900007780936 l 20.71535413303233 -0.8896064391553844 a41.734447098331955,41.734447098331955 0 0,0 0.024594135516921006,0.7160314210194831 l -20.7275729555461 0.5338687535717813" fill="#ff0200" stroke="none" /><path d="M 120.99303781780057 99.45929381324524 l 20.722654409462134 -0.5337420692719425 a41.729526921049384,41.729526921049384 0 0,0 0.012297430081248643,0.7162636511354343 l -20.72876327114205 0.1779315021674417" fill="#ff0200" stroke="none" /><line stroke="#e1ed5e" stroke-width="0.3" x1="184.99686870605535" x2="189.99668451229388" y1="99.2704041080226" y2="99.22748670261217" /><path d="M 185.99683186730306 99.26182062694052 a86.0,86.0 0 0,1 -10.086455211305974,41.156179273409016" fill="none" id="id148" stroke="none" /><text fill="#e1ed5e" style="font-size:6.75px; font-family:Arial;" text-anchor="middle"><textPath startOffset="21.40746469413373" xlink:href="#id148">April</textPath></text><path d="M 120.99922638620191 100.18025310272382 l 20.71687328073769 0.17782944089992742 a41.71763649261648,41.71763649261648 0 0,0 -0.012293926046497431,0.7160595586783255 l -20.710767923092526 -0.5334359155473241" fill="#ff0200" stroke="none" /><path d="M 120.99303781780057 100.54070618675476 l 20.731261865109087 0.5339637667966535 a41.73813723129389,41.73813723129389 0 0,0 -0.02459631011456503,0.7160947320570782 l -20.719040867997673 -0.8897647634178424" fill="#ff0300" stroke="none" /><path d="M 120.77682067341334 103.0534771498775 l 20.45729793548258 3.0065183107714466 a41.67704503003521,41.67704503003521 0 0,0 -0.11010382239774222,0.706945522946364 l -20.402672620946568 -3.357252015649261" fill="#ff0100" stroke="none" /><path d="M 120.7213421655516 103.40968896794604 l 24.4997946838521 4.031431891962569 a45.82926464175773,45.82926464175773 0 0,0 -0.13440017272187343,0.775184480803738 l -24.426979693637996 -4.451409405686895" fill="#ff5808" stroke="none" /><path d="M 120.65975698304385 103.76489593502545 l 20.42633922925729 3.722359444731056 a41.762738117706775,41.762738117706775 0 0,0 -0.13458282537497215,0.7041942116507329 l -20.35943011160016 -4.072456221415103" fill="#ff0300" stroke="none" /><path d="M 120.51834098615036 104.47187691870673 l 20.20920312757984 4.404501761262316 a41.68360526641199,41.68360526641199 0 0,0 -0.15837614054178234,0.6978344975861539 l -20.130616125480394 -4.750770592787487" fill="#ff0100" stroke="none" /><path d="M 120.43855184770803 104.8234425847677 l 24.21412313915918 5.714467129202548 a45.8792864441306,45.8792864441306 0 0,0 -0.18747690721134397,0.7649697580737573 l -24.112458705431543 -6.129292711884404" fill="#ff5908" stroke="none" /><path d="M 120.35273937422433 105.17358676015961 l 24.105703290906057 6.127575511928869 a45.872316192980286,45.872316192980286 0 0,0 -0.2005505317317666,0.761523034973718 l -23.99696327836956 -6.5404790512753905" fill="#ff5808" stroke="none" /><path d="M 120.16314734710363 105.8691983318838 l 23.879576548078052 6.950996708467924 a45.87067613388609,45.87067613388609 0 0,0 -0.2265654920251592,0.7541628365190153 l -23.756734736049264 -7.359897148577663" fill="#ff5808" stroke="none" /><path d="M 120.05942366710727 106.21446072829308 l 23.782192017163762 7.367783879341249 a45.89732709416673,45.89732709416673 0 0,0 -0.23961745243015575,0.7505982569015391 l -23.652209848956353 -7.774951169934171" fill="#ff5908" stroke="none" /><path d="M 119.94978838288452 106.5578916946017 l 19.716601787532262 6.481238629035091 a41.75453782223582,41.75453782223582 0 0,0 -0.22967894447506249,0.6790049880666127 l -19.602437421484836 -6.818745291575865" fill="#ff0300" stroke="none" /><path d="M 119.71291397450082 107.23885506374661 l 23.336350089525112 8.56943099500337 a45.86001574977384,45.86001574977384 0 0,0 -0.27771365919798674,0.7366684753901984 l -23.185805746512685 -8.968767750587727" fill="#ff5808" stroke="none" /><path d="M 119.58574465831526 107.57618678355244 l 23.20951467836854 8.977938874755436 a45.88543666573383,45.88543666573383 0 0,0 -0.29047955952860155,0.7321982453047063 l -23.051976443873812 -9.375038137273705" fill="#ff5908" stroke="none" /><path d="M 119.4528033332814 107.91128576633889 l 23.11198587278165 9.399443449589409 a45.950218999954444,45.950218999954444 0 0,0 -0.3034337053896295,0.7281304317732646 l -22.94722632285553 -9.794806390803952" fill="#ff5a08" stroke="none" /><path d="M 119.16976305983485 108.57439118712176 l 22.73565612912864 10.169369800688136 a45.90634741918478,45.90634741918478 0 0,0 -0.3279364416494629,0.7166003081090027 l -22.55773522262412 -10.558159091011827" fill="#ff5908" stroke="none" /><path d="M 119.0197475246899 108.90220220490707 l 37.58186645378597 17.590211120053834 a62.494725127397444,62.494725127397444 0 0,0 -0.4631178808531869,0.9677382523003561 l -37.27436931497287 -18.232761874419293" fill="#7cff26" stroke="none" /><path d="M 118.8641267826498 109.22738970284198 l 18.67162191261672 9.133225924366728 a41.78569894502548,41.78569894502548 0 0,0 -0.32071536106988724,0.6416455608429948 l -18.512086638335102 -9.45240334137347" fill="#ff0400" stroke="none" /><path d="M 118.5362547648365 109.86951160357373 l 43.67618525241938 23.255108575995603 a70.48140290134265,70.48140290134265 0 0,0 -0.5777952988143371,1.0630782713775884 l -43.270544603989705 -24.001441680847794" fill="#34ff60" stroke="none" /><line stroke="#e1ed5e" stroke-width="0.3" x1="174.33088141563837" x2="178.70328620479359" y1="141.23008692659167" y2="143.65538615756765" /><path d="M 175.20536237346943 141.71514677278685 a86.0,86.0 0 0,1 -30.301960400862466,31.631185727798858" fill="none" id="id149" stroke="none" /><text fill="#e1ed5e" style="font-size:6.75px; font-family:Arial;" text-anchor="middle"><textPath startOffset="22.145653131862474" xlink:href="#id149">May</textPath></text><path d="M 118.36410011445183 110.18625677009912 l 21.81096185682453 12.09817287489147 a45.94160868970994,45.94160868970994 0 0,0 -0.388461755263638,0.6863746998643717 l -21.600066736539514 -12.470804344854963" fill="#ff5a08" stroke="none" /><path d="M 118.18653347947321 110.5 l 21.561717749878987 12.448663547083358 a45.89732709416673,45.89732709416673 0 0,0 -0.39980132191888174,0.6789500495357957 l -21.34484271783034 -12.816964764912703" fill="#ff5908" stroke="none" /><path d="M 117.81537515405839 111.11811171558189 l 43.907752293907905 27.40168483471753 a72.75657487976154,72.75657487976154 0 0,0 -0.6703385741490502,1.0538835788400338 l -43.43089602813297 -28.151382088236236" fill="#39ff86" stroke="none" /><path d="M 117.423217284605 111.72311816256416 l 20.658100708262275 13.89969209826102 a45.89896715326092,45.89896715326092 0 0,0 -0.44546097978147975,0.6499408822638467 l -20.416449991665477 -14.252267715594911" fill="#ff5908" stroke="none" /><path d="M 117.21940702142032 112.02048342749411 l 20.40165716805105 14.241941175843463 a45.8809265032248,45.8809265032248 0 0,0 -0.4563729910466776,0.6419457650626157 l -20.15416907847441 -14.590064167615582" fill="#ff5908" stroke="none" /><path d="M 117.01052211995028 112.31430620078461 l 33.4367306518216 24.20561442477904 a62.27864734173755,62.27864734173755 0 0,0 -0.6343465185451741,0.8606128821828972 l -33.01628211369259 -24.776033616230812" fill="#80ff26" stroke="none" /><path d="M 116.79662413953412 112.60449989151573 l 19.90303708411144 14.935610077566132 a45.883796606639635,45.883796606639635 0 0,0 -0.4781703885162077,0.6259403880434027 l -19.643714718240926 -15.275071378850413" fill="#ff5908" stroke="none" /><path d="M 116.57777611688842 112.89097897827486 l 19.66442979060816 15.291179544417169 a45.91003755214672,45.91003755214672 0 0,0 -0.48912459861532037,0.617992951910469 l -19.399038761351278 -15.62649244024232" fill="#ff5908" stroke="none" /><path d="M 116.1254893667686 113.45245675266167 l 35.368442509967615 29.50561266406295 a67.059829616083,67.059829616083 0 0,0 -0.7450201342723225,0.8776318448463143 l -34.856727812188176 -30.108411291358824" fill="#38ff2e" stroke="none" /><path d="M 115.89218393027572 113.72728997021213 l 18.841566740606414 16.274896595468828 a45.89732709416673,45.89732709416673 0 0,0 -0.5201455258231202,0.5918301265894965 l -18.559410150824707 -16.595938999869617" fill="#ff5908" stroke="none" /><path d="M 115.6541949942343 113.99807769240083 l 21.60909139985603 19.32298277802121 a49.98845450463057,49.98845450463057 0 0,0 -0.5774911425802126,0.6347639272538006 l -21.274202556433938 -19.691084280832683" fill="#ffa90f" stroke="none" /><path d="M 115.16444852881244 114.52719865689866 l 38.7226230696583 37.09539695956131 a74.6237821585,74.6237821585 0 0,0 -0.8941108828155007,0.9174365326383402 l -38.08012538569199 -37.75465618426739" fill="#3cffa4" stroke="none" /><path d="M 114.91283532996324 114.78537596483092 l 17.695604391294342 17.544360818127846 a45.91864786239123,45.91864786239123 0 0,0 -0.5597878509275749,0.5550033681307536 l -17.3918246202368 -17.84554419648726" fill="#ff5908" stroke="none" /><path d="M 114.65682725009322 115.03919595460226 l 40.26976474511466 41.320326201133426 a78.69768894847482,78.69768894847482 0 0,0 -0.9755797015286358,0.9345832855587725 l -39.55451255772071 -42.00552161699778" fill="#43ffe2" stroke="none" /><path d="M 114.13192950727249 115.5334660781643 l 16.731730691642937 18.391102997921614 a45.86329586796223,45.86329586796223 0 0,0 -0.5869081707080149,0.5248169053024815 l -16.413557494111544 -18.67561543310748" fill="#ff5808" stroke="none" /><path d="M 113.86319453409587 115.77377054828091 l 16.4381886572376 18.703641175264682 a45.90060721235511,45.90060721235511 0 0,0 -0.5963155970893117,0.5150832101439896 l -16.114693580385435 -18.98306851787339" fill="#ff5908" stroke="none" /><path d="M 113.59037401385872 116.0094264158162 l 26.72506146826596 31.482055210406088 a62.29586796222657,62.29586796222657 0 0,0 -0.8211950060764782,0.6850700808814808 l -26.180692128027587 -31.93618747519944" fill="#7fff26" stroke="none" /><path d="M 113.03279911837588 116.46651593811092 l 15.455588611697115 19.52763131663396 a45.9038873305435,45.9038873305435 0 0,0 -0.6220852303265479,0.4837372377508034 l -15.118093436735336 -19.790069606005556" fill="#ff5908" stroke="none" /><path d="M 112.7482090630111 116.68781488649013 l 25.09958445568462 32.856161759976395 a62.346299779373005,62.346299779373005 0 0,0 -0.8560651997074074,0.6424072853690507 l -24.531866267066444 -33.282188072609465" fill="#7fff26" stroke="none" /><path d="M 112.45986205192187 116.90419585922612 l 27.929170066310636 37.891283147370636 a68.07215609197348,68.07215609197348 0 0,0 -0.9465886782687449,0.6852572042292708 l -27.274600377667923 -38.365141122972986" fill="#30ff36" stroke="none" /><path d="M 111.8722381534696 117.32195027204791 l 14.060272490774771 20.514357760374548 a45.87026611911254,45.87026611911254 0 0,0 -0.653331755343087,0.43959076226466626 l -13.706044447334682 -20.752698196696336" fill="#ff5808" stroke="none" /><path d="M 111.5731344415666 117.5232005979908 l 13.717342438042543 20.769804794613066 a45.890766857789956,45.890766857789956 0 0,0 -0.6610769676773954,0.4285021035431555 l -13.35877983810814 -21.002220739860114" fill="#ff5908" stroke="none" /><path d="M 111.27062007382361 117.71928675628689 l 15.560853896123657 24.464246913839723 a49.99378469668669,49.99378469668669 0 0,0 -0.728090128467171,0.45438208947658726 l -15.138599638866772 -24.727764800157857" fill="#ffa90f" stroke="none" /><line stroke="#e1ed5e" stroke-width="0.3" x1="143.1302829299769" x2="145.66735839644613" y1="173.24464959558577" y2="177.55315839532614" /><path d="M 143.63769802327073 174.10635135553383 a86.0,86.0 0 0,1 -40.68552437913181,11.842963189579606" fill="none" id="id150" stroke="none" /><text fill="#e1ed5e" style="font-size:6.75px; font-family:Arial;" text-anchor="middle"><textPath startOffset="21.407464694133747" xlink:href="#id150">June</textPath></text><path d="M 110.65571695917076 118.09573695890943 l 14.718541492717257 24.995301235153363 a50.00690516944024,50.00690516944024 0 0,0 -0.7434539263280959,0.429233324495612 l -14.287295098528762 -25.244281456925147" fill="#ffaa0f" stroke="none" /><path d="M 110.34350942703117 118.27599006163325 l 20.28769246329124 35.84640865348975 a62.189264121104046,62.189264121104046 0 0,0 -0.9335965213558916,0.5178502527721744 l -19.669351753779253 -36.18939182169507" fill="#81ff25" stroke="none" /><path d="M 109.71004243097381 118.62028667847754 l 11.505843852104425 22.063972688788414 a45.883796606639635,45.883796606639635 0 0,0 -0.7015256216582234,0.3582039809866413 l -11.12539100873262 -22.25823462144789" fill="#ff5908" stroke="none" /><path d="M 108.73861861582097 119.09545874513695 l 12.079361693482578 26.395585277961498 a50.02822593766474,50.02822593766474 0 0,0 -0.783981839761712,0.35066510507898996 l -11.62446645086524 -26.59905413395034" fill="#ffaa0f" stroke="none" /><path d="M 107.74402155503746 119.51999308798841 l 22.791624163661254 57.44978148327801 a82.80562696465412,82.80562696465412 0 0,0 -1.3257880289109738,0.5128432907534571 l -21.802063872256753 -57.83256466216951" fill="#4be2ff" stroke="none" /><path d="M 107.06938296918513 119.77432235084164 l 9.76839446340461 27.323937861553595 a50.01756555355249,50.01756555355249 0 0,0 -0.8109853508259222,0.28210280301266827 l -9.297903340533665 -27.487599097134854" fill="#ffaa0f" stroke="none" /><path d="M 106.38641147887787 120.00534299687104 l 7.586609443539015 23.764946026929984 a45.94652886699251,45.94652886699251 0 0,0 -0.7534341715420564,0.23341583228434645 l -7.177534639125334 -23.891678447020972" fill="#ff5a08" stroke="none" /><path d="M 105.69591212413111 120.21278271476187 l 7.876664328373037 27.951502958063408 a50.040116366097635,50.040116366097635 0 0,0 -0.8288039605486149,0.22589420497503265 l -7.395678966889727 -28.082597657182582" fill="#ffaa0f" stroke="none" /><path d="M 104.9986988182912 120.39639698878246 l 5.921805291767235 24.162986411421148 a45.878056399809964,45.878056399809964 0 0,0 -0.7665302304572227,0.1808990472342974 l -5.506142907570133 -24.26108160230167" fill="#ff5908" stroke="none" /><path d="M 104.64783097203109 120.47920084513623 l 5.5232940218415205 24.336652576374362 a45.955549192010565,45.955549192010565 0 0,0 -0.7708224566825821,0.1679971667683243 l -5.104709148539802 -24.427881201276406" fill="#ff5a08" stroke="none" /><path d="M 103.94208987418118 120.62667999033965 l 4.681695133387927 24.496607233943823 a45.93996863061574,45.93996863061574 0 0,0 -0.7758719626206384,0.141389717244408 l -4.260488437216231 -24.573365125119594" fill="#ff5a08" stroke="none" /><path d="M 103.2317021107853 120.74984581791261 l 3.8300758818919025 24.59183467279742 a45.88830676914867,45.88830676914867 0 0,0 -0.7793908081299159,0.11454360899859058 l -3.407359968154301 -24.653959355094894" fill="#ff5908" stroke="none" /><path d="M 102.15924093988457 120.88869738790638 l 6.477722819653695 62.666092163719114 a84.0,84.0 0 0,0 -1.4356017464599389,0.1359529779792652 l -5.401021509808741 -62.76805689720356" fill="#4dd2ff" stroke="none" /><line stroke="#e1ed5e" stroke-width="0.3" x1="101.45913802915013" x2="101.54496967792366" y1="184.9874750549273" y2="189.98673829345242" /><path d="M 101.47630435890484 185.9873277026323 a86.0,86.0 0 0,1 -42.54439059252881,-10.42667462771756" fill="none" id="id151" stroke="none" /><text fill="#e1ed5e" style="font-size:6.75px; font-family:Arial;" text-anchor="middle"><textPath startOffset="22.145653131862474" xlink:href="#id151">July</textPath></text><path d="M 100.36049292484886 120.99690560180557 l 0.427810995388891 24.917845722939592 a45.92151796580607,45.92151796580607 0 0,0 -0.7883039202377402,0.006766641060909553 l -3.0520057206717656e-15 -24.921517965806068" fill="#ff5908" stroke="none" /><path d="M 99.27912038922189 120.98762331915562 l -0.854285478105626 24.871589587827174 a45.886256695280935,45.886256695280935 0 0,0 -0.7870022668617849,-0.03379726360138679 l 1.2811135055682497 -24.853259755799957" fill="#ff5908" stroke="none" /><path d="M 97.48249496171623 120.84855314841334 l -4.957430163671121 41.054633327488396 a62.35286001574978,62.35286001574978 0 0,0 -1.06154906305568,-0.13743877916519737 l 5.661457048617595 -40.9634829521228" fill="#7eff26" stroke="none" /><path d="M 97.12497278360702 120.80226474461374 l -5.747678114351023 41.58733563279404 a62.98264270791979,62.98264270791979 0 0,0 -1.0697298779236288,-0.1572134538832917 l 6.460733097882337 -41.482541105611865" fill="#75ff27" stroke="none" /><path d="M 96.76829788921471 120.74984581791261 l -6.357442637780249 40.81934225617992 a62.311448523621415,62.311448523621415 0 0,0 -1.0555040027239575,-0.17368278198184472 l 7.05722414355727 -40.704193475702404" fill="#7fff26" stroke="none" /><line stroke="#e1ed5e" stroke-width="0.3" x1="58.13341422392154" x2="55.67067388415222" y1="173.97424548756322" y2="178.32567169271397" /><path d="M 57.64086615596768 174.84453072859336 a86.0,86.0 0 0,1 -31.369924170532247,-30.572349798747897" fill="none" id="id152" stroke="none" /><text fill="#e1ed5e" style="font-size:6.75px; font-family:Arial;" text-anchor="middle"><textPath startOffset="22.145653131862474" xlink:href="#id152">August</textPath></text><line stroke="#e1ed5e" stroke-width="0.3" x1="26.387840678322732" x2="22.057713659400548" y1="142.50000000000003" y2="145.00000000000006" /><path d="M 25.521815274538298 143.00000000000003 a86.0,86.0 0 0,1 -11.493303480769221,-40.785679425670985" fill="none" id="id153" stroke="none" /><text fill="#e1ed5e" style="font-size:6.75px; font-family:Arial;" text-anchor="middle"><textPath startOffset="21.40746469413373" xlink:href="#id153">September</textPath></text><line stroke="#e1ed5e" stroke-width="0.3" x1="15.003131293944662" x2="10.003315487706104" y1="100.72959589197737" y2="100.7725132973878" /><path d="M 14.003168132696942 100.73817937305945 a86.0,86.0 0 0,1 10.791469493833604,-42.45332614584628" fill="none" id="id154" stroke="none" /><text fill="#e1ed5e" style="font-size:6.75px; font-family:Arial;" text-anchor="middle"><textPath startOffset="22.145653131862435" xlink:href="#id154">October</textPath></text><line stroke="#e1ed5e" stroke-width="0.3" x1="26.387840678322718" x2="22.05771365940052" y1="57.49999999999999" y2="54.99999999999999" /><path d="M 25.521815274538284 56.99999999999999 a86.0,86.0 0 0,1 29.574782752854787,-30.34633250058573" fill="none" id="id155" stroke="none" /><text fill="#e1ed5e" style="font-size:6.75px; font-family:Arial;" text-anchor="middle"><textPath startOffset="21.40746469413373" xlink:href="#id155">November</textPath></text><line stroke="#e1ed5e" stroke-width="0.3" x1="56.869717070023135" x2="54.33264160355391" y1="26.7553504044142" y2="22.446841604673864" /><path d="M 56.362301976729285 25.89364864446614 a86.0,86.0 0 0,1 42.16139366436587,-11.88097634709845" fill="none" id="id156" stroke="none" /><text fill="#e1ed5e" style="font-size:6.75px; font-family:Arial;" text-anchor="middle"><textPath startOffset="22.145653131862474" xlink:href="#id156">December</textPath></text></svg>