<?xml version="1.0" encoding="utf-8" ?>
<svg baseProfile="full" height="200mm" version="1.1" viewBox="0,0,200,200" width="200mm" xmlns="http://www.w3.org/2000/svg" xmlns:ev="http://www.w3.org/2001/xml-events" xmlns:xlink="http://www.w3.org/1999/xlink"><defs /><rect fill="#1a1a1a" height="200" width="200" x="0" y="0" /><text alignment-baseline="middle" fill="#e1ed5e" style="dominant-baseline: central; font-size:9.0px; font-family:Arial;" text-anchor="middle" x="100.0" y="100.0">2021</text><line stroke="#e1ed5e" stroke-width="0.3" x1="100.0" x2="100.0" y1="15.0" y2="10.0" /><path d="M 100.0 14.0 a86.0,86.0 0 0,1 42.46469731375804,11.215312516191453" fill="none" id="id109" stroke="none" /><text fill="#e1ed5e" style="font-size:6.75px; font-family:Arial;" text-anchor="middle"><textPath startOffset="22.20632615414155" xlink:href="#id109">January</textPath></text><line stroke="#e1ed5e" stroke-width="0.3" x1="143.23703022742887" x2="145.7803849466894" y1="26.81831364943548" y2="22.513508569990506" /><path d="M 143.74570117128098 25.957352633546492 a86.0,86.0 0 0,1 28.547481713284135,27.462654790039103" fill="none" id="id110" stroke="none" /><text fill="#e1ed5e" style="font-size:6.75px; font-family:Arial;" text-anchor="middle"><textPath startOffset="19.985693538727396" xlink:href="#id110">February</textPath></text><line stroke="#e1ed5e" stroke-width="0.3" x1="172.23445277983987" x2="176.4835382374775" y1="55.19839476539836" y2="52.563006222186495" /><path d="M 173.08426987136738 54.67131705675599 a86.0,86.0 0 0,1 12.851231095245387,41.99856678651699" fill="none" id="id111" stroke="none" /><text fill="#e1ed5e" style="font-size:6.75px; font-family:Arial;" text-anchor="middle"><textPath startOffset="22.20632615414155" xlink:href="#id111">March</textPath></text><line stroke="#e1ed5e" stroke-width="0.3" x1="184.98032266829074" x2="189.97916517819016" y1="98.17113171792111" y2="98.06355123074" /><path d="M 185.9800911702706 98.14961562048488 a86.0,86.0 0 0,1 -9.607161424134198,41.387399972396054" fill="none" id="id112" stroke="none" /><text fill="#e1ed5e" style="font-size:6.75px; font-family:Arial;" text-anchor="middle"><textPath startOffset="21.466115282336823" xlink:href="#id112">April</textPath></text><line stroke="#e1ed5e" stroke-width="0.3" x1="174.80103733775053" x2="179.2010983576182" y1="140.37084112569926" y2="142.7455964860345" /><path d="M 175.68104954172406 140.8457921977663 a86.0,86.0 0 0,1 -30.038265399797805,32.042727171017184" fill="none" id="id113" stroke="none" /><text fill="#e1ed5e" style="font-size:6.75px; font-family:Arial;" text-anchor="middle"><textPath startOffset="22.206326154141568" xlink:href="#id113">May</textPath></text><path d="M 111.45004920935366 117.60387380957326 l 33.60925405744145 51.67253488987275 a82.64116173664121,82.64116173664121 0 0,0 -1.1991555181494034,0.7653577877626028 l -32.714816737245116 -52.24340710645916" fill="#ffdd14" stroke="none" /><line stroke="#e1ed5e" stroke-width="0.3" x1="143.8653032363475" x2="146.44561519142675" y1="172.8068346515853" y2="177.08958963109032" /><path d="M 144.38136562736335 173.6633856474863 a86.0,86.0 0 0,1 -40.68145358897372,12.25698825130547" fill="none" id="id114" stroke="none" /><text fill="#e1ed5e" style="font-size:6.75px; font-family:Arial;" text-anchor="middle"><textPath startOffset="21.466115282336833" xlink:href="#id114">June</textPath></text><path d="M 109.57404056367764 118.69057910512821 l 28.465184772279628 55.57014138281618 a83.43642652671755,83.43642652671755 0 0,0 -1.2839121518582497,0.6437802065207822 l -27.504418712738616 -56.05188943024626" fill="#35ff69" stroke="none" /><path d="M 108.92500713936063 119.00905698771935 l 26.324725852725308 56.06810236752287 a82.94048187022901,82.94048187022901 0 0,0 -1.2975525114686832,0.5956427170834679 l -25.355705345489206 -56.512932154940415" fill="#aaff21" stroke="none" /><path d="M 107.59598834532513 119.57807347666477 l 22.692380974616636 58.48785989185167 a83.73574666030535,83.73574666030535 0 0,0 -1.3482642634629813,0.5097981780546609 l -21.68224649039338 -58.86980632001296" fill="#42ffd7" stroke="none" /><path d="M 105.53697534728816 120.25689768951611 l 16.52870354296927 60.469883936589284 a83.68815601145039,83.68815601145039 0 0,0 -1.392848111880207,0.36786384574705444 l -15.485364988277567 -60.74543913163992" fill="#40ffc6" stroke="none" /><path d="M 104.13013068566511 120.58985236759428 l 12.378322853536492 61.70938876034412 a83.93863311068702,83.93863311068702 0 0,0 -1.4190920544227492,0.27197236969767535 l -11.314263184542039 -61.91331832839026" fill="#4ae5ff" stroke="none" /><path d="M 103.06178313531738 120.77559828337769 l 9.185349405952133 62.326794850133076 a84.0,84.0 0 0,0 -1.4322856352526783,0.1985017380295897 l -8.111135179512624 -62.47567115365527" fill="#4dd2ff" stroke="none" /><path d="M 101.98527174616119 120.90594882070398 l 5.9456331434114205 62.61062368070806 a83.89229484732826,83.89229484732826 0 0,0 -1.4387755565222502,0.1241436090685504 l -4.867013269147629 -62.703691542055275" fill="#48f4ff" stroke="none" /><path d="M 100.90346689309514 120.98055641714683 l 2.706090245635164 62.8415711769312 a83.89980916030534,83.89980916030534 0 0,0 -1.4433949308570904,0.04971343987590202 l -1.6239749631034213 -62.87884141523319" fill="#49f1ff" stroke="none" /><line stroke="#e1ed5e" stroke-width="0.3" x1="102.19456741930631" x2="102.32365962044197" y1="184.97166512339345" y2="189.96999836594603" /><path d="M 102.22038585953345 185.97133177190398 a86.0,86.0 0 0,1 -42.740103519485714,-10.115201625700543" fill="none" id="id115" stroke="none" /><text fill="#e1ed5e" style="font-size:6.75px; font-family:Arial;" text-anchor="middle"><textPath startOffset="22.20632615414155" xlink:href="#id115">July</textPath></text><path d="M 96.22490169976321 120.6578951692458 l -11.29355057459318 61.79997586920788 a83.82341364503819,83.82341364503819 0 0,0 -1.4171441191019731,-0.2715990432573164 l 12.355662308266847 -61.596419627602096" fill="#46fff4" stroke="none" /><path d="M 95.16358092515715 120.4354850818985 l -14.465992502365717 61.12364735195238 a83.81214217557252,83.81214217557252 0 0,0 -1.4010465337795124,-0.3443431507101913 l 15.51599232088844 -60.86558294292816" fill="#45fff0" stroke="none" /><line stroke="#e1ed5e" stroke-width="0.3" x1="58.666819895761336" x2="56.23545636021788" y1="174.27360380694188" y2="178.64263932499728" /><path d="M 58.180547188652646 175.14741091055294 a86.0,86.0 0 0,1 -31.652253787137756,-30.449443065178592" fill="none" id="id116" stroke="none" /><text fill="#e1ed5e" style="font-size:6.75px; font-family:Arial;" text-anchor="middle"><textPath startOffset="22.20632615414155" xlink:href="#id116">August</textPath></text><path d="M 87.07902340077011 116.55440617244103 l -38.42850089477542 49.23474688809842 a83.45646469465649,83.45646469465649 0 0,0 -1.1248441436248027,-0.8936442174693525 l 39.27030253111758 -48.56596875662394" fill="#36ff71" stroke="none" /><path d="M 86.51685102203217 116.09983520530335 l -40.261287531419946 48.07482995762992 a83.70694179389314,83.70694179389314 0 0,0 -1.096698549412136,-0.9346302961759524 l 41.082851557409136 -47.37467527123102" fill="#41ffcd" stroke="none" /><path d="M 85.18274418774928 114.88116024355367 l -44.37047047022503 44.56183314344682 a83.88478053435114,83.88478053435114 0 0,0 -1.0144441158027422,-1.0276265334670251 l 45.130955211083304 -43.79146611599913" fill="#48f6ff" stroke="none" /><path d="M 84.67929136418377 114.36230785411682 l -45.92831947737206 43.05523192407505 a83.95366173664122,83.95366173664122 0 0,0 -0.9792738573477044,-1.0628083632151655 l 46.66263974271549 -42.258272306058544" fill="#4be0ff" stroke="none" /><path d="M 84.19399662182784 113.82643327865904 l -47.132393541983944 41.229454339589125 a83.6205271946565,83.6205271946565 0 0,0 -0.9383715993838666,-1.0915381659162564 l 47.83510765093859 -40.41203907451134" fill="#3dffae" stroke="none" /><path d="M 83.50135304334701 112.99209946851258 l -49.337527096102754 38.85155317566952 a83.7983659351145,83.7983659351145 0 0,0 -0.8826489177672843,-1.140942708485696 l 49.99898283108811 -37.99653247307057" fill="#45ffec" stroke="none" /><path d="M 83.06392112726016 112.41649034213515 l -50.69915404914415 37.1694984025415 a83.86474236641223,83.86474236641223 0 0,0 -0.8435203949999895,-1.171576052276359 l 51.33145423651975 -36.291288744814004" fill="#47fcff" stroke="none" /><line stroke="#e1ed5e" stroke-width="0.3" x1="26.63291911575756" x2="22.317208475507996" y1="142.92168965132927" y2="145.44649492493687" /><path d="M 25.769776987707644 143.4266507060508 a86.0,86.0 0 0,1 -11.730757126820373,-40.83630448921669" fill="none" id="id117" stroke="none" /><text fill="#e1ed5e" style="font-size:6.75px; font-family:Arial;" text-anchor="middle"><textPath startOffset="21.46611528233685" xlink:href="#id117">September</textPath></text><path d="M 81.69416730710424 110.29060199501025 l -54.74828266436243 30.776681741875528 a83.8058802480916,83.8058802480916 0 0,0 -0.696082025807065,-1.2635910675317812 l 55.26994109962101 -29.829720155945925" fill="#45ffee" stroke="none" /><path d="M 80.58989483394504 108.01547362559985 l -58.106455690628614 23.99527251814382 a83.8659947519084,83.8659947519084 0 0,0 -0.5395274592231648,-1.339062907466993 l 58.51088576410917 -22.99151024283402" fill="#47fcff" stroke="none" /><path d="M 79.76711848015287 105.62410040840567 l -60.60935345550578 16.84748112560931 a83.90732347328245,83.90732347328245 0 0,0 -0.3748336868591225,-1.3948955903569444 l 60.89037521870668 -15.801694602076827" fill="#49efff" stroke="none" /><path d="M 79.23777060512086 103.15116336523772 l -60.46528793178276 9.177049177877727 a82.1577409351145,82.1577409351145 0 0,0 -0.20017518006083543,-1.400024743118663 l 60.61429716286019 -8.134878962778664" fill="#ff0000" stroke="none" /><path d="M 79.18660465613746 102.79330883721812 l -61.42732041847982 8.243992589232496 a82.9780534351145,82.9780534351145 0 0,0 -0.17780415096259725,-1.4172740262364893 l 61.56012607868927 -7.185400808708598" fill="#9cff22" stroke="none" /><path d="M 79.1416061653843 102.43462659150553 l -62.41471318295818 7.285149643892539 a83.83844227099237,83.83844227099237 0 0,0 -0.15497216069984995,-1.4348497390307153 l 62.530867645159084 -6.209703582977042" fill="#46fff9" stroke="none" /><path d="M 79.10278846688536 102.07522291339032 l -62.28909408615239 6.185693966731949 a83.59547948473283,83.59547948473283 0 0,0 -0.12987315560004165,-1.4331394498909684 l 62.38634183802951 -5.112573128292414" fill="#3cffa5" stroke="none" /><path d="M 79.04373962182676 101.35467743843564 l -62.45635473156186 4.037371797971298 a83.58671278625954,83.58671278625954 0 0,0 -0.08045678489172017,-1.4366099420527327 l 62.51659786734111 -2.961690139583128" fill="#3cffa2" stroke="none" /><line stroke="#e1ed5e" stroke-width="0.3" x1="15.007084014347285" x2="10.007500721073583" y1="101.09737516637583" y2="101.16192664675087" /><path d="M 14.007167355692545 101.11028546245083 a86.0,86.0 0 0,1 10.666146001902534,-42.60595125391555" fill="none" id="id118" stroke="none" /><text fill="#e1ed5e" style="font-size:6.75px; font-family:Arial;" text-anchor="middle"><textPath startOffset="22.20632615414155" xlink:href="#id118">October</textPath></text><path d="M 79.00175016825051 100.2711162175752 l -62.867016820937984 0.8116994486349242 a83.87225667938931,83.87225667938931 0 0,0 -0.006213347478648807,-1.4437631348222721 l 62.871674465706135 0.27057316439102325" fill="#48faff" stroke="none" /><path d="M 79.08570108090925 98.10471618934814 l -62.26144879789915 -5.642221926295282 a83.5165791984733,83.5165791984733 0 0,0 0.14206915534082173,-1.4306170061691534 l 62.1551025168761 6.713114463168866" fill="#39ff88" stroke="none" /><line stroke="#e1ed5e" stroke-width="0.3" x1="26.266209847984243" x2="21.928928074336255" y1="57.711370442889674" y2="55.22380399835377" /><path d="M 25.398753493254645 57.213857153982495 a86.0,86.0 0 0,1 29.58750427330803,-30.492523968695096" fill="none" id="id119" stroke="none" /><text fill="#e1ed5e" style="font-size:6.75px; font-family:Arial;" text-anchor="middle"><textPath startOffset="21.46611528233685" xlink:href="#id119">November</textPath></text><line stroke="#e1ed5e" stroke-width="0.3" x1="56.762969772571076" x2="54.21961505331055" y1="26.818313649435495" y2="22.513508569990535" /><path d="M 56.25429882871897 25.957352633546506 a86.0,86.0 0 0,1 42.265352541879196,-11.944610805530505" fill="none" id="id120" stroke="none" /><text fill="#e1ed5e" style="font-size:6.75px; font-family:Arial;" text-anchor="middle"><textPath startOffset="22.20632615414155" xlink:href="#id120">December</textPath></text></svg>