<?xml version="1.0" encoding="utf-8" ?>
<svg baseProfile="full" height="200mm" version="1.1" viewBox="0,0,200,200" width="200mm" xmlns="http://www.w3.org/2000/svg" xmlns:ev="http://www.w3.org/2001/xml-events" xmlns:xlink="http://www.w3.org/1999/xlink"><defs /><rect fill="#1a1a1a" height="200" width="200" x="0" y="0" /><text alignment-baseline="middle" fill="#e1ed5e" style="dominant-baseline: central; font-size:9.0px; font-family:Arial;" text-anchor="middle" x="100.0" y="100.0">2024</text><line stroke="#e1ed5e" stroke-width="0.3" x1="100.0" x2="100.0" y1="15.0" y2="10.0" /><path d="M 100.0 14.0 a86.0,86.0 0 0,1 42.35913384403234,11.155469271406648" fill="none" id="id145" stroke="none" /><text fill="#e1ed5e" style="font-size:6.75px; font-family:Arial;" text-anchor="middle"><textPath startOffset="22.145653131862478" xlink:href="#id145">January</textPath></text><line stroke="#e1ed5e" stroke-width="0.3" x1="143.13028292997686" x2="145.6673583964461" y1="26.7553504044142" y2="22.446841604673864" /><path d="M 143.63769802327073 25.89364864446614 a86.0,86.0 0 0,1 29.32050498858742,28.57503671076993" fill="none" id="id146" stroke="none" /><text fill="#e1ed5e" style="font-size:6.75px; font-family:Arial;" text-anchor="middle"><textPath startOffset="20.669276256404974" xlink:href="#id146">February</textPath></text><line stroke="#e1ed5e" stroke-width="0.3" x1="172.87174338648825" x2="177.1583165268699" y1="56.24261187166439" y2="53.66864786411523" /><path d="M 173.72905801456457 55.72781907015455 a86.0,86.0 0 0,1 12.242430191666344,42.057860355516425" fill="none" id="id147" stroke="none" /><text fill="#e1ed5e" style="font-size:6.75px; font-family:Arial;" text-anchor="middle"><textPath startOffset="22.145653131862474" xlink:href="#id147">March</textPath></text><path d="M 119.31412917781788 91.75594674310238 l 19.353849093202808 -8.26100732688327 a42.043186944407594,42.043186944407594 0 0,0 0.27763349726240377,0.6662193245038927 l -19.492808435001695 7.9275554929381" fill="#ff0100" stroke="none" /><path d="M 119.4528033332814 92.08871423366111 l 19.498615627186897 -7.929917227444436 a42.04945601698289,42.04945601698289 0 0,0 0.266195733326256,0.6709871399054234 l -19.631870035479277 7.594029070325448" fill="#ff0100" stroke="none" /><path d="M 119.58574465831526 92.42381321644754 l 19.601076473823305 -7.58211745915587 a42.01643890141966,42.01643890141966 0 0,0 0.254438181125994,0.6749275045110946 l -19.728345338763738 7.244521674450618" fill="#ff0000" stroke="none" /><path d="M 119.83427380445688 93.10060997987247 l 20.024669148725483 -6.965619404226799 a42.20158551147671,42.20158551147671 0 0,0 0.23213801711123913,0.6862747993668942 l -20.141292587409087 6.620842930385743" fill="#ff0400" stroke="none" /><path d="M 119.94978838288452 93.4421083053983 l 20.02972517592726 -6.584168506221295 a42.08414488523285,42.08414488523285 0 0,0 0.2197098659887425,0.6882380259146281 l -20.13979975769326 6.2393614466152805" fill="#ff0100" stroke="none" /><path d="M 120.05942366710727 93.78553927170692 l 20.116245837107623 -6.232064381808938 a42.05948653310335,42.05948653310335 0 0,0 0.20774117723673133,0.6915028148649027 l -20.220263334347983 5.885823963353311" fill="#ff0100" stroke="none" /><path d="M 120.26092885502905 94.47779374421319 l 20.3437252738608 -5.544772787918725 a42.08581663791959,42.08581663791959 0 0,0 0.18399622268020566,0.6986636271128767 l -20.435910977345735 5.19472865643305" fill="#ff0100" stroke="none" /><path d="M 120.35273937422433 94.82641323984039 l 20.43510086432832 -5.194522728871944 a42.08498076157622,42.08498076157622 0 0,0 0.17197220455548354,0.7017052802450616 l -20.521260595400094 4.8429616240187885" fill="#ff0100" stroke="none" /><path d="M 120.43855184770803 95.1765574152323 l 20.530616175057073 -4.845169515343913 a42.09459333952501,42.09459333952501 0 0,0 0.15993768264957595,0.7047149402369495 l -20.610764719264314 4.492020241167936" fill="#ff0200" stroke="none" /><path d="M 120.592083275326 95.88100663000786 l 20.740574681192253 -4.148695809909752 a42.15143293087435,42.15143293087435 0 0,0 0.13583541676439317,0.7107482990948992 l -20.808736390238803 3.792044945781538" fill="#ff0300" stroke="none" /><path d="M 120.65975698304385 96.23510406497455 l 20.79434555513717 -3.789422456242081 a42.13680509486532,42.13680509486532 0 0,0 0.12357156343149675,0.7127279400077728 l -20.8563319360609 3.4319014833137156" fill="#ff0300" stroke="none" /><path d="M 120.7213421655516 96.59031103205396 l 41.494508306135806 -6.827905551262365 a63.05252089690858,63.05252089690858 0 0,0 0.16657427506101624,1.0695263382139808 l -41.60560407333509 6.114591031116943" fill="#77ff27" stroke="none" /><path d="M 120.82617615685814 97.30363454192243 l 21.02319172803817 -2.721873068155974 a42.19865994427491,42.19865994427491 0 0,0 0.08684466882997426,0.719198439019747 l -21.06681848312781 2.3605809522128145" fill="#ff0400" stroke="none" /><path d="M 120.86939407059847 97.66154086499901 l 25.134232098625436 -2.8163431316422547 a46.291528459599306,46.291528459599306 0 0,0 0.08171029563639107,0.7904729886772995 l -25.178874786743492 2.384465620682024" fill="#ff5a08" stroke="none" /><path d="M 120.9064616781168 98.02013634271609 l 21.018524972769306 -1.9904761677992755 a42.112564680907525,42.112564680907525 0 0,0 0.06197841967590109,0.7202831844958597 l -21.04959701514295 1.6293719359277539" fill="#ff0200" stroke="none" /><path d="M 120.96210409425399 98.7389718711861 l 21.101165419013544 -1.2693937127917136 a42.13931272389545,42.13931272389545 0 0,0 0.03723993645466299,0.7224448184914855 l -21.119846944924777 0.9069771009234975" fill="#ff0300" stroke="none" /><path d="M 120.98066250479742 99.09900007780936 l 21.11567141172096 -0.9067977855615119 a42.13513334217859,42.13513334217859 0 0,0 0.024830260168523834,0.7229059326163058 l -21.128126358886334 0.5441855883810862" fill="#ff0300" stroke="none" /><path d="M 120.99303781780057 99.45929381324524 l 21.123112763547063 -0.5440564559495936 a42.13011808411835,42.13011808411835 0 0,0 0.012415481786659226,0.7231395711432318 l -21.12933967693239 0.18136996883729542" fill="#ff0200" stroke="none" /><line stroke="#e1ed5e" stroke-width="0.3" x1="184.99686870605535" x2="189.99668451229388" y1="99.2704041080226" y2="99.22748670261217" /><path d="M 185.99683186730306 99.26182062694052 a86.0,86.0 0 0,1 -10.086455211305974,41.156179273409016" fill="none" id="id148" stroke="none" /><text fill="#e1ed5e" style="font-size:6.75px; font-family:Arial;" text-anchor="middle"><textPath startOffset="21.40746469413373" xlink:href="#id148">April</textPath></text><path d="M 120.99922638620191 100.18025310272382 l 21.117219916446786 0.18126593526997845 a42.117997877139445,42.117997877139445 0 0,0 -0.012411910037610394,0.7229315346677634 l -21.110996574810507 -0.543744385906813" fill="#ff0200" stroke="none" /><path d="M 120.99303781780057 100.54070618675476 l 21.13188655539078 0.5442824377046982 a42.138894785723764,42.138894785723764 0 0,0 -0.02483247678953876,0.722970467118492 l -21.119429391604395 -0.9069591693873009" fill="#ff0300" stroke="none" /><path d="M 120.77682067341334 103.0534771498775 l 20.852628364605977 3.0646182699015863 a42.0766219981425,42.0766219981425 0 0,0 -0.11115943830090924,0.7137233342924505 l -20.7969474341668 -3.4221297861254873" fill="#ff0100" stroke="none" /><path d="M 120.7213421655516 103.40968896794604 l 24.973245008345003 4.109337962688897 a46.30908186281013,46.30908186281013 0 0,0 -0.13580729801372493,0.7833004055581425 l -24.899022892839042 -4.537431401167628" fill="#ff5a08" stroke="none" /><path d="M 120.65975698304385 103.76489593502545 l 20.82107139175448 3.794292793958212 a42.163971076024936,42.163971076024936 0 0,0 -0.1358758216582097,0.7109597145728546 l -20.75286927781411 -4.151155073564381" fill="#ff0300" stroke="none" /><path d="M 120.51834098615036 104.47187691870673 l 20.599739207655734 4.4896172822292595 a42.083309008889486,42.083309008889486 0 0,0 -0.15989480802961362,0.7045260267504952 l -20.519633538068458 -4.842577642918772" fill="#ff0100" stroke="none" /><path d="M 120.43855184770803 104.8234425847677 l 24.68205295675485 5.824897292048289 a46.36007031975586,46.36007031975586 0 0,0 -0.189441538334129,0.7729861234867349 l -24.57842389190442 -6.247739240143123" fill="#ff5b08" stroke="none" /><path d="M 120.35273937422433 105.17358676015961 l 24.571537931256383 6.2459888558737315 a46.3529653708372,46.3529653708372 0 0,0 -0.2026518960446153,0.7695022575431515 l -24.46069655440704 -6.6668716177896865" fill="#ff5b08" stroke="none" /><path d="M 120.16314734710363 105.8691983318838 l 24.34104136487885 7.085322391178336 a46.351293618150464,46.351293618150464 0 0,0 -0.2289393688888972,0.7620647005367921 l -24.215825675986327 -7.502124695305851" fill="#ff5b08" stroke="none" /><path d="M 120.05942366710727 106.21446072829308 l 24.241774910529816 7.510163834499278 a46.37845959931008,46.37845959931008 0 0,0 -0.24212931428492684,0.7584666283855328 l -24.109280880467637 -7.9251994965761945" fill="#ff5b08" stroke="none" /><path d="M 119.94978838288452 106.5578916946017 l 20.09761851174005 6.6064863942359615 a42.15561231259122,42.15561231259122 0 0,0 -0.23188513260227592,0.6855271912507792 l -19.981247957565408 -6.950515259960901" fill="#ff0300" stroke="none" /><path d="M 119.71291397450082 107.23885506374661 l 23.787317237002803 8.735032378103044 a46.34042722568661,46.34042722568661 0 0,0 -0.28062287819224974,0.7443855244084898 l -23.633863674996114 -9.142086182705693" fill="#ff5b08" stroke="none" /><path d="M 119.58574465831526 107.57618678355244 l 23.658030774017252 9.151434535775486 a46.36633939233116,46.36633939233116 0 0,0 -0.29352393313270886,0.7398720555190869 l -23.49744816591842 -9.556207608508137" fill="#ff5b08" stroke="none" /><path d="M 119.4528033332814 107.91128576633889 l 23.558617256935904 9.581084545308222 a46.43237362345761,46.43237362345761 0 0,0 -0.3066176284952071,0.7357706881601423 l -23.390673783904212 -9.984087742909642" fill="#ff5d08" stroke="none" /><path d="M 119.16976305983485 108.57439118712176 l 23.17501506706251 10.36588946520588 a46.38765423908717,46.38765423908717 0 0,0 -0.3313747035616804,0.7241135308946794 l -22.993655898645777 -10.762191978315249" fill="#ff5c08" stroke="none" /><path d="M 119.0197475246899 108.90220220490707 l 38.30812343255656 17.93013605698309 a63.29659678917341,63.29659678917341 0 0,0 -0.4690601600449247,0.9801553303650145 l -37.99468401455172 -18.58510388941321" fill="#73ff27" stroke="none" /><path d="M 118.8641267826498 109.22738970284198 l 19.032444750824574 9.309722455597193 a42.187375613639375,42.187375613639375 0 0,0 -0.3237983267988401,0.6478135574977688 l -18.869826510814004 -9.635067869258707" fill="#ff0400" stroke="none" /><path d="M 118.5362547648365 109.86951160357373 l 44.52021290029186 23.704505758441368 a71.43761443545178,71.43761443545178 0 0,0 -0.5856341684499722,1.0775009085968694 l -44.106733382226544 -24.46526150051284" fill="#36ff6e" stroke="none" /><line stroke="#e1ed5e" stroke-width="0.3" x1="174.33088141563837" x2="178.70328620479359" y1="141.23008692659167" y2="143.65538615756765" /><path d="M 175.20536237346943 141.71514677278685 a86.0,86.0 0 0,1 -30.301960400862466,31.631185727798858" fill="none" id="id149" stroke="none" /><text fill="#e1ed5e" style="font-size:6.75px; font-family:Arial;" text-anchor="middle"><textPath startOffset="22.145653131862474" xlink:href="#id149">May</textPath></text><path d="M 118.36410011445183 110.18625677009912 l 22.23245138773158 12.331966012642287 a46.423596921852194,46.423596921852194 0 0,0 -0.3925372328103426,0.6935756781846825 l -22.01748078989986 -12.711798460926092" fill="#ff5c08" stroke="none" /><path d="M 118.18653347947321 110.5 l 21.978390721919574 12.689229799655033 a46.37845959931008,46.37845959931008 0 0,0 -0.4039923592570648,0.6860673471843091 l -21.757324652532745 -13.06464831513289" fill="#ff5b08" stroke="none" /><path d="M 117.81537515405839 111.11811171558189 l 44.75625489727897 27.931213214202288 a73.75675335013932,73.75675335013932 0 0,0 -0.6795536617316587,1.0683712271052588 l -44.27018354392142 -28.69539811598622" fill="#3aff95" stroke="none" /><path d="M 117.423217284605 111.72311816256416 l 21.057311583697906 14.168298991469417 a46.38013135199681,46.38013135199681 0 0,0 -0.4501307989233563,0.6567542879510804 l -20.81099104795923 -14.527688014490542" fill="#ff5c08" stroke="none" /><path d="M 117.21940702142032 112.02048342749411 l 20.795912357984264 14.517161917817935 a46.36174207244262,46.36174207244262 0 0,0 -0.4611556154657883,0.6486731252525598 l -20.543641643988515 -14.872012269779999" fill="#ff5b08" stroke="none" /><path d="M 117.01052211995028 112.31430620078461 l 34.08288426989746 24.673379814319848 a63.07634337269471,63.07634337269471 0 0,0 -0.6424715456883995,0.871636041959327 l -33.65431070462524 -25.254822165548052" fill="#76ff27" stroke="none" /><path d="M 116.79662413953412 112.60449989151573 l 20.287656607967197 15.224235738677653 a46.36466763964442,46.36466763964442 0 0,0 -0.4831817063600501,0.6325003639664564 l -20.023322924252845 -15.570257015884986" fill="#ff5b08" stroke="none" /><path d="M 116.57777611688842 112.89097897827486 l 20.04443830845373 15.586676466354854 a46.39141568263234,46.39141568263234 0 0,0 -0.49425319134601753,0.6244727612877986 l -19.77391868646615 -15.928469171557337" fill="#ff5c08" stroke="none" /><path d="M 116.1254893667686 113.45245675266167 l 36.05192581255177 30.07579874400468 a67.94992039272921,67.94992039272921 0 0,0 -0.7549088493753576,0.8892807263728691 l -35.5303223996693 -30.690246252827105" fill="#30ff31" stroke="none" /><path d="M 115.89218393027572 113.72728997021213 l 19.205673705681292 16.58940351985918 a46.37845959931008,46.37845959931008 0 0,0 -0.5255981073942634,0.5980341635008638 l -18.91806453432844 -16.916649961171334" fill="#ff5b08" stroke="none" /><path d="M 115.6541949942343 113.99807769240083 l 22.026679851811583 19.696392946738044 a50.548646676396444,50.548646676396444 0 0,0 -0.5839627572869165,0.6418773654765006 l -21.68531939368279 -20.071607887772217" fill="#ffae10" stroke="none" /><path d="M 115.16444852881244 114.52719865689866 l 39.47092478786125 37.81225307833005 a75.66004378399893,75.66004378399893 0 0,0 -0.9065269353124743,0.9301764962947604 l -38.816011051397965 -38.48425226669255" fill="#3effb3" stroke="none" /><path d="M 114.91283532996324 114.78537596483092 l 18.037566017882114 17.883399713332878 a46.40019238423776,46.40019238423776 0 0,0 -0.5656582932328066,0.5608236360169216 l -17.72791580451934 -18.19040335957846" fill="#ff5c08" stroke="none" /><path d="M 114.65682725009322 115.03919595460226 l 41.0479644578818 42.1188276620854 a79.81267745787449,79.81267745787449 0 0,0 -0.9894017104305766,0.947824457420341 l -40.318890261585906 -42.81726424981132" fill="#45fff2" stroke="none" /><path d="M 114.13192950727249 115.5334660781643 l 17.05506578189606 18.74650490208073 a46.343770731060104,46.343770731060104 0 0,0 -0.5930567611578553,0.530315012796819 l -16.730743993914828 -19.036515444760937" fill="#ff5b08" stroke="none" /><path d="M 113.86319453409587 115.77377054828091 l 16.755851146016514 19.065082774996316 a46.38180310468356,46.38180310468356 0 0,0 -0.6025670310741224,0.5204830499278503 l -16.426104635179534 -19.349909957388885" fill="#ff5c08" stroke="none" /><path d="M 113.59037401385872 116.0094264158162 l 27.24151432787229 32.090435380420104 a63.09389677590553,63.09389677590553 0 0,0 -0.831714761205272,0.693846034757977 l -26.686625232505126 -32.55334359908995" fill="#76ff27" stroke="none" /><path d="M 113.03279911837588 116.46651593811092 l 15.754262683780658 19.90499624979937 a46.38514661005705,46.38514661005705 0 0,0 -0.628607211517099,0.48880876977242643 l -15.410245527628328 -20.172506071192593" fill="#ff5c08" stroke="none" /><path d="M 112.7482090630111 116.68781488649013 l 25.584625516580264 33.491096078716026 a63.14530317102296,63.14530317102296 0 0,0 -0.8670361635089514,0.650640101135935 l -25.005936364160547 -33.92535520711598" fill="#75ff27" stroke="none" /><path d="M 112.45986205192187 116.90419585922612 l 28.468891921181026 38.62351950008585 a68.9818097386228,68.9818097386228 0 0,0 -0.9592380182118007,0.6944143508587629 l -27.801672892595256 -39.10653462231768" fill="#31ff44" stroke="none" /><path d="M 111.8722381534696 117.32195027204791 l 14.331982546271833 20.91079085149815 a46.35087567997877,46.35087567997877 0 0,0 -0.6601770936112373,0.44419661134921823 l -13.970909164563592 -21.15373713690449" fill="#ff5b08" stroke="none" /><path d="M 111.5731344415666 117.5232005979908 l 13.982425485156899 21.17117431409501 a46.37177258856309,46.37177258856309 0 0,0 -0.6680060697976616,0.4329934638224752 l -13.616933783102228 -21.408081619621377" fill="#ff5b08" stroke="none" /><path d="M 111.27062007382361 117.71928675628689 l 15.86156218456341 24.93701028958614 a50.554079872628364,50.554079872628364 0 0,0 -0.7362500505276016,0.45947448434752214 l -15.431148005246092 -25.20562057077521" fill="#ffae10" stroke="none" /><line stroke="#e1ed5e" stroke-width="0.3" x1="143.1302829299769" x2="145.66735839644613" y1="173.24464959558577" y2="177.55315839532614" /><path d="M 143.63769802327073 174.10635135553383 a86.0,86.0 0 0,1 -40.68552437913181,11.842963189579606" fill="none" id="id150" stroke="none" /><text fill="#e1ed5e" style="font-size:6.75px; font-family:Arial;" text-anchor="middle"><textPath startOffset="21.407464694133747" xlink:href="#id150">June</textPath></text><path d="M 110.65571695917076 118.09573695890943 l 15.002972376147572 25.478327057748572 a50.56745389412234,50.56745389412234 0 0,0 -0.7517876184222387,0.4340447838695089 l -14.563392289864934 -25.732118738894254" fill="#ffae10" stroke="none" /><path d="M 110.34350942703117 118.27599006163325 l 20.679745323484735 36.53912849167215 a62.98523285126708,62.98523285126708 0 0,0 -0.9455457484144587,0.5244782875936026 l -20.04945538691418 -36.8887396946989" fill="#78ff26" stroke="none" /><path d="M 109.71004243097381 118.62028667847754 l 11.728190429928365 22.490351569261023 a46.36466763964442,46.36466763964442 0 0,0 -0.7088777453993809,0.36195802775483193 l -11.340385462815401 -22.688367548688692" fill="#ff5b08" stroke="none" /><path d="M 108.73861861582097 119.09545874513695 l 12.312791311454681 26.90567112056931 a50.58918667905002,50.58918667905002 0 0,0 -0.7927725379290484,0.3545970725560729 l -11.849105370670006 -27.113071944035234" fill="#ffaf10" stroke="none" /><path d="M 107.74402155503746 119.51999308798841 l 23.232064665112397 58.55997926396521 a84.0,84.0 0 0,0 -1.3449109500258825,0.5202404474478377 l -22.223381452592985 -58.95015959955109" fill="#4dd2ff" stroke="none" /><path d="M 107.06938296918513 119.77432235084164 l 9.957165413861672 27.851963806828277 a50.57832028658618,50.57832028658618 0 0,0 -0.8200774341543224,0.28526550156148217 l -9.477582207662328 -28.01878774095835" fill="#ffae10" stroke="none" /><path d="M 106.38641147887787 120.00534299687104 l 7.733218129415552 24.224195647312413 a46.428612179912434,46.428612179912434 0 0,0 -0.7613394050915924,0.2358648938454786 l -7.316238091452336 -24.353377128964535" fill="#ff5c08" stroke="none" /><path d="M 105.69591212413111 120.21278271476187 l 8.028878227726564 28.491656388585092 a50.60130688602892,50.60130688602892 0 0,0 -0.838098841522483,0.2284275661169602 l -7.538597985269385 -28.625284448846195" fill="#ffaf10" stroke="none" /><path d="M 104.9986988182912 120.39639698878246 l 6.036242195143365 24.629928028884787 a46.35881650524081,46.35881650524081 0 0,0 -0.7745627667791422,0.18279470393480793 l -5.612547274624344 -24.72991887646582" fill="#ff5b08" stroke="none" /><path d="M 104.64783097203109 120.47920084513623 l 5.630029828433163 24.806950234295144 a46.43780681968953,46.43780681968953 0 0,0 -0.7789114691273739,0.169760129381696 l -5.203355942686654 -24.899941821810557" fill="#ff5d08" stroke="none" /><path d="M 103.94208987418118 120.62667999033965 l 4.772167323407556 24.969995962035092 a46.42192516916545,46.42192516916545 0 0,0 -0.7840116409140452,0.14287303777641688 l -4.342820948942454 -25.048237173742873" fill="#ff5c08" stroke="none" /><line stroke="#e1ed5e" stroke-width="0.3" x1="101.45913802915013" x2="101.54496967792366" y1="184.9874750549273" y2="189.98673829345242" /><path d="M 101.47630435890484 185.9873277026323 a86.0,86.0 0 0,1 -42.54439059252881,-10.42667462771756" fill="none" id="id151" stroke="none" /><text fill="#e1ed5e" style="font-size:6.75px; font-family:Arial;" text-anchor="middle"><textPath startOffset="22.145653131862474" xlink:href="#id151">July</textPath></text><line stroke="#e1ed5e" stroke-width="0.3" x1="58.13341422392154" x2="55.67067388415222" y1="173.97424548756322" y2="178.32567169271397" /><path d="M 57.64086615596768 174.84453072859336 a86.0,86.0 0 0,1 -31.369924170532247,-30.572349798747897" fill="none" id="id152" stroke="none" /><text fill="#e1ed5e" style="font-size:6.75px; font-family:Arial;" text-anchor="middle"><textPath startOffset="22.145653131862474" xlink:href="#id152">August</textPath></text><line stroke="#e1ed5e" stroke-width="0.3" x1="26.387840678322732" x2="22.057713659400548" y1="142.50000000000003" y2="145.00000000000006" /><path d="M 25.521815274538298 143.00000000000003 a86.0,86.0 0 0,1 -11.493303480769221,-40.785679425670985" fill="none" id="id153" stroke="none" /><text fill="#e1ed5e" style="font-size:6.75px; font-family:Arial;" text-anchor="middle"><textPath startOffset="21.40746469413373" xlink:href="#id153">September</textPath></text><line stroke="#e1ed5e" stroke-width="0.3" x1="15.003131293944662" x2="10.003315487706104" y1="100.72959589197737" y2="100.7725132973878" /><path d="M 14.003168132696942 100.73817937305945 a86.0,86.0 0 0,1 10.791469493833604,-42.45332614584628" fill="none" id="id154" stroke="none" /><text fill="#e1ed5e" style="font-size:6.75px; font-family:Arial;" text-anchor="middle"><textPath startOffset="22.145653131862435" xlink:href="#id154">October</textPath></text><line stroke="#e1ed5e" stroke-width="0.3" x1="26.387840678322718" x2="22.05771365940052" y1="57.49999999999999" y2="54.99999999999999" /><path d="M 25.521815274538284 56.99999999999999 a86.0,86.0 0 0,1 29.574782752854787,-30.34633250058573" fill="none" id="id155" stroke="none" /><text fill="#e1ed5e" style="font-size:6.75px; font-family:Arial;" text-anchor="middle"><textPath startOffset="21.40746469413373" xlink:href="#id155">November</textPath></text><line stroke="#e1ed5e" stroke-width="0.3" x1="56.869717070023135" x2="54.33264160355391" y1="26.7553504044142" y2="22.446841604673864" /><path d="M 56.362301976729285 25.89364864446614 a86.0,86.0 0 0,1 42.16139366436587,-11.88097634709845" fill="none" id="id156" stroke="none" /><text fill="#e1ed5e" style="font-size:6.75px; font-family:Arial;" text-anchor="middle"><textPath startOffset="22.145653131862474" xlink:href="#id156">December</textPath></text></svg>