<?xml version="1.0" encoding="utf-8" ?>
<svg baseProfile="full" height="200mm" version="1.1" viewBox="0,0,200,200" width="200mm" xmlns="http://www.w3.org/2000/svg" xmlns:ev="http://www.w3.org/2001/xml-events" xmlns:xlink="http://www.w3.org/1999/xlink"><defs /><rect fill="#1a1a1a" height="200" width="200" x="0" y="0" /><text alignment-baseline="middle" fill="#e1ed5e" style="dominant-baseline: central; font-size:9.0px; font-family:Arial;" text-anchor="middle" x="100.0" y="100.0">2016</text><line stroke="#e1ed5e" stroke-width="0.3" x1="100.0" x2="100.0" y1="15.0" y2="10.0" /><path d="M 100.0 14.0 a86.0,86.0 0 0,1 42.35913384403234,11.155469271406648" fill="none" id="id49" stroke="none" /><text fill="#e1ed5e" style="font-size:6.75px; font-family:Arial;" text-anchor="middle"><textPath startOffset="22.145653131862478" xlink:href="#id49">January</textPath></text><line stroke="#e1ed5e" stroke-width="0.3" x1="143.13028292997686" x2="145.6673583964461" y1="26.7553504044142" y2="22.446841604673864" /><path d="M 143.63769802327073 25.89364864446614 a86.0,86.0 0 0,1 29.32050498858742,28.57503671076993" fill="none" id="id50" stroke="none" /><text fill="#e1ed5e" style="font-size:6.75px; font-family:Arial;" text-anchor="middle"><textPath startOffset="20.669276256404974" xlink:href="#id50">February</textPath></text><line stroke="#e1ed5e" stroke-width="0.3" x1="172.87174338648825" x2="177.1583165268699" y1="56.24261187166439" y2="53.66864786411523" /><path d="M 173.72905801456457 55.72781907015455 a86.0,86.0 0 0,1 12.242430191666344,42.057860355516425" fill="none" id="id51" stroke="none" /><text fill="#e1ed5e" style="font-size:6.75px; font-family:Arial;" text-anchor="middle"><textPath startOffset="22.145653131862474" xlink:href="#id51">March</textPath></text><path d="M 120.82617615685814 97.30363454192243 l 46.8820943865765 -6.069825730570783 a68.27339165398826,68.27339165398826 0 0,0 0.14050635958391733,1.1635942176593659 l -46.97938283242008 5.264137835988005" fill="#36ff71" stroke="none" /><line stroke="#e1ed5e" stroke-width="0.3" x1="184.99686870605535" x2="189.99668451229388" y1="99.2704041080226" y2="99.22748670261217" /><path d="M 185.99683186730306 99.26182062694052 a86.0,86.0 0 0,1 -10.086455211305974,41.156179273409016" fill="none" id="id52" stroke="none" /><text fill="#e1ed5e" style="font-size:6.75px; font-family:Arial;" text-anchor="middle"><textPath startOffset="21.40746469413373" xlink:href="#id52">April</textPath></text><line stroke="#e1ed5e" stroke-width="0.3" x1="174.33088141563837" x2="178.70328620479359" y1="141.23008692659167" y2="143.65538615756765" /><path d="M 175.20536237346943 141.71514677278685 a86.0,86.0 0 0,1 -30.301960400862466,31.631185727798858" fill="none" id="id53" stroke="none" /><text fill="#e1ed5e" style="font-size:6.75px; font-family:Arial;" text-anchor="middle"><textPath startOffset="22.145653131862474" xlink:href="#id53">May</textPath></text><line stroke="#e1ed5e" stroke-width="0.3" x1="143.1302829299769" x2="145.66735839644613" y1="173.24464959558577" y2="177.55315839532614" /><path d="M 143.63769802327073 174.10635135553383 a86.0,86.0 0 0,1 -40.68552437913181,11.842963189579606" fill="none" id="id54" stroke="none" /><text fill="#e1ed5e" style="font-size:6.75px; font-family:Arial;" text-anchor="middle"><textPath startOffset="21.407464694133747" xlink:href="#id54">June</textPath></text><path d="M 109.71004243097381 118.62028667847754 l 28.532087024745557 54.714038966640295 a82.70661269289286,82.70661269289286 0 0,0 -1.2645162819031337,0.6456710235749645 l -27.58864352112884 -55.1957679418881" fill="#4be0ff" stroke="none" /><path d="M 109.06512990194946 118.94263497670748 l 12.402244392587779 25.91592078235806 a49.730656379048035,49.730656379048035 0 0,0 -0.7732200273493884,0.36190601496747643 l -11.955535651366885 -26.12500302889607" fill="#daff1b" stroke="none" /><path d="M 106.72888874123015 119.89276391827305 l 9.277815488648422 27.42821293241349 a49.95487394044773,49.95487394044773 0 0,0 -0.8146861175370039,0.26780350855685175 l -8.805606633463682 -27.58343736237236" fill="#d7ff1c" stroke="none" /><path d="M 106.0420521117495 120.11202640906438 l 8.274991550896658 27.544755577791374 a49.76089437078896,49.76089437078896 0 0,0 -0.8202016838754792,0.23874875642872906 l -7.8009298546395724 -27.68274802852262" fill="#daff1c" stroke="none" /><path d="M 105.3480935250658 120.30758222061773 l 16.044280575197412 60.92274666185318 a84.0,84.0 0 0,0 -1.3975788270984106,0.35525907265892 l -14.996096454873605 -61.189190966347375" fill="#4dd2ff" stroke="none" /><path d="M 104.64783097203109 120.47920084513623 l 6.393545577234561 28.17114150162418 a49.88755161921321,49.88755161921321 0 0,0 -0.8367747915780847,0.1823711711945636 l -5.90900836903734 -28.276744130952462" fill="#d8ff1c" stroke="none" /><path d="M 103.94208987418118 120.62667999033965 l 5.440293939871255 28.465916742808172 a49.981118235166264,49.981118235166264 0 0,0 -0.844122219823398,0.15382718764243886 l -4.9508369864968 -28.555112104381973" fill="#d7ff1c" stroke="none" /><path d="M 103.2317021107853 120.74984581791261 l 4.428488990597152 28.434076103284458 a49.7768691588785,49.7768691588785 0 0,0 -0.8454361690677641,0.12425000265954154 l -3.939727715921702 -28.505907179242882" fill="#daff1c" stroke="none" /><path d="M 102.51750503828377 120.84855314841334 l 6.903714506473777 57.1726596852463 a78.58797000652032,78.58797000652032 0 0,0 -1.3407261056861635,0.15023115662917824 l -5.921252499186814 -57.28274660238245" fill="#45fff1" stroke="none" /><path d="M 102.15924093988457 120.88869738790638 l 2.9738839232625525 28.769629267548183 a49.92292436426864,49.92292436426864 0 0,0 -0.8532075881634702,0.0807996456756659 l -2.479576771714067 -28.816440668729033" fill="#d8ff1c" stroke="none" /><path d="M 101.44090949804482 120.95050786540614 l 2.3650442111600083 34.38722377441077 a55.46845794392524,55.46845794392524 0 0,0 -0.950506565220206,0.05718011464763081 l -1.774393293807337 -34.422755866883094" fill="#8fff24" stroke="none" /><line stroke="#e1ed5e" stroke-width="0.3" x1="101.45913802915013" x2="101.54496967792366" y1="184.9874750549273" y2="189.98673829345242" /><path d="M 101.47630435890484 185.9873277026323 a86.0,86.0 0 0,1 -42.54439059252881,-10.42667462771756" fill="none" id="id55" stroke="none" /><text fill="#e1ed5e" style="font-size:6.75px; font-family:Arial;" text-anchor="middle"><textPath startOffset="22.145653131862474" xlink:href="#id55">July</textPath></text><path d="M 100.36049292484886 120.99690560180557 l 0.9922271981461186 57.79225992785601 a78.80077700499892,78.80077700499892 0 0,0 -1.3527201229949637,0.011611475337349367 l -7.078553654740186e-15 -57.80077700499892" fill="#45fff3" stroke="none" /><path d="M 99.63950707515114 120.99690560180557 l -0.49353291319776216 28.7458179495269 a49.75005433601391,49.75005433601391 0 0,0 -0.8537741527122129,-0.021990193628446637 l 0.9869203799807189 -28.733110038548404" fill="#daff1c" stroke="none" /><path d="M 98.91894614982273 120.97215588758144 l -2.964556985687703 57.511613534576604 a78.58797000652032,78.58797000652032 0 0,0 -1.3466821362520116,-0.081013053210172 l 3.951383474072161 -57.45224850354174" fill="#45fff1" stroke="none" /><path d="M 98.19965949673042 120.92268563240118 l -2.4612838096345575 28.603848720605857 a49.709546837644,49.709546837644 0 0,0 -0.8495608601887364,-0.08045429674496984 l 2.951944233208309 -28.557382668355704" fill="#dbff1b" stroke="none" /><path d="M 97.48249496171623 120.84855314841334 l -6.889419827246411 57.054279235126266 a78.46872962399479,78.46872962399479 0 0,0 -1.335919577553952,-0.17296153535606376 l 7.867817226691157 -56.92760610356981" fill="#45ffef" stroke="none" /><path d="M 96.76829788921471 120.74984581791261 l -4.42348445298806 28.401943381821166 a49.74434905455335,49.74434905455335 0 0,0 -0.8426278121278904,-0.13865408582815353 l 4.910389768169014 -28.321823297497346" fill="#daff1b" stroke="none" /><path d="M 96.41257539226777 120.69131181640829 l -4.938166773526645 28.482033682948234 a49.90694957617909,49.90694957617909 0 0,0 -0.842869598528072,-0.1535989183154141 l 5.426371105605774 -28.393066590701455" fill="#d8ff1c" stroke="none" /><path d="M 95.70440661134978 120.55596938700252 l -5.885784529536645 28.16560965181713 a49.77401651814823,49.77401651814823 0 0,0 -0.834870442548177,-0.18195612718697315 l 6.368417388703958 -28.06042206649644" fill="#daff1c" stroke="none" /><path d="M 94.6519064749342 120.30758222061772 l -7.335757060789029 27.855064419543247 a49.80482503803521,49.80482503803521 0 0,0 -0.8249068795915251,-0.224832038230623 l 7.812845341315249 -27.725031887168477" fill="#d9ff1c" stroke="none" /><path d="M 93.95794788825049 120.11202640906438 l -8.275812303465639 27.54748759615818 a49.76374701151924,49.76374701151924 0 0,0 -0.8160291631820428,-0.25280792070074026 l 8.747482099519315 -27.401363087650793" fill="#daff1c" stroke="none" /><path d="M 93.27111125876986 119.89276391827306 l -9.203594427223182 27.208791552528176 a49.723239513149316,49.723239513149316 0 0,0 -0.8062131452119163,-0.28044278217641916 l 9.669313344480122 -27.046790337783165" fill="#dbff1b" stroke="none" /><path d="M 92.59220618246901 119.65005319985036 l -20.27442809112345 53.78032925866459 a78.4750054336014,78.4750054336014 0 0,0 -1.2564511203689466,-0.4860222850029558 l 21.194651473985925 -53.42436708552359" fill="#45ffef" stroke="none" /><path d="M 91.92203290615298 119.3841803445677 l -11.042463385514202 26.497892257587164 a49.706694196913716,49.706694196913716 0 0,0 -0.784809348806003,-0.3349884433567185 l 11.495707809490634 -26.304429164571044" fill="#dbff1b" stroke="none" /><path d="M 91.26138138417905 119.09545874513695 l -11.977614860540726 26.173250085603804 a49.783715496631174,49.783715496631174 0 0,0 -0.7740449988124231,-0.3622921432674262 l 12.42514857322464 -25.963781710765854" fill="#daff1c" stroke="none" /><path d="M 90.6110303473126 118.78422872680471 l -25.724521856766767 51.46627588756596 a78.53719300152142,78.53719300152142 0 0,0 -1.2007692740864324,-0.6131213471683433 l 26.604218352566782 -51.01709658872478" fill="#45fff0" stroke="none" /><path d="M 90.28995756902619 118.62028667847754 l -4.493347987578161 8.616587236321124 a30.71780591175831,30.71780591175831 0 0,0 -0.46546425693424587,-0.24783349943895183 l 4.640601060298968 -8.538183269159598" fill="#ff0000" stroke="none" /><line stroke="#e1ed5e" stroke-width="0.3" x1="58.13341422392154" x2="55.67067388415222" y1="173.97424548756322" y2="178.32567169271397" /><path d="M 57.64086615596768 174.84453072859336 a86.0,86.0 0 0,1 -31.369924170532247,-30.572349798747897" fill="none" id="id56" stroke="none" /><text fill="#e1ed5e" style="font-size:6.75px; font-family:Arial;" text-anchor="middle"><textPath startOffset="22.145653131862474" xlink:href="#id56">August</textPath></text><path d="M 87.2517909369889 116.68781488649013 l -17.576236511891107 23.00785779883724 a49.95316235600957,49.95316235600957 0 0,0 -0.6769606305020092,-0.5264086808381285 l 17.968607087028346 -22.70274806637832" fill="#d7ff1c" stroke="none" /><path d="M 86.68645165197938 116.24036423190432 l -18.207745878369103 22.21048943354249 a49.719816344272985,49.719816344272985 0 0,0 -0.6554152983262752,-0.5467707525166335 l 18.586335510857268 -21.89465649711399" fill="#dbff1b" stroke="none" /><line stroke="#e1ed5e" stroke-width="0.3" x1="26.387840678322732" x2="22.057713659400548" y1="142.50000000000003" y2="145.00000000000006" /><path d="M 25.521815274538298 143.00000000000003 a86.0,86.0 0 0,1 -11.493303480769221,-40.785679425670985" fill="none" id="id57" stroke="none" /><text fill="#e1ed5e" style="font-size:6.75px; font-family:Arial;" text-anchor="middle"><textPath startOffset="21.40746469413373" xlink:href="#id57">September</textPath></text><path d="M 81.81346652052679 110.50000000000001 l -24.885925118469544 14.367895566181277 a49.73579113236253,49.73579113236253 0 0,0 -0.42054366997015175,-0.7430603691210899 l 25.128902153461073 -13.938578426961065" fill="#daff1b" stroke="none" /><path d="M 81.4637452351635 109.86951160357371 l -25.28339509680997 13.461983796159046 a49.64393610084765,49.64393610084765 0 0,0 -0.3940592177302154,-0.7556605086531404 l 25.510762383515136 -13.025977044401403" fill="#dcff1b" stroke="none" /><path d="M 80.9802524753101 108.90220220490708 l -26.068442807897213 12.201347506937545 a49.782574440339054,49.782574440339054 0 0,0 -0.35562664502668906,-0.7771083997743125 l 26.27405391777896 -11.752050124948543" fill="#daff1c" stroke="none" /><path d="M 80.68587082218212 108.24405325689762 l -26.43099328449968 11.281819349141216 a49.738073244946754,49.738073244946754 0 0,0 -0.3284469191250198,-0.7881530389974608 l 26.62076604816119 -10.826433800702475" fill="#daff1b" stroke="none" /><line stroke="#e1ed5e" stroke-width="0.3" x1="15.003131293944662" x2="10.003315487706104" y1="100.72959589197737" y2="100.7725132973878" /><path d="M 14.003168132696942 100.73817937305945 a86.0,86.0 0 0,1 10.791469493833604,-42.45332614584628" fill="none" id="id58" stroke="none" /><text fill="#e1ed5e" style="font-size:6.75px; font-family:Arial;" text-anchor="middle"><textPath startOffset="22.145653131862435" xlink:href="#id58">October</textPath></text><line stroke="#e1ed5e" stroke-width="0.3" x1="26.387840678322718" x2="22.05771365940052" y1="57.49999999999999" y2="54.99999999999999" /><path d="M 25.521815274538284 56.99999999999999 a86.0,86.0 0 0,1 29.574782752854787,-30.34633250058573" fill="none" id="id59" stroke="none" /><text fill="#e1ed5e" style="font-size:6.75px; font-family:Arial;" text-anchor="middle"><textPath startOffset="21.40746469413373" xlink:href="#id59">November</textPath></text><line stroke="#e1ed5e" stroke-width="0.3" x1="56.869717070023135" x2="54.33264160355391" y1="26.7553504044142" y2="22.446841604673864" /><path d="M 56.362301976729285 25.89364864446614 a86.0,86.0 0 0,1 42.16139366436587,-11.88097634709845" fill="none" id="id60" stroke="none" /><text fill="#e1ed5e" style="font-size:6.75px; font-family:Arial;" text-anchor="middle"><textPath startOffset="22.145653131862474" xlink:href="#id60">December</textPath></text></svg>